{
.appVersion = "3133";
.formatVersion = 3;
DisplayStrings = (
G,
g
);
customParameters = (
{
name = vendorID;
value = XXXX;
},
{
name = panose;
value = (
0,
0,
0,
0,
0,
0,
0,
0,
0,
0
);
},
{
name = unicodeRanges;
value = (
0,
1,
2
);
},
{
name = codePageRanges;
value = (
"1252",
"1250"
);
},
{
name = fsType;
value = (
);
},
{
name = glyphOrder;
value = (
.notdef,
null,
controlLF,
controlCR,
space,
zero,
one,
two,
three,
four,
five,
six,
seven,
eight,
nine,
A,
B,
C,
D,
E,
F,
G,
H,
I,
J,
K,
L,
M,
N,
O,
P,
Q,
R,
S,
T,
U,
V,
W,
X,
Y,
Z,
a,
b,
c,
d,
e,
f,
g,
h,
i,
j,
k,
l,
m,
n,
o,
p,
q,
r,
s,
t,
u,
v,
w,
x,
y,
z,
nonbreakingspace,
softhyphen
);
}
);
date = "2022-10-13 18:03:22 +0000";
familyName = Weenies;
fontMaster = (
{
customParameters = (
{
name = typoAscender;
value = 900;
},
{
name = typoDescender;
value = -350;
},
{
name = typoLineGap;
value = 0;
},
{
name = winAscent;
value = 939;
},
{
name = winDescent;
value = 368;
},
{
name = hheaAscender;
value = 900;
},
{
name = hheaDescender;
value = -350;
},
{
name = strikeoutPosition;
value = 258;
},
{
name = strikeoutSize;
value = 49;
}
);
id = m01;
metricValues = (
{
pos = 900;
},
{
pos = 700;
},
{
pos = 350;
},
{
},
{
pos = -350;
},
{
}
);
name = Regular;
}
);
glyphs = (
{
glyphname = zero;
layers = (
{
layerId = m01;
shapes = (
{
closed = 1;
nodes = (
(349,140,o),
(360,144,o),
(364,153,cs),
(367,161,o),
(362,187,o),
(360,195,cs),
(354,230,o),
(346,265,o),
(336,300,cs),
(334,309,o),
(330,318,o),
(328,327,cs),
(327,331,o),
(336,334,o),
(337,330,cs),
(347,303,o),
(367,281,o),
(387,261,cs),
(397,252,o),
(435,223,o),
(448,219,c),
(449,218,o),
(453,218,o),
(451,217,cs),
(434,209,o),
(400,189,o),
(400,170,cs),
(400,155,o),
(421,145,o),
(435,143,cs),
(448,140,o),
(461,142,o),
(473,143,cs),
(485,145,o),
(534,157,o),
(544,162,c),
(548,163,o),
(552,163,o),
(555,165,cs),
(563,169,o),
(564,179,o),
(557,185,c),
(562,203,o),
(562,222,o),
(561,241,cs),
(557,283,o),
(549,325,o),
(539,367,c),
(556,348,o),
(579,332,o),
(603,326,cs),
(644,316,o),
(692,331,o),
(725,358,cs),
(772,398,o),
(787,493,o),
(761,549,cs),
(751,569,o),
(738,587,o),
(723,603,cs),
(704,624,o),
(677,641,o),
(650,644,cs),
(632,646,o),
(613,647,o),
(596,640,cs),
(564,627,o),
(561,583,o),
(591,565,cs),
(604,557,o),
(622,553,o),
(626,567,c),
(648,560,o),
(669,544,o),
(681,524,cs),
(693,506,o),
(697,463,o),
(686,445,cs),
(676,428,o),
(641,412,o),
(621,413,cs),
(609,413,o),
(598,418,o),
(589,425,cs),
(575,437,o),
(566,455,o),
(559,472,cs),
(555,481,o),
(533,533,o),
(528,541,cs),
(525,547,o),
(521,573,o),
(516,577,cs),
(509,582,o),
(501,587,o),
(493,589,cs),
(442,599,o),
(363,531,o),
(331,491,c),
(336,523,o),
(341,556,o),
(345,589,c),
(346,590,o),
(346,591,o),
(346,591,c),
(360,632,o),
(352,679,o),
(342,721,cs),
(337,742,o),
(331,780,o),
(309,779,cs),
(296,779,o),
(286,766,o),
(278,755,c),
(275,749,o),
(259,722,o),
(257,716,c),
(239,722,o),
(174,722,o),
(155,717,c),
(150,728,o),
(141,769,o),
(131,776,cs),
(121,783,o),
(112,771,o),
(105,761,cs),
(71,712,o),
(51,647,o),
(56,587,cs),
(56,581,o),
(59,563,o),
(65,559,cs),
(66,558,o),
(67,558,o),
(68,555,cs),
(72,538,o),
(88,525,o),
(102,514,cs),
(112,505,o),
(123,496,o),
(136,491,cs),
(138,490,o),
(141,489,o),
(141,488,cs),
(143,461,o),
(123,295,o),
(124,268,c),
(113,267,o),
(101,264,o),
(90,260,cs),
(62,250,o),
(28,231,o),
(41,204,c),
(44,195,o),
(52,188,o),
(60,182,cs),
(85,165,o),
(147,152,o),
(175,164,c),
(182,168,o),
(185,177,o),
(187,185,cs),
(192,215,o),
(196,247,o),
(202,277,cs),
(204,288,o),
(217,348,o),
(220,358,c),
(228,303,o),
(234,248,o),
(243,194,c),
(232,186,o),
(209,164,o),
(208,151,cs),
(208,146,o),
(209,141,o),
(211,137,c),
(221,125,o),
(262,119,o),
(277,118,cs),
(299,116,o),
(321,124,o),
(340,135,cs)
);
},
{
closed = 1;
nodes = (
(242,156,o),
(254,170,o),
(258,172,cs),
(260,173,o),
(267,174,o),
(268,174,c),
(273,177,o),
(275,185,o),
(274,191,cs),
(273,195,o),
(269,198,o),
(268,202,cs),
(260,246,o),
(253,290,o),
(245,334,cs),
(242,345,o),
(233,395,o),
(228,405,cs),
(224,412,o),
(214,412,o),
(211,405,cs),
(210,403,o),
(209,394,o),
(209,391,cs),
(207,380,o),
(190,312,o),
(187,301,cs),
(182,279,o),
(178,257,o),
(174,235,cs),
(173,228,o),
(167,191,o),
(165,184,c),
(165,184,o),
(159,185,o),
(159,185,c),
(147,183,o),
(102,192,o),
(90,196,cs),
(81,198,o),
(71,204,o),
(65,212,cs),
(62,217,o),
(69,221,o),
(74,223,cs),
(90,232,o),
(108,237,o),
(126,242,c),
(128,243,o),
(139,247,o),
(141,247,cs),
(148,248,o),
(154,252,o),
(152,258,c),
(152,260,o),
(155,266,o),
(156,267,c),
(164,335,o),
(164,404,o),
(165,473,cs),
(165,477,o),
(163,490,o),
(165,494,cs),
(168,500,o),
(166,508,o),
(160,512,cs),
(158,514,o),
(140,523,o),
(137,525,cs),
(128,530,o),
(98,549,o),
(93,559,cs),
(84,576,o),
(80,595,o),
(80,615,cs),
(80,616,o),
(80,623,o),
(79,625,c),
(72,655,o),
(106,728,o),
(123,754,c),
(125,748,o),
(135,713,o),
(137,707,cs),
(138,703,o),
(138,698,o),
(141,695,cs),
(143,692,o),
(147,690,o),
(151,690,cs),
(157,690,o),
(193,692,o),
(199,691,cs),
(206,691,o),
(245,690,o),
(251,690,cs),
(261,690,o),
(273,695,o),
(278,703,cs),
(287,721,o),
(294,740,o),
(307,756,c),
(307,756,o),
(308,755,o),
(308,755,c),
(314,741,o),
(325,687,o),
(324,673,cs),
(324,647,o),
(327,622,o),
(325,596,cs),
(325,595,o),
(326,589,o),
(326,588,cs),
(320,557,o),
(314,527,o),
(308,496,cs),
(307,487,o),
(299,451,o),
(301,443,cs),
(303,431,o),
(319,428,o),
(325,438,cs),
(347,474,o),
(376,506,o),
(409,532,cs),
(427,545,o),
(447,558,o),
(468,564,cs),
(477,566,o),
(490,569,o),
(496,562,cs),
(506,551,o),
(507,501,o),
(521,498,c),
(529,475,o),
(536,452,o),
(548,431,cs),
(556,417,o),
(567,403,o),
(581,395,cs),
(598,385,o),
(620,382,o),
(638,386,cs),
(660,391,o),
(682,403,o),
(698,420,cs),
(724,448,o),
(720,506,o),
(698,538,cs),
(688,554,o),
(673,566,o),
(657,576,cs),
(639,588,o),
(624,591,o),
(603,587,c),
(593,593,o),
(591,606,o),
(598,614,cs),
(603,620,o),
(610,621,o),
(617,623,c),
(637,626,o),
(659,623,o),
(677,613,cs),
(693,604,o),
(706,591,o),
(717,577,cs),
(728,562,o),
(739,545,o),
(745,527,cs),
(750,512,o),
(751,496,o),
(750,481,cs),
(747,451,o),
(741,418,o),
(722,395,cs),
(703,370,o),
(671,355,o),
(640,350,cs),
(620,348,o),
(598,354,o),
(581,364,cs),
(558,377,o),
(541,399,o),
(528,421,cs),
(525,426,o),
(522,433,o),
(515,435,cs),
(508,436,o),
(500,427,o),
(500,419,cs),
(500,415,o),
(501,412,o),
(502,408,cs),
(515,362,o),
(524,316,o),
(532,269,cs),
(536,247,o),
(539,225,o),
(538,203,cs),
(537,196,o),
(536,184,o),
(529,183,cs),
(509,178,o),
(448,161,o),
(429,170,c),
(430,170,o),
(428,171,o),
(428,171,c),
(436,180,o),
(468,203,o),
(479,206,cs),
(494,210,o),
(498,227,o),
(485,233,cs),
(472,240,o),
(421,281,o),
(410,290,cs),
(389,308,o),
(364,331,o),
(362,358,cs),
(362,374,o),
(367,390,o),
(374,405,cs),
(390,440,o),
(424,467,o),
(458,488,c),
(459,488,o),
(464,488,o),
(465,489,c),
(479,496,o),
(481,516,o),
(466,517,cs),
(457,517,o),
(449,512,o),
(441,509,cs),
(402,490,o),
(368,457,o),
(348,419,cs),
(338,400,o),
(331,379,o),
(331,358,c),
(320,355,o),
(306,347,o),
(308,335,cs),
(309,332,o),
(308,329,o),
(308,326,cs),
(308,323,o),
(313,309,o),
(313,306,cs),
(316,288,o),
(336,188,o),
(340,171,c),
(341,169,o),
(342,166,o),
(340,166,c),
(322,158,o),
(303,148,o),
(283,147,cs),
(268,147,o),
(253,148,o),
(239,152,c)
);
},
{
closed = 1;
nodes = (
(215,571,o),
(222,600,o),
(223,613,cs),
(223,620,o),
(221,629,o),
(216,633,cs),
(207,640,o),
(193,636,o),
(189,625,cs),
(186,616,o),
(178,583,o),
(180,574,cs),
(182,562,o),
(195,557,o),
(205,563,cs)
);
},
{
closed = 1;
nodes = (
(140,588,o),
(140,606,o),
(138,611,cs),
(130,627,o),
(106,630,o),
(108,612,cs),
(110,601,o),
(104,588,o),
(109,578,cs),
(111,574,o),
(115,573,o),
(119,571,cs),
(127,568,o),
(137,573,o),
(139,582,cs)
);
}
);
width = 806;
}
);
note = zero;
unicode = 48;
},
{
glyphname = one;
layers = (
{
layerId = m01;
shapes = (
{
closed = 1;
nodes = (
(354,-71,o),
(363,-69,o),
(364,-63,cs),
(364,-59,o),
(368,-57,o),
(369,-54,c),
(370,-38,o),
(368,-20,o),
(374,-5,cs),
(379,9,o),
(389,22,o),
(402,30,cs),
(416,40,o),
(433,42,o),
(450,43,cs),
(471,44,o),
(540,40,o),
(558,30,cs),
(566,26,o),
(571,18,o),
(575,11,cs),
(584,-9,o),
(588,-30,o),
(592,-51,cs),
(595,-63,o),
(612,-61,o),
(613,-49,cs),
(613,-40,o),
(602,-2,o),
(599,7,cs),
(595,20,o),
(589,32,o),
(579,41,cs),
(550,67,o),
(460,69,o),
(422,61,cs),
(390,55,o),
(365,34,o),
(353,3,cs),
(349,-6,o),
(345,-43,o),
(346,-52,c),
(315,-60,o),
(285,-68,o),
(254,-69,cs),
(239,-70,o),
(223,-69,o),
(208,-65,cs),
(203,-63,o),
(198,-59,o),
(197,-54,c),
(192,-41,o),
(197,-15,o),
(208,-5,cs),
(216,3,o),
(255,11,o),
(266,13,c),
(276,8,o),
(285,17,o),
(281,27,cs),
(277,39,o),
(276,51,o),
(277,63,cs),
(278,91,o),
(295,141,o),
(321,151,cs),
(332,156,o),
(359,161,o),
(361,173,c),
(381,159,o),
(405,152,o),
(430,148,cs),
(453,144,o),
(477,143,o),
(501,147,cs),
(529,150,o),
(557,163,o),
(580,181,c),
(576,173,o),
(581,164,o),
(589,164,cs),
(609,164,o),
(662,151,o),
(676,137,cs),
(681,133,o),
(685,126,o),
(687,120,cs),
(692,102,o),
(693,84,o),
(696,66,cs),
(696,65,o),
(698,60,o),
(698,59,cs),
(699,56,o),
(699,52,o),
(701,50,c),
(706,42,o),
(718,44,o),
(727,41,c),
(735,40,o),
(743,37,o),
(749,31,cs),
(762,19,o),
(771,1,o),
(774,-16,cs),
(777,-29,o),
(776,-43,o),
(775,-56,cs),
(774,-70,o),
(794,-73,o),
(796,-59,cs),
(798,-41,o),
(799,-23,o),
(795,-5,cs),
(790,13,o),
(781,31,o),
(768,44,cs),
(759,54,o),
(746,61,o),
(733,64,cs),
(727,65,o),
(720,64,o),
(717,69,c),
(714,96,o),
(713,126,o),
(697,148,cs),
(684,165,o),
(660,172,o),
(640,178,cs),
(630,180,o),
(596,188,o),
(586,185,c),
(599,196,o),
(609,209,o),
(621,221,cs),
(624,224,o),
(640,239,o),
(642,242,cs),
(647,249,o),
(643,256,o),
(635,258,c),
(635,283,o),
(645,328,o),
(667,338,cs),
(676,343,o),
(689,336,o),
(695,328,cs),
(702,319,o),
(704,307,o),
(713,300,cs),
(722,292,o),
(736,304,o),
(728,314,cs),
(722,321,o),
(720,330,o),
(715,337,cs),
(700,359,o),
(672,369,o),
(650,354,cs),
(639,345,o),
(631,332,o),
(625,319,cs),
(614,295,o),
(612,268,o),
(612,242,c),
(598,227,o),
(585,211,o),
(569,199,cs),
(549,183,o),
(524,171,o),
(498,168,cs),
(465,163,o),
(431,168,o),
(399,177,cs),
(389,180,o),
(379,186,o),
(370,193,cs),
(368,195,o),
(358,205,o),
(355,207,c),
(357,238,o),
(353,270,o),
(347,300,cs),
(345,312,o),
(342,325,o),
(332,333,cs),
(319,344,o),
(298,332,o),
(286,320,cs),
(285,319,o),
(283,318,o),
(282,319,cs),
(251,356,o),
(220,392,o),
(189,429,c),
(192,437,o),
(186,444,o),
(178,445,cs),
(175,445,o),
(172,449,o),
(170,452,c),
(168,453,o),
(166,456,o),
(168,457,c),
(169,459,o),
(170,462,o),
(171,464,cs),
(174,471,o),
(196,490,o),
(202,495,cs),
(210,500,o),
(217,506,o),
(226,510,cs),
(267,530,o),
(315,533,o),
(360,537,c),
(362,538,o),
(365,536,o),
(365,534,cs),
(369,487,o),
(381,439,o),
(401,396,cs),
(414,368,o),
(429,341,o),
(452,321,cs),
(464,309,o),
(482,301,o),
(499,302,cs),
(579,307,o),
(617,440,o),
(635,517,c),
(639,516,o),
(644,517,o),
(648,518,cs),
(668,526,o),
(730,514,o),
(751,508,cs),
(769,502,o),
(785,490,o),
(798,475,cs),
(811,460,o),
(822,443,o),
(832,425,c),
(825,419,o),
(793,381,o),
(787,374,cs),
(772,357,o),
(755,342,o),
(740,327,cs),
(729,316,o),
(744,302,o),
(754,312,cs),
(763,320,o),
(771,329,o),
(780,337,c),
(799,323,o),
(808,298,o),
(815,275,cs),
(819,264,o),
(822,252,o),
(820,241,cs),
(820,239,o),
(815,240,o),
(813,240,cs),
(797,239,o),
(780,228,o),
(772,214,cs),
(763,198,o),
(769,163,o),
(780,147,cs),
(790,134,o),
(809,122,o),
(815,137,c),
(822,140,o),
(829,144,o),
(834,150,cs),
(840,158,o),
(842,169,o),
(848,176,cs),
(853,181,o),
(861,184,o),
(867,180,cs),
(871,178,o),
(873,173,o),
(877,171,c),
(872,162,o),
(867,154,o),
(864,145,cs),
(859,130,o),
(863,102,o),
(875,92,cs),
(889,80,o),
(915,76,o),
(929,88,cs),
(936,94,o),
(941,102,o),
(944,111,cs),
(945,113,o),
(953,113,o),
(955,116,cs),
(960,123,o),
(969,152,o),
(970,161,cs),
(975,192,o),
(969,225,o),
(959,255,cs),
(942,308,o),
(909,355,o),
(875,399,cs),
(873,402,o),
(864,412,o),
(863,415,cs),
(863,416,o),
(862,419,o),
(862,419,c),
(865,426,o),
(860,434,o),
(852,434,c),
(840,455,o),
(827,476,o),
(811,493,cs),
(796,509,o),
(776,521,o),
(756,528,cs),
(733,535,o),
(665,549,o),
(643,539,cs),
(641,538,o),
(639,536,o),
(639,538,cs),
(640,542,o),
(643,554,o),
(642,557,c),
(642,559,o),
(637,563,o),
(637,565,c),
(638,568,o),
(633,581,o),
(633,584,cs),
(630,603,o),
(630,624,o),
(638,641,cs),
(649,665,o),
(677,683,o),
(703,685,cs),
(713,686,o),
(724,687,o),
(732,683,cs),
(738,680,o),
(743,675,o),
(748,670,c),
(750,669,o),
(749,668,o),
(747,667,cs),
(736,659,o),
(726,645,o),
(726,630,cs),
(725,620,o),
(730,600,o),
(740,595,cs),
(744,593,o),
(750,592,o),
(755,594,cs),
(757,595,o),
(760,593,o),
(763,594,cs),
(773,596,o),
(791,614,o),
(796,622,cs),
(800,629,o),
(803,637,o),
(805,645,cs),
(816,701,o),
(780,767,o),
(726,788,cs),
(674,809,o),
(612,802,o),
(558,786,cs),
(554,785,o),
(543,781,o),
(541,778,cs),
(539,776,o),
(539,772,o),
(537,772,c),
(505,760,o),
(476,738,o),
(452,714,cs),
(426,687,o),
(403,656,o),
(385,622,cs),
(380,613,o),
(360,568,o),
(358,558,c),
(303,554,o),
(244,548,o),
(199,518,cs),
(189,511,o),
(157,485,o),
(152,474,cs),
(150,469,o),
(148,464,o),
(150,459,c),
(151,458,o),
(149,457,o),
(148,456,c),
(146,451,o),
(148,445,o),
(151,441,cs),
(154,438,o),
(159,436,o),
(156,434,cs),
(135,420,o),
(115,402,o),
(104,379,cs),
(98,368,o),
(79,305,o),
(75,292,c),
(75,290,o),
(73,289,o),
(71,288,cs),
(47,276,o),
(33,255,o),
(30,230,cs),
(27,198,o),
(31,158,o),
(55,137,cs),
(62,131,o),
(70,126,o),
(78,122,c),
(80,120,o),
(89,121,o),
(92,121,cs),
(109,123,o),
(120,140,o),
(115,156,cs),
(112,163,o),
(103,182,o),
(106,189,cs),
(108,194,o),
(116,196,o),
(121,197,cs),
(128,198,o),
(137,200,o),
(143,196,cs),
(147,193,o),
(157,168,o),
(162,166,cs),
(167,163,o),
(172,166,o),
(177,167,c),
(206,177,o),
(226,208,o),
(207,232,cs),
(200,242,o),
(189,248,o),
(179,254,c),
(177,256,o),
(178,257,o),
(178,259,cs),
(177,263,o),
(175,267,o),
(172,268,cs),
(170,269,o),
(171,273,o),
(171,274,cs),
(171,288,o),
(175,303,o),
(182,314,cs),
(192,331,o),
(208,344,o),
(223,356,c),
(238,340,o),
(252,323,o),
(267,306,cs),
(270,303,o),
(273,300,o),
(278,300,c),
(282,294,o),
(289,293,o),
(294,297,cs),
(305,306,o),
(317,322,o),
(322,310,cs),
(330,292,o),
(335,223,o),
(334,204,cs),
(334,198,o),
(344,188,o),
(348,184,c),
(343,183,o),
(338,179,o),
(333,177,cs),
(324,173,o),
(313,171,o),
(305,166,cs),
(270,143,o),
(249,73,o),
(258,33,c),
(250,31,o),
(213,22,o),
(206,19,cs),
(180,6,o),
(169,-32,o),
(177,-60,cs),
(181,-74,o),
(197,-84,o),
(211,-87,cs),
(256,-95,o),
(304,-84,o),
(348,-73,cs)
);
},
{
closed = 1;
nodes = (
(519,641,o),
(462,642,o),
(411,627,c),
(436,670,o),
(470,712,o),
(513,738,cs),
(528,747,o),
(544,754,o),
(561,757,c),
(563,758,o),
(575,758,o),
(577,759,cs),
(581,760,o),
(584,764,o),
(584,769,cs),
(584,770,o),
(584,772,o),
(586,772,c),
(619,779,o),
(654,783,o),
(687,778,cs),
(710,774,o),
(734,764,o),
(751,748,cs),
(771,729,o),
(783,700,o),
(785,673,c),
(785,673,o),
(782,674,o),
(780,674,cs),
(773,675,o),
(767,682,o),
(761,687,cs),
(751,695,o),
(740,703,o),
(727,705,cs),
(686,712,o),
(641,691,o),
(621,655,cs),
(614,643,o),
(611,628,o),
(610,614,c),
(598,620,o),
(584,624,o),
(571,628,cs)
);
},
{
closed = 1;
nodes = (
(746,617,o),
(746,628,o),
(747,633,cs),
(748,644,o),
(761,654,o),
(772,654,cs),
(776,654,o),
(780,652,o),
(784,651,c),
(782,644,o),
(781,636,o),
(776,630,cs),
(773,626,o),
(763,616,o),
(758,615,cs),
(756,615,o),
(752,613,o),
(750,614,cs)
);
},
{
closed = 1;
nodes = (
(476,328,o),
(468,334,o),
(461,341,cs),
(449,353,o),
(440,367,o),
(432,381,cs),
(406,429,o),
(387,484,o),
(385,538,cs),
(385,545,o),
(383,547,o),
(377,550,c),
(379,560,o),
(396,599,o),
(400,607,c),
(405,602,o),
(412,602,o),
(417,607,c),
(448,616,o),
(481,620,o),
(513,618,cs),
(547,615,o),
(580,604,o),
(611,592,c),
(612,580,o),
(613,565,o),
(623,558,c),
(621,553,o),
(615,525,o),
(614,520,cs),
(603,474,o),
(590,429,o),
(570,387,cs),
(553,354,o),
(520,313,o),
(485,325,cs)
);
},
{
closed = 1;
nodes = (
(533,489,o),
(537,519,o),
(539,524,cs),
(545,536,o),
(531,548,o),
(522,537,cs),
(515,529,o),
(510,499,o),
(511,489,cs),
(511,478,o),
(526,475,o),
(531,485,cs)
);
},
{
closed = 1;
nodes = (
(482,499,o),
(479,519,o),
(479,525,cs),
(477,541,o),
(456,539,o),
(457,523,cs),
(457,520,o),
(459,500,o),
(459,496,c),
(461,486,o),
(475,484,o),
(480,493,c)
);
},
{
closed = 1;
nodes = (
(518,409,o),
(526,419,o),
(534,427,cs),
(545,438,o),
(530,452,o),
(520,441,c),
(515,437,o),
(502,424,o),
(496,423,cs),
(484,422,o),
(474,431,o),
(466,440,cs),
(455,450,o),
(440,437,o),
(450,426,cs),
(458,418,o),
(467,410,o),
(477,406,cs),
(486,402,o),
(498,401,o),
(507,405,cs)
);
},
{
closed = 1;
nodes = (
(89,144,o),
(82,143,o),
(81,143,c),
(70,150,o),
(59,160,o),
(55,173,cs),
(50,192,o),
(48,213,o),
(50,232,cs),
(53,248,o),
(65,262,o),
(78,269,cs),
(80,270,o),
(91,274,o),
(93,275,cs),
(97,278,o),
(97,284,o),
(95,289,c),
(100,303,o),
(118,366,o),
(127,378,cs),
(139,394,o),
(154,408,o),
(171,419,c),
(184,404,o),
(197,388,o),
(210,372,c),
(189,356,o),
(166,336,o),
(157,311,cs),
(152,298,o),
(149,283,o),
(150,268,cs),
(150,265,o),
(151,262,o),
(149,259,cs),
(146,253,o),
(151,247,o),
(157,243,cs),
(167,238,o),
(191,224,o),
(193,213,cs),
(196,203,o),
(182,192,o),
(172,187,c),
(169,194,o),
(166,201,o),
(162,207,cs),
(150,224,o),
(121,223,o),
(102,213,cs),
(94,209,o),
(85,195,o),
(85,186,cs),
(85,174,o),
(92,163,o),
(95,152,cs),
(96,147,o),
(95,141,o),
(90,143,c)
);
},
{
closed = 1;
nodes = (
(883,114,o),
(882,132,o),
(885,140,cs),
(888,150,o),
(895,159,o),
(899,168,cs),
(903,177,o),
(900,186,o),
(891,186,cs),
(888,186,o),
(887,189,o),
(885,191,cs),
(868,210,o),
(839,203,o),
(827,182,cs),
(825,178,o),
(818,163,o),
(815,161,c),
(812,157,o),
(806,156,o),
(801,155,c),
(793,164,o),
(786,189,o),
(789,200,cs),
(793,214,o),
(810,222,o),
(825,219,cs),
(833,217,o),
(838,225,o),
(840,234,cs),
(847,267,o),
(821,330,o),
(795,352,c),
(811,370,o),
(825,390,o),
(842,407,c),
(848,398,o),
(887,346,o),
(894,337,cs),
(918,301,o),
(938,262,o),
(947,220,cs),
(953,193,o),
(953,163,o),
(942,138,c),
(937,139,o),
(932,137,o),
(930,133,cs),
(926,124,o),
(925,114,o),
(918,106,cs),
(912,99,o),
(896,101,o),
(889,108,cs)
);
},
{
closed = 1;
nodes = (
(773,-85,o),
(772,-67,o),
(758,-67,cs),
(721,-66,o),
(684,-60,o),
(647,-57,cs),
(643,-57,o),
(624,-56,o),
(620,-57,cs),
(607,-60,o),
(610,-79,o),
(623,-78,cs),
(642,-77,o),
(742,-92,o),
(760,-88,cs)
);
}
);
width = 1003;
}
);
note = one;
unicode = 49;
},
{
glyphname = two;
layers = (
{
layerId = m01;
shapes = (
{
closed = 1;
nodes = (
(217,261,o),
(218,272,o),
(217,283,c),
(240,289,o),
(266,290,o),
(286,303,cs),
(314,322,o),
(323,364,o),
(295,384,cs),
(288,389,o),
(280,392,o),
(271,394,cs),
(239,401,o),
(206,397,o),
(173,404,cs),
(157,407,o),
(139,413,o),
(127,425,cs),
(112,438,o),
(102,459,o),
(97,478,cs),
(94,489,o),
(85,522,o),
(89,532,cs),
(90,535,o),
(97,534,o),
(100,534,cs),
(118,534,o),
(138,529,o),
(155,537,cs),
(164,542,o),
(170,553,o),
(171,563,cs),
(175,589,o),
(164,616,o),
(164,642,cs),
(164,644,o),
(164,647,o),
(165,647,c),
(172,655,o),
(202,649,o),
(212,650,cs),
(224,651,o),
(236,654,o),
(245,661,cs),
(261,674,o),
(273,693,o),
(288,708,cs),
(294,713,o),
(303,716,o),
(310,714,cs),
(313,713,o),
(313,709,o),
(313,706,cs),
(313,698,o),
(306,662,o),
(304,654,cs),
(303,648,o),
(296,629,o),
(298,623,cs),
(302,611,o),
(318,610,o),
(323,621,cs),
(325,628,o),
(341,665,o),
(343,671,cs),
(349,686,o),
(352,703,o),
(350,718,cs),
(345,751,o),
(306,762,o),
(277,747,cs),
(266,742,o),
(257,733,o),
(249,725,cs),
(244,719,o),
(226,695,o),
(220,692,cs),
(216,690,o),
(211,689,o),
(206,689,cs),
(190,690,o),
(172,691,o),
(157,686,cs),
(137,679,o),
(126,665,o),
(126,644,cs),
(125,619,o),
(135,595,o),
(134,570,c),
(117,570,o),
(100,573,o),
(83,570,cs),
(67,567,o),
(55,554,o),
(52,537,cs),
(49,518,o),
(54,498,o),
(59,479,cs),
(66,456,o),
(75,433,o),
(90,414,cs),
(100,401,o),
(114,390,o),
(128,383,cs),
(170,363,o),
(219,368,o),
(263,356,c),
(265,356,o),
(271,354,o),
(272,352,cs),
(277,344,o),
(267,336,o),
(259,332,cs),
(252,329,o),
(216,321,o),
(209,319,cs),
(201,316,o),
(193,312,o),
(187,306,c),
(185,303,o),
(182,292,o),
(182,288,cs),
(181,280,o),
(184,272,o),
(181,264,cs),
(177,256,o),
(167,249,o),
(158,251,c),
(154,253,o),
(143,263,o),
(139,266,cs),
(127,278,o),
(114,292,o),
(97,297,cs),
(75,303,o),
(44,289,o),
(36,268,c),
(35,262,o),
(34,255,o),
(38,250,cs),
(40,248,o),
(43,247,o),
(46,246,cs),
(56,241,o),
(64,251,o),
(59,261,c),
(70,275,o),
(87,277,o),
(101,265,cs),
(118,250,o),
(132,229,o),
(153,222,cs),
(174,215,o),
(201,231,o),
(212,251,cs)
);
},
{
closed = 1;
nodes = (
(1109,156,o),
(1117,177,o),
(1122,197,cs),
(1132,246,o),
(1126,300,o),
(1108,346,c),
(1108,348,o),
(1107,351,o),
(1109,352,cs),
(1112,354,o),
(1130,355,o),
(1134,355,c),
(1186,364,o),
(1189,430,o),
(1168,478,cs),
(1164,489,o),
(1157,499,o),
(1153,510,cs),
(1149,520,o),
(1148,531,o),
(1148,542,cs),
(1149,563,o),
(1151,584,o),
(1155,605,cs),
(1156,610,o),
(1162,636,o),
(1163,640,cs),
(1165,646,o),
(1169,652,o),
(1167,657,c),
(1164,671,o),
(1147,671,o),
(1140,659,cs),
(1132,642,o),
(1122,626,o),
(1116,609,cs),
(1104,574,o),
(1096,535,o),
(1107,500,cs),
(1113,483,o),
(1124,467,o),
(1129,450,cs),
(1133,438,o),
(1136,425,o),
(1133,412,c),
(1133,410,o),
(1130,403,o),
(1128,402,cs),
(1125,400,o),
(1110,399,o),
(1106,398,c),
(1099,398,o),
(1063,385,o),
(1055,385,cs),
(1044,386,o),
(1036,401,o),
(1034,412,cs),
(1027,447,o),
(1013,483,o),
(989,509,cs),
(985,514,o),
(972,527,o),
(966,528,cs),
(953,531,o),
(943,517,o),
(952,507,cs),
(965,491,o),
(976,473,o),
(984,454,cs),
(991,436,o),
(989,416,o),
(992,397,cs),
(995,384,o),
(1001,371,o),
(1009,361,cs),
(1018,350,o),
(1031,342,o),
(1044,339,cs),
(1055,337,o),
(1066,338,o),
(1076,341,c),
(1079,303,o),
(1086,265,o),
(1081,227,cs),
(1079,208,o),
(1075,189,o),
(1075,170,cs),
(1074,159,o),
(1076,149,o),
(1076,138,cs),
(1077,119,o),
(1103,117,o),
(1106,135,cs)
);
},
{
closed = 1;
nodes = (
(878,71,o),
(885,123,o),
(886,143,cs),
(888,178,o),
(871,329,o),
(861,363,c),
(860,370,o),
(859,377,o),
(865,378,cs),
(873,380,o),
(881,381,o),
(889,381,cs),
(900,381,o),
(920,378,o),
(923,367,cs),
(926,360,o),
(924,326,o),
(924,319,cs),
(927,283,o),
(943,249,o),
(956,216,cs),
(962,202,o),
(982,135,o),
(984,120,cs),
(985,114,o),
(985,86,o),
(988,81,cs),
(994,69,o),
(1010,68,o),
(1017,80,cs),
(1023,91,o),
(1027,104,o),
(1028,117,cs),
(1028,129,o),
(1026,142,o),
(1022,154,cs),
(1006,204,o),
(978,250,o),
(965,301,cs),
(961,317,o),
(961,334,o),
(961,351,cs),
(960,362,o),
(959,374,o),
(953,384,cs),
(949,393,o),
(941,400,o),
(933,404,cs),
(915,413,o),
(892,414,o),
(872,410,c),
(870,409,o),
(870,411,o),
(871,413,c),
(880,447,o),
(889,482,o),
(906,512,cs),
(917,530,o),
(932,546,o),
(948,558,cs),
(966,573,o),
(1031,607,o),
(1037,630,cs),
(1041,643,o),
(1027,653,o),
(1015,648,cs),
(981,631,o),
(951,606,o),
(924,580,cs),
(901,558,o),
(882,530,o),
(870,500,cs),
(858,470,o),
(851,439,o),
(843,408,c),
(832,427,o),
(821,449,o),
(821,471,cs),
(820,501,o),
(823,532,o),
(819,563,cs),
(816,581,o),
(807,600,o),
(794,613,cs),
(777,629,o),
(753,637,o),
(730,642,cs),
(722,644,o),
(701,648,o),
(695,643,cs),
(688,637,o),
(689,626,o),
(697,622,cs),
(700,620,o),
(717,619,o),
(721,619,c),
(741,615,o),
(764,609,o),
(778,593,cs),
(790,579,o),
(794,558,o),
(794,540,cs),
(794,510,o),
(786,481,o),
(789,452,cs),
(791,426,o),
(804,402,o),
(814,379,cs),
(827,350,o),
(827,317,o),
(826,286,cs),
(826,260,o),
(836,101,o),
(835,74,cs),
(835,58,o),
(850,48,o),
(863,58,cs)
);
},
{
closed = 1;
nodes = (
(274,186,o),
(280,203,o),
(291,217,cs),
(309,239,o),
(333,255,o),
(351,276,cs),
(381,310,o),
(387,361,o),
(391,407,c),
(417,385,o),
(457,383,o),
(490,389,cs),
(519,394,o),
(547,411,o),
(565,433,cs),
(588,461,o),
(605,523,o),
(588,555,cs),
(582,566,o),
(572,576,o),
(561,581,cs),
(543,591,o),
(520,592,o),
(501,589,cs),
(494,587,o),
(468,580,o),
(461,582,cs),
(456,583,o),
(446,599,o),
(443,603,c),
(433,612,o),
(422,617,o),
(408,617,cs),
(389,617,o),
(371,607,o),
(354,598,cs),
(328,585,o),
(299,574,o),
(270,571,cs),
(264,570,o),
(257,571,o),
(251,569,cs),
(241,564,o),
(241,550,o),
(251,545,cs),
(256,543,o),
(261,543,o),
(266,543,cs),
(294,540,o),
(323,547,o),
(349,557,c),
(351,547,o),
(355,502,o),
(355,493,cs),
(355,457,o),
(354,421,o),
(348,385,cs),
(343,356,o),
(337,324,o),
(319,301,cs),
(303,281,o),
(282,265,o),
(266,245,cs),
(249,225,o),
(227,183,o),
(240,160,cs),
(250,143,o),
(275,150,o),
(268,169,c)
);
},
{
closed = 1;
nodes = (
(414,434,o),
(393,444,o),
(392,456,cs),
(389,494,o),
(381,532,o),
(375,569,c),
(383,573,o),
(405,583,o),
(413,580,cs),
(416,579,o),
(418,577,o),
(420,574,cs),
(426,567,o),
(432,559,o),
(439,554,cs),
(447,549,o),
(456,547,o),
(464,547,cs),
(482,547,o),
(499,555,o),
(517,555,cs),
(530,556,o),
(546,552,o),
(553,541,cs),
(565,525,o),
(553,488,o),
(544,470,cs),
(534,452,o),
(516,437,o),
(496,430,cs),
(474,422,o),
(448,422,o),
(425,430,cs)
);
},
{
closed = 1;
nodes = (
(760,110,o),
(790,146,o),
(802,184,cs),
(812,214,o),
(806,243,o),
(786,267,cs),
(773,282,o),
(755,293,o),
(743,308,cs),
(734,319,o),
(735,335,o),
(734,349,cs),
(733,372,o),
(732,396,o),
(724,417,cs),
(718,430,o),
(708,443,o),
(695,449,cs),
(679,457,o),
(659,448,o),
(666,432,c),
(647,430,o),
(614,405,o),
(606,388,cs),
(597,371,o),
(597,350,o),
(600,331,cs),
(602,311,o),
(607,290,o),
(604,269,cs),
(600,246,o),
(587,225,o),
(577,203,cs),
(570,189,o),
(565,174,o),
(568,159,cs),
(569,147,o),
(575,136,o),
(582,126,cs),
(595,106,o),
(615,90,o),
(638,83,cs),
(665,76,o),
(697,82,o),
(723,93,cs)
);
},
{
closed = 1;
nodes = (
(628,128,o),
(607,151,o),
(604,166,cs),
(603,174,o),
(607,183,o),
(611,190,cs),
(620,210,o),
(630,228,o),
(636,249,cs),
(641,266,o),
(640,284,o),
(638,301,cs),
(636,321,o),
(629,342,o),
(630,363,cs),
(631,374,o),
(638,385,o),
(646,392,cs),
(651,396,o),
(665,407,o),
(671,407,cs),
(676,408,o),
(679,403,o),
(684,403,cs),
(686,403,o),
(689,405,o),
(690,403,cs),
(703,370,o),
(688,329,o),
(703,296,cs),
(716,269,o),
(753,256,o),
(763,227,cs),
(773,199,o),
(745,157,o),
(721,139,cs),
(700,123,o),
(668,115,o),
(643,124,cs)
);
},
{
closed = 1;
nodes = (
(504,64,o),
(512,79,o),
(515,94,cs),
(519,112,o),
(517,131,o),
(517,150,cs),
(517,163,o),
(526,175,o),
(532,186,cs),
(545,207,o),
(562,228,o),
(564,252,cs),
(565,272,o),
(554,291,o),
(544,308,cs),
(537,321,o),
(527,336,o),
(513,340,cs),
(506,341,o),
(501,344,o),
(494,344,cs),
(484,344,o),
(475,338,o),
(466,334,cs),
(436,320,o),
(407,297,o),
(395,266,cs),
(392,258,o),
(382,210,o),
(378,202,cs),
(366,179,o),
(344,161,o),
(337,137,cs),
(332,123,o),
(334,107,o),
(342,95,cs),
(362,62,o),
(404,41,o),
(442,39,cs),
(460,38,o),
(479,43,o),
(492,54,cs)
);
},
{
closed = 1;
nodes = (
(376,106,o),
(370,111,o),
(368,119,cs),
(366,125,o),
(369,132,o),
(372,138,cs),
(383,157,o),
(401,173,o),
(409,194,cs),
(417,216,o),
(413,241,o),
(422,262,cs),
(433,289,o),
(461,307,o),
(488,318,cs),
(490,319,o),
(493,322,o),
(495,320,cs),
(502,310,o),
(523,272,o),
(525,260,cs),
(528,246,o),
(504,211,o),
(497,199,cs),
(491,189,o),
(485,179,o),
(482,168,cs),
(476,147,o),
(483,124,o),
(478,102,cs),
(468,61,o),
(415,75,o),
(382,101,cs)
);
}
);
width = 1222;
}
);
note = two;
unicode = 50;
},
{
glyphname = three;
layers = (
{
layerId = m01;
shapes = (
{
closed = 1;
nodes = (
(528,-125,o),
(544,-115,o),
(558,-105,cs),
(619,-58,o),
(685,-18,o),
(741,35,c),
(755,34,o),
(763,49,o),
(751,56,cs),
(747,58,o),
(741,58,o),
(741,62,c),
(731,135,o),
(707,205,o),
(680,273,c),
(726,256,o),
(775,246,o),
(824,240,cs),
(861,236,o),
(900,233,o),
(936,241,cs),
(956,246,o),
(978,290,o),
(987,308,cs),
(1014,365,o),
(1035,426,o),
(1047,487,cs),
(1049,497,o),
(1038,503,o),
(1030,498,c),
(1023,502,o),
(1015,502,o),
(1011,495,cs),
(1009,492,o),
(1009,489,o),
(1007,486,cs),
(969,439,o),
(932,390,o),
(896,342,c),
(895,340,o),
(892,340,o),
(890,340,c),
(843,330,o),
(794,320,o),
(745,321,c),
(787,350,o),
(833,374,o),
(878,398,cs),
(885,402,o),
(887,407,o),
(885,414,c),
(896,432,o),
(947,516,o),
(954,536,cs),
(958,549,o),
(939,557,o),
(932,545,cs),
(920,523,o),
(908,500,o),
(895,479,cs),
(890,470,o),
(862,424,o),
(857,415,c),
(857,413,o),
(855,412,o),
(853,411,cs),
(820,394,o),
(788,376,o),
(757,356,c),
(769,379,o),
(774,406,o),
(771,432,c),
(782,427,o),
(798,425,o),
(809,431,cs),
(814,433,o),
(828,442,o),
(831,447,cs),
(837,456,o),
(826,467,o),
(816,461,cs),
(809,457,o),
(803,449,o),
(794,448,cs),
(787,447,o),
(777,449,o),
(775,455,cs),
(771,469,o),
(777,487,o),
(790,492,cs),
(792,493,o),
(796,493,o),
(798,495,c),
(807,499,o),
(805,512,o),
(796,514,cs),
(786,516,o),
(771,505,o),
(764,498,cs),
(758,490,o),
(755,480,o),
(754,471,c),
(748,477,o),
(735,492,o),
(726,491,c),
(747,523,o),
(776,551,o),
(803,579,c),
(815,579,o),
(883,589,o),
(896,591,cs),
(928,595,o),
(959,598,o),
(991,600,cs),
(1007,601,o),
(1005,624,o),
(989,624,cs),
(927,626,o),
(865,617,o),
(805,603,cs),
(801,602,o),
(796,603,o),
(793,600,c),
(771,585,o),
(712,516,o),
(701,491,cs),
(700,488,o),
(700,488,o),
(697,488,cs),
(691,489,o),
(684,489,o),
(678,488,c),
(688,511,o),
(735,630,o),
(747,652,cs),
(749,655,o),
(751,659,o),
(755,660,cs),
(757,660,o),
(768,664,o),
(770,665,cs),
(796,673,o),
(920,706,o),
(947,709,cs),
(953,709,o),
(957,713,o),
(957,719,cs),
(957,721,o),
(957,722,o),
(959,722,cs),
(974,722,o),
(976,743,o),
(961,746,cs),
(932,751,o),
(901,752,o),
(871,752,cs),
(844,753,o),
(730,750,o),
(704,740,cs),
(700,738,o),
(697,734,o),
(695,730,c),
(695,727,o),
(695,724,o),
(693,723,c),
(663,683,o),
(645,633,o),
(633,584,cs),
(625,548,o),
(617,511,o),
(612,475,c),
(595,518,o),
(575,560,o),
(553,600,cs),
(536,631,o),
(517,661,o),
(495,689,c),
(489,695,o),
(474,712,o),
(466,713,cs),
(452,715,o),
(402,699,o),
(389,695,cs),
(274,654,o),
(169,586,o),
(69,515,cs),
(65,512,o),
(59,508,o),
(58,503,cs),
(54,492,o),
(66,486,o),
(75,492,c),
(76,485,o),
(82,479,o),
(89,482,cs),
(151,506,o),
(214,530,o),
(277,550,cs),
(315,563,o),
(354,575,o),
(393,581,c),
(396,582,o),
(412,584,o),
(415,585,c),
(416,586,o),
(417,583,o),
(418,582,cs),
(441,558,o),
(464,535,o),
(487,511,cs),
(503,493,o),
(520,475,o),
(533,454,c),
(516,460,o),
(425,484,o),
(408,488,cs),
(365,498,o),
(321,499,o),
(278,496,cs),
(271,496,o),
(265,492,o),
(265,485,c),
(225,456,o),
(186,426,o),
(150,391,cs),
(113,355,o),
(81,314,o),
(46,276,cs),
(43,273,o),
(30,261,o),
(29,257,cs),
(25,246,o),
(36,238,o),
(45,244,cs),
(59,256,o),
(123,332,o),
(136,346,cs),
(181,394,o),
(234,436,o),
(288,474,c),
(310,475,o),
(332,477,o),
(354,474,cs),
(397,470,o),
(439,457,o),
(480,445,c),
(462,446,o),
(443,444,o),
(426,438,cs),
(424,437,o),
(423,438,o),
(422,439,c),
(415,442,o),
(408,438,o),
(407,430,c),
(358,407,o),
(313,366,o),
(289,316,cs),
(288,314,o),
(286,313,o),
(284,310,cs),
(283,308,o),
(283,305,o),
(284,303,c),
(275,278,o),
(271,250,o),
(273,224,cs),
(276,185,o),
(292,144,o),
(318,115,cs),
(333,99,o),
(352,86,o),
(373,80,cs),
(406,69,o),
(446,72,o),
(478,86,cs),
(507,99,o),
(533,120,o),
(553,145,cs),
(555,148,o),
(557,151,o),
(555,147,cs),
(534,103,o),
(509,60,o),
(483,18,cs),
(479,11,o),
(456,-27,o),
(453,-34,cs),
(450,-39,o),
(445,-43,o),
(439,-44,c),
(437,-45,o),
(426,-45,o),
(423,-45,cs),
(377,-46,o),
(331,-57,o),
(284,-58,cs),
(237,-60,o),
(191,-49,o),
(144,-54,cs),
(127,-56,o),
(127,-80,o),
(145,-80,cs),
(180,-80,o),
(215,-89,o),
(250,-87,cs),
(309,-84,o),
(368,-68,o),
(428,-67,cs),
(438,-66,o),
(449,-66,o),
(457,-60,cs),
(459,-58,o),
(461,-56,o),
(464,-55,cs),
(470,-54,o),
(478,-39,o),
(481,-33,cs),
(509,17,o),
(538,65,o),
(564,116,cs),
(585,157,o),
(607,199,o),
(619,244,cs),
(620,247,o),
(620,246,o),
(620,243,c),
(632,192,o),
(643,140,o),
(650,88,cs),
(651,84,o),
(646,82,o),
(645,78,c),
(643,75,o),
(643,72,o),
(641,69,cs),
(596,14,o),
(548,-38,o),
(499,-90,cs),
(496,-93,o),
(484,-106,o),
(482,-110,cs),
(478,-119,o),
(484,-129,o),
(495,-129,c),
(499,-135,o),
(506,-137,o),
(513,-134,c)
);
},
{
closed = 1;
nodes = (
(667,624,o),
(685,677,o),
(718,718,c),
(782,726,o),
(847,727,o),
(912,725,c),
(908,724,o),
(884,719,o),
(880,718,cs),
(839,708,o),
(799,698,o),
(760,686,cs),
(755,684,o),
(749,682,o),
(746,678,cs),
(743,675,o),
(737,675,o),
(734,672,cs),
(726,663,o),
(722,652,o),
(717,641,cs),
(708,621,o),
(659,504,o),
(652,484,cs),
(649,477,o),
(641,475,o),
(635,472,c),
(639,506,o),
(646,539,o),
(654,572,cs)
);
},
{
closed = 1;
nodes = (
(589,412,o),
(586,414,o),
(584,417,cs),
(583,418,o),
(582,423,o),
(581,425,c),
(572,461,o),
(546,492,o),
(520,519,cs),
(495,546,o),
(470,573,o),
(443,598,cs),
(438,603,o),
(427,604,o),
(421,600,cs),
(419,598,o),
(417,603,o),
(414,604,cs),
(408,606,o),
(402,604,o),
(396,604,c),
(355,597,o),
(314,585,o),
(274,572,cs),
(213,553,o),
(154,530,o),
(94,507,c),
(155,551,o),
(219,592,o),
(286,626,cs),
(343,654,o),
(402,678,o),
(464,691,c),
(495,670,o),
(554,557,o),
(570,522,cs),
(583,493,o),
(595,464,o),
(606,434,c),
(602,424,o),
(600,413,o),
(598,403,c),
(596,404,o),
(590,406,o),
(590,408,cs)
);
},
{
closed = 1;
nodes = (
(714,443,o),
(705,455,o),
(697,467,c),
(707,465,o),
(720,460,o),
(727,467,c),
(733,462,o),
(739,456,o),
(743,449,cs),
(752,432,o),
(752,409,o),
(747,390,c),
(740,395,o),
(725,423,o),
(721,430,cs)
);
},
{
closed = 1;
nodes = (
(690,387,o),
(667,419,o),
(640,448,c),
(649,457,o),
(661,462,o),
(672,465,c),
(682,450,o),
(693,436,o),
(703,420,cs),
(709,410,o),
(729,375,o),
(739,370,c),
(735,360,o),
(730,351,o),
(721,344,c),
(720,349,o),
(715,351,o),
(712,355,cs)
);
},
{
closed = 1;
nodes = (
(818,262,o),
(748,274,o),
(682,298,c),
(687,299,o),
(691,298,o),
(696,298,cs),
(727,296,o),
(759,294,o),
(791,296,cs),
(825,299,o),
(858,306,o),
(891,313,c),
(896,311,o),
(903,312,o),
(906,315,c),
(942,363,o),
(980,410,o),
(1016,457,c),
(1001,403,o),
(982,350,o),
(956,300,cs),
(948,287,o),
(940,273,o),
(929,263,c),
(915,261,o),
(902,259,o),
(888,260,cs)
);
},
{
closed = 1;
nodes = (
(658,326,o),
(649,334,o),
(646,337,cs),
(634,349,o),
(624,365,o),
(621,381,cs),
(618,396,o),
(621,411,o),
(626,425,c),
(626,426,o),
(628,428,o),
(629,427,cs),
(650,404,o),
(669,379,o),
(687,354,cs),
(689,351,o),
(701,333,o),
(704,330,c),
(699,327,o),
(694,323,o),
(688,323,cs),
(684,323,o),
(665,325,o),
(662,325,cs)
);
},
{
closed = 1;
nodes = (
(483,379,o),
(465,401,o),
(446,421,c),
(465,425,o),
(485,424,o),
(504,419,cs),
(514,417,o),
(550,405,o),
(558,399,cs),
(561,397,o),
(564,395,o),
(568,394,cs),
(575,392,o),
(582,387,o),
(587,382,cs),
(590,379,o),
(586,375,o),
(586,371,cs),
(587,366,o),
(593,337,o),
(593,332,cs),
(595,306,o),
(592,279,o),
(585,253,c),
(584,251,o),
(584,249,o),
(583,252,cs),
(567,294,o),
(534,328,o),
(503,360,cs)
);
},
{
closed = 1;
nodes = (
(457,266,o),
(435,301,o),
(409,332,cs),
(395,348,o),
(380,364,o),
(363,376,c),
(381,391,o),
(401,404,o),
(422,413,c),
(431,408,o),
(460,373,o),
(467,366,cs),
(486,345,o),
(507,326,o),
(525,305,cs),
(547,280,o),
(566,249,o),
(571,217,c),
(557,188,o),
(538,162,o),
(515,140,c),
(509,151,o),
(480,219,o),
(475,230,cs)
);
},
{
closed = 1;
nodes = (
(353,258,o),
(337,287,o),
(313,307,cs),
(311,309,o),
(311,310,o),
(312,312,cs),
(321,330,o),
(333,346,o),
(347,361,c),
(361,354,o),
(372,342,o),
(382,330,cs),
(415,294,o),
(442,252,o),
(463,208,cs),
(468,195,o),
(491,137,o),
(500,127,c),
(482,114,o),
(461,103,o),
(439,100,c),
(436,99,o),
(436,100,o),
(435,102,cs),
(419,148,o),
(396,190,o),
(370,231,cs)
);
},
{
closed = 1;
nodes = (
(668,63,o),
(675,72,o),
(675,75,cs),
(676,105,o),
(647,237,o),
(639,267,cs),
(636,279,o),
(632,292,o),
(627,303,cs),
(625,306,o),
(616,313,o),
(616,316,cs),
(616,324,o),
(616,332,o),
(615,340,c),
(616,338,o),
(625,327,o),
(626,325,c),
(622,319,o),
(624,310,o),
(631,306,c),
(630,300,o),
(635,293,o),
(640,290,cs),
(642,289,o),
(647,288,o),
(648,286,cs),
(677,209,o),
(703,131,o),
(718,50,c),
(719,49,o),
(718,47,o),
(716,46,c),
(670,4,o),
(617,-29,o),
(568,-66,cs),
(559,-73,o),
(532,-96,o),
(539,-89,cs),
(559,-67,o),
(652,35,o),
(667,61,cs)
);
},
{
closed = 1;
nodes = (
(325,138,o),
(310,166,o),
(302,194,cs),
(293,224,o),
(293,259,o),
(303,288,c),
(309,282,o),
(315,275,o),
(321,268,cs),
(359,216,o),
(393,161,o),
(414,101,cs),
(415,98,o),
(415,98,o),
(413,98,cs),
(390,99,o),
(366,106,o),
(348,120,cs)
);
}
);
width = 1078;
}
);
note = three;
unicode = 51;
},
{
glyphname = four;
layers = (
{
layerId = m01;
shapes = (
{
closed = 1;
nodes = (
(409,-128,o),
(560,-127,o),
(590,-126,cs),
(600,-126,o),
(649,-126,o),
(659,-123,cs),
(670,-120,o),
(674,-107,o),
(666,-100,c),
(662,-98,o),
(658,-98,o),
(654,-98,cs),
(615,-97,o),
(420,-103,o),
(382,-109,c),
(382,-105,o),
(380,-79,o),
(380,-75,c),
(380,-75,o),
(382,-74,o),
(383,-74,c),
(386,-72,o),
(398,-72,o),
(401,-72,cs),
(456,-69,o),
(510,-69,o),
(565,-67,cs),
(576,-66,o),
(641,-63,o),
(652,-63,cs),
(656,-63,o),
(660,-60,o),
(664,-58,c),
(665,-58,o),
(670,-56,o),
(669,-58,cs),
(668,-60,o),
(668,-63,o),
(669,-66,c),
(669,-68,o),
(671,-69,o),
(671,-71,cs),
(671,-83,o),
(667,-113,o),
(677,-120,cs),
(685,-127,o),
(696,-120,o),
(695,-109,cs),
(694,-100,o),
(696,-65,o),
(692,-57,c),
(811,-57,o),
(931,-43,o),
(1051,-49,cs),
(1057,-49,o),
(1078,-52,o),
(1084,-49,cs),
(1093,-45,o),
(1092,-31,o),
(1081,-28,cs),
(1078,-27,o),
(1060,-27,o),
(1057,-27,cs),
(1003,-24,o),
(950,-23,o),
(897,-25,cs),
(851,-27,o),
(806,-31,o),
(761,-33,cs),
(750,-33,o),
(682,-35,o),
(671,-35,c),
(667,-36,o),
(667,-33,o),
(667,-29,cs),
(667,-24,o),
(669,-6,o),
(666,-2,c),
(672,18,o),
(642,13,o),
(622,14,c),
(632,59,o),
(639,105,o),
(646,150,cs),
(646,152,o),
(647,155,o),
(649,155,cs),
(671,159,o),
(786,161,o),
(809,161,cs),
(829,161,o),
(950,159,o),
(971,159,c),
(971,159,o),
(968,152,o),
(968,150,cs),
(968,119,o),
(968,88,o),
(969,56,cs),
(969,46,o),
(967,10,o),
(972,1,cs),
(977,-8,o),
(989,-7,o),
(993,1,cs),
(996,7,o),
(995,31,o),
(995,37,cs),
(995,48,o),
(993,116,o),
(993,127,cs),
(993,131,o),
(993,149,o),
(992,153,cs),
(991,157,o),
(986,160,o),
(990,160,cs),
(1010,162,o),
(1042,164,o),
(1033,182,cs),
(1032,185,o),
(1034,187,o),
(1035,190,cs),
(1036,195,o),
(1033,200,o),
(1031,204,cs),
(1022,223,o),
(999,327,o),
(993,348,c),
(1005,353,o),
(1005,368,o),
(993,371,c),
(991,371,o),
(983,371,o),
(981,371,cs),
(937,373,o),
(892,373,o),
(848,367,c),
(843,377,o),
(837,387,o),
(831,395,cs),
(823,406,o),
(808,420,o),
(796,414,cs),
(794,413,o),
(788,414,o),
(785,412,cs),
(778,406,o),
(764,374,o),
(760,366,c),
(733,363,o),
(705,362,o),
(677,360,c),
(683,405,o),
(690,451,o),
(693,497,cs),
(693,504,o),
(692,512,o),
(695,518,cs),
(697,521,o),
(694,527,o),
(697,527,cs),
(714,527,o),
(739,524,o),
(735,541,c),
(739,549,o),
(729,570,o),
(725,579,cs),
(708,614,o),
(688,648,o),
(668,682,cs),
(647,718,o),
(628,756,o),
(608,793,cs),
(599,812,o),
(565,882,o),
(548,894,cs),
(543,898,o),
(535,896,o),
(531,890,c),
(522,888,o),
(516,877,o),
(511,869,cs),
(486,831,o),
(459,795,o),
(433,758,c),
(432,763,o),
(430,791,o),
(429,795,c),
(435,803,o),
(429,814,o),
(419,814,cs),
(408,813,o),
(396,813,o),
(384,814,cs),
(374,814,o),
(362,809,o),
(365,799,cs),
(368,785,o),
(377,704,o),
(379,690,c),
(380,687,o),
(383,681,o),
(382,679,cs),
(375,666,o),
(333,592,o),
(325,580,cs),
(324,579,o),
(319,572,o),
(318,570,cs),
(313,559,o),
(329,548,o),
(337,558,cs),
(348,573,o),
(394,657,o),
(403,672,cs),
(420,700,o),
(518,845,o),
(539,870,c),
(555,849,o),
(617,721,o),
(630,697,cs),
(657,648,o),
(689,603,o),
(711,552,cs),
(712,550,o),
(712,549,o),
(710,549,cs),
(592,547,o),
(474,541,o),
(356,537,c),
(350,536,o),
(329,536,o),
(323,538,c),
(312,544,o),
(302,528,o),
(312,520,cs),
(323,511,o),
(362,515,o),
(375,515,c),
(372,511,o),
(372,504,o),
(373,499,cs),
(375,481,o),
(386,371,o),
(388,353,c),
(364,355,o),
(340,352,o),
(316,348,cs),
(312,347,o),
(289,343,o),
(285,341,c),
(284,341,o),
(283,343,o),
(282,344,cs),
(277,352,o),
(253,391,o),
(247,398,cs),
(240,407,o),
(227,409,o),
(220,400,c),
(210,383,o),
(202,365,o),
(194,348,c),
(183,349,o),
(124,348,o),
(112,348,c),
(106,347,o),
(86,345,o),
(81,341,cs),
(76,337,o),
(71,318,o),
(70,312,cs),
(67,298,o),
(50,210,o),
(48,196,cs),
(46,186,o),
(36,149,o),
(38,139,cs),
(39,132,o),
(44,128,o),
(51,128,c),
(53,125,o),
(56,122,o),
(60,121,cs),
(64,120,o),
(83,125,o),
(87,126,c),
(82,119,o),
(85,108,o),
(84,99,cs),
(84,90,o),
(81,36,o),
(81,27,cs),
(81,20,o),
(79,-7,o),
(82,-14,cs),
(89,-29,o),
(111,-16,o),
(103,-1,c),
(103,14,o),
(108,101,o),
(107,116,cs),
(107,120,o),
(104,125,o),
(101,128,c),
(162,136,o),
(224,145,o),
(286,150,cs),
(302,151,o),
(397,155,o),
(413,157,c),
(420,110,o),
(425,62,o),
(432,15,cs),
(432,13,o),
(434,11,o),
(432,11,cs),
(426,11,o),
(395,9,o),
(389,9,cs),
(384,8,o),
(374,6,o),
(372,1,cs),
(369,-5,o),
(375,-27,o),
(376,-33,cs),
(377,-40,o),
(367,-37,o),
(360,-37,cs),
(293,-36,o),
(226,-35,o),
(158,-37,cs),
(98,-38,o),
(37,-42,o),
(-23,-45,cs),
(-39,-46,o),
(-41,-67,o),
(-25,-67,cs),
(28,-65,o),
(80,-61,o),
(133,-59,cs),
(163,-58,o),
(331,-58,o),
(361,-59,c),
(355,-72,o),
(357,-87,o),
(357,-101,c),
(358,-105,o),
(358,-120,o),
(360,-124,cs),
(363,-130,o),
(374,-135,o),
(380,-134,cs)
);
},
{
closed = 1;
nodes = (
(387,788,o),
(387,790,o),
(389,789,c),
(396,789,o),
(402,790,o),
(408,790,c),
(410,785,o),
(413,751,o),
(414,746,cs),
(415,742,o),
(420,739,o),
(418,736,cs),
(416,732,o),
(400,709,o),
(398,706,c),
(394,732,o),
(391,759,o),
(387,786,cs)
);
},
{
closed = 1;
nodes = (
(446,94,o),
(434,167,o),
(425,240,cs),
(415,316,o),
(406,391,o),
(399,467,cs),
(398,476,o),
(397,508,o),
(391,516,c),
(484,520,o),
(578,524,o),
(671,526,cs),
(673,526,o),
(673,525,o),
(673,523,cs),
(672,518,o),
(670,488,o),
(670,483,cs),
(664,418,o),
(615,78,o),
(601,14,c),
(599,14,o),
(590,14,o),
(588,14,c),
(588,48,o),
(590,164,o),
(572,193,cs),
(559,215,o),
(541,255,o),
(526,234,cs),
(515,218,o),
(504,202,o),
(493,186,cs),
(489,181,o),
(475,160,o),
(474,154,cs),
(473,143,o),
(475,85,o),
(476,74,cs),
(476,65,o),
(475,23,o),
(477,14,cs),
(477,13,o),
(475,13,o),
(474,13,cs),
(468,13,o),
(462,13,o),
(456,12,cs),
(452,12,o),
(453,16,o),
(453,20,cs)
);
},
{
closed = 1;
nodes = (
(465,285,o),
(507,284,o),
(516,284,cs),
(522,284,o),
(527,289,o),
(527,295,cs),
(527,339,o),
(532,385,o),
(519,428,cs),
(517,436,o),
(509,456,o),
(501,460,cs),
(491,465,o),
(477,457,o),
(468,450,cs),
(453,439,o),
(442,422,o),
(438,404,cs),
(431,375,o),
(437,345,o),
(440,315,cs),
(442,300,o),
(442,278,o),
(456,282,cs)
);
},
{
closed = 1;
nodes = (
(493,397,o),
(481,399,o),
(468,400,c),
(464,401,o),
(458,400,o),
(459,404,cs),
(463,420,o),
(476,435,o),
(492,441,c),
(501,428,o),
(503,412,o),
(506,396,c)
);
},
{
closed = 1;
nodes = (
(455,357,o),
(454,369,o),
(455,381,c),
(463,379,o),
(500,375,o),
(508,375,c),
(508,365,o),
(508,356,o),
(509,346,c),
(501,348,o),
(469,348,o),
(461,346,cs),
(460,346,o),
(457,343,o),
(457,345,cs)
);
},
{
closed = 1;
nodes = (
(459,325,o),
(463,324,o),
(466,324,cs),
(476,325,o),
(486,325,o),
(496,325,cs),
(501,325,o),
(504,321,o),
(508,320,c),
(508,315,o),
(508,311,o),
(507,306,c),
(492,306,o),
(477,306,o),
(461,305,c),
(461,308,o),
(460,320,o),
(460,322,c)
);
},
{
closed = 1;
nodes = (
(576,276,o),
(593,275,o),
(609,275,cs),
(613,275,o),
(618,278,o),
(619,281,c),
(623,282,o),
(627,286,o),
(628,290,cs),
(636,322,o),
(637,355,o),
(634,387,c),
(633,390,o),
(635,393,o),
(634,395,c),
(633,401,o),
(624,424,o),
(620,429,cs),
(614,438,o),
(604,445,o),
(593,446,cs),
(566,449,o),
(550,415,o),
(545,388,cs),
(541,365,o),
(541,340,o),
(541,316,cs),
(541,308,o),
(539,285,o),
(546,280,cs),
(550,276,o),
(555,271,o),
(561,272,cs)
);
},
{
closed = 1;
nodes = (
(600,425,o),
(608,411,o),
(610,402,c),
(605,402,o),
(576,400,o),
(570,399,c),
(573,409,o),
(580,425,o),
(591,425,cs)
);
},
{
closed = 1;
nodes = (
(564,339,o),
(563,340,o),
(563,342,cs),
(564,354,o),
(564,365,o),
(565,376,cs),
(566,380,o),
(571,376,o),
(575,376,c),
(587,379,o),
(599,378,o),
(611,380,cs),
(614,380,o),
(614,380,o),
(614,377,cs),
(615,364,o),
(615,351,o),
(615,338,c),
(606,340,o),
(575,342,o),
(566,339,c)
);
},
{
closed = 1;
nodes = (
(570,318,o),
(602,318,o),
(609,316,c),
(612,316,o),
(612,315,o),
(612,313,cs),
(611,307,o),
(609,302,o),
(608,297,c),
(603,297,o),
(577,296,o),
(572,296,cs),
(568,296,o),
(563,293,o),
(563,297,cs),
(563,304,o),
(563,311,o),
(563,317,c)
);
},
{
closed = 1;
nodes = (
(674,336,o),
(675,336,o),
(675,337,c),
(700,339,o),
(724,340,o),
(749,342,c),
(746,336,o),
(733,309,o),
(731,303,cs),
(728,289,o),
(747,283,o),
(753,295,cs),
(756,301,o),
(773,340,o),
(776,346,c),
(784,347,o),
(788,355,o),
(784,363,c),
(789,374,o),
(794,384,o),
(800,394,c),
(815,386,o),
(822,367,o),
(829,352,c),
(828,347,o),
(830,340,o),
(835,337,cs),
(842,334,o),
(851,301,o),
(857,296,cs),
(865,290,o),
(877,297,o),
(875,308,cs),
(874,313,o),
(862,339,o),
(860,344,c),
(897,346,o),
(934,345,o),
(972,347,c),
(978,324,o),
(1005,209,o),
(1015,188,c),
(989,183,o),
(854,185,o),
(827,185,cs),
(804,185,o),
(675,181,o),
(652,179,cs),
(650,179,o),
(650,180,o),
(651,182,c),
(659,233,o),
(666,284,o),
(674,335,cs)
);
},
{
closed = 1;
nodes = (
(838,197,o),
(844,203,o),
(845,211,cs),
(847,226,o),
(849,242,o),
(849,258,c),
(852,262,o),
(852,268,o),
(849,272,cs),
(847,274,o),
(844,287,o),
(843,290,cs),
(832,313,o),
(796,320,o),
(777,303,cs),
(771,298,o),
(767,291,o),
(765,283,c),
(758,267,o),
(744,225,o),
(753,209,c),
(754,201,o),
(759,197,o),
(767,197,cs),
(788,197,o),
(809,197,o),
(830,197,cs)
);
},
{
closed = 1;
nodes = (
(784,277,o),
(787,285,o),
(792,289,cs),
(805,297,o),
(822,289,o),
(826,275,c),
(812,273,o),
(797,270,o),
(782,271,c)
);
},
{
closed = 1;
nodes = (
(770,227,o),
(774,244,o),
(775,248,c),
(783,248,o),
(820,250,o),
(828,251,c),
(827,241,o),
(827,231,o),
(826,221,c),
(807,222,o),
(789,223,o),
(770,223,c)
);
},
{
closed = 1;
nodes = (
(66,174,o),
(87,298,o),
(94,320,cs),
(95,322,o),
(98,322,o),
(99,323,c),
(111,325,o),
(171,326,o),
(183,325,c),
(180,317,o),
(163,287,o),
(163,278,cs),
(163,266,o),
(178,261,o),
(184,272,cs),
(185,274,o),
(184,277,o),
(185,279,cs),
(191,291,o),
(224,361,o),
(230,373,cs),
(231,375,o),
(232,378,o),
(233,376,cs),
(240,365,o),
(281,297,o),
(288,285,cs),
(296,271,o),
(317,279,o),
(309,294,c),
(308,297,o),
(299,317,o),
(297,320,c),
(313,324,o),
(372,333,o),
(388,330,cs),
(391,329,o),
(391,329,o),
(392,326,c),
(397,278,o),
(403,230,o),
(410,181,cs),
(410,179,o),
(409,179,o),
(407,179,cs),
(344,178,o),
(282,173,o),
(219,166,cs),
(197,164,o),
(82,150,o),
(61,145,c),
(59,144,o),
(61,149,o),
(62,151,c)
);
},
{
closed = 1;
nodes = (
(243,189,o),
(256,189,o),
(258,189,cs),
(262,190,o),
(266,195,o),
(267,199,c),
(272,199,o),
(277,202,o),
(278,207,cs),
(280,214,o),
(278,244,o),
(277,251,cs),
(274,281,o),
(246,305,o),
(218,292,cs),
(202,283,o),
(192,262,o),
(189,244,cs),
(187,224,o),
(185,196,o),
(204,191,c),
(207,191,o),
(210,187,o),
(213,187,cs),
(217,187,o),
(237,189,o),
(241,189,cs)
);
},
{
closed = 1;
nodes = (
(238,278,o),
(249,270,o),
(254,260,c),
(241,259,o),
(227,258,o),
(214,255,c),
(217,261,o),
(221,269,o),
(228,273,cs)
);
},
{
closed = 1;
nodes = (
(210,216,o),
(209,221,o),
(209,227,cs),
(209,230,o),
(215,232,o),
(218,232,c),
(231,236,o),
(244,238,o),
(258,238,c),
(258,229,o),
(258,220,o),
(257,211,c),
(250,212,o),
(218,212,o),
(211,211,c)
);
},
{
closed = 1;
nodes = (
(499,33,o),
(495,129,o),
(495,145,cs),
(495,149,o),
(496,153,o),
(498,156,cs),
(503,164,o),
(531,204,o),
(535,211,c),
(539,205,o),
(556,180,o),
(558,174,cs),
(565,150,o),
(567,43,o),
(567,18,cs),
(567,16,o),
(567,14,o),
(565,14,cs),
(544,15,o),
(523,15,o),
(503,14,cs),
(500,14,o),
(499,15,o),
(499,17,cs)
);
},
{
closed = 1;
nodes = (
(550,88,o),
(550,90,o),
(550,92,cs),
(550,111,o),
(524,113,o),
(524,95,cs),
(524,88,o),
(528,80,o),
(533,76,cs),
(541,70,o),
(552,77,o),
(550,87,cs)
);
},
{
closed = 1;
nodes = (
(463,-9,o),
(531,-10,o),
(598,-11,c),
(603,-16,o),
(611,-17,o),
(615,-12,cs),
(616,-11,o),
(618,-11,o),
(619,-11,cs),
(627,-11,o),
(635,-10,o),
(643,-10,c),
(643,-14,o),
(644,-36,o),
(645,-40,c),
(564,-44,o),
(482,-44,o),
(401,-49,c),
(399,-37,o),
(397,-26,o),
(395,-14,c)
);
},
{
closed = 1;
nodes = (
(606,609,o),
(609,619,o),
(602,625,cs),
(597,629,o),
(588,630,o),
(584,626,c),
(589,669,o),
(589,715,o),
(575,756,cs),
(572,766,o),
(568,777,o),
(559,781,cs),
(551,785,o),
(530,780,o),
(522,777,cs),
(493,764,o),
(469,733,o),
(464,702,cs),
(463,696,o),
(462,671,o),
(460,666,cs),
(458,662,o),
(459,657,o),
(462,654,c),
(462,649,o),
(462,622,o),
(463,618,c),
(455,608,o),
(463,594,o),
(474,599,cs),
(484,604,o),
(495,599,o),
(506,599,cs),
(537,599,o),
(570,592,o),
(597,605,cs)
);
},
{
closed = 1;
nodes = (
(500,737,o),
(521,760,o),
(546,763,cs),
(551,763,o),
(554,757,o),
(555,752,c),
(559,743,o),
(561,734,o),
(562,725,cs),
(563,721,o),
(565,717,o),
(561,717,cs),
(552,717,o),
(500,713,o),
(491,712,cs),
(489,712,o),
(488,712,o),
(489,714,cs)
);
},
{
closed = 1;
nodes = (
(494,692,o),
(551,696,o),
(562,696,c),
(565,697,o),
(566,696,o),
(566,694,cs),
(566,688,o),
(566,681,o),
(566,675,c),
(554,677,o),
(495,674,o),
(482,673,c),
(482,678,o),
(482,684,o),
(483,689,c)
);
},
{
closed = 1;
nodes = (
(484,626,o),
(483,648,o),
(482,652,c),
(494,652,o),
(550,656,o),
(562,654,cs),
(564,654,o),
(566,653,o),
(566,651,c),
(565,648,o),
(564,628,o),
(563,624,c),
(537,622,o),
(510,622,o),
(484,622,c)
);
},
{
closed = 1;
nodes = (
(787,667,o),
(798,689,o),
(817,688,cs),
(827,688,o),
(836,679,o),
(841,671,cs),
(844,667,o),
(845,662,o),
(848,659,cs),
(854,654,o),
(862,657,o),
(865,664,cs),
(873,687,o),
(892,716,o),
(916,710,c),
(918,709,o),
(926,706,o),
(928,706,c),
(934,704,o),
(939,710,o),
(941,716,cs),
(943,727,o),
(938,739,o),
(942,748,cs),
(946,756,o),
(961,754,o),
(970,752,cs),
(982,751,o),
(988,766,o),
(976,771,cs),
(971,774,o),
(951,774,o),
(945,774,c),
(928,771,o),
(920,750,o),
(920,733,cs),
(920,730,o),
(920,730,o),
(918,730,c),
(909,732,o),
(899,731,o),
(891,727,cs),
(876,720,o),
(863,707,o),
(855,692,cs),
(854,690,o),
(853,689,o),
(852,691,c),
(845,699,o),
(836,706,o),
(825,708,cs),
(810,712,o),
(790,705,o),
(780,693,cs),
(770,680,o),
(766,664,o),
(764,648,cs),
(762,631,o),
(784,631,o),
(785,648,cs)
);
},
{
closed = 1;
nodes = (
(205,548,o),
(219,557,o),
(229,567,cs),
(239,576,o),
(255,588,o),
(247,598,c),
(246,603,o),
(242,608,o),
(236,608,cs),
(229,608,o),
(222,603,o),
(214,603,cs),
(205,603,o),
(184,613,o),
(179,620,cs),
(171,630,o),
(172,669,o),
(171,680,cs),
(170,692,o),
(163,706,o),
(153,702,cs),
(149,700,o),
(146,697,o),
(144,694,cs),
(116,657,o),
(108,594,o),
(142,562,cs),
(156,550,o),
(174,544,o),
(191,546,cs)
);
},
{
closed = 1;
nodes = (
(135,590,o),
(137,635,o),
(151,665,c),
(151,646,o),
(150,623,o),
(162,608,cs),
(174,592,o),
(195,584,o),
(214,582,c),
(207,576,o),
(198,569,o),
(188,568,cs),
(180,566,o),
(171,568,o),
(164,572,cs)
);
},
{
closed = 1;
nodes = (
(873,611,o),
(978,618,o),
(995,619,cs),
(998,619,o),
(1002,619,o),
(1005,621,cs),
(1013,628,o),
(1007,640,o),
(997,639,cs),
(941,636,o),
(885,632,o),
(830,630,cs),
(812,629,o),
(794,629,o),
(776,630,cs),
(768,630,o),
(747,634,o),
(741,630,cs),
(731,622,o),
(741,608,o),
(753,611,c),
(787,607,o),
(822,608,o),
(856,610,cs)
);
},
{
closed = 1;
nodes = (
(703,30,o),
(734,31,o),
(740,31,c),
(742,18,o),
(758,17,o),
(761,30,cs),
(763,43,o),
(763,90,o),
(760,103,cs),
(756,114,o),
(749,125,o),
(740,131,cs),
(727,141,o),
(703,131,o),
(691,120,cs),
(685,115,o),
(681,109,o),
(678,103,cs),
(673,89,o),
(671,43,o),
(674,29,cs),
(677,16,o),
(693,15,o),
(696,28,c)
);
},
{
closed = 1;
nodes = (
(732,114,o),
(737,104,o),
(739,99,c),
(726,99,o),
(712,99,o),
(699,98,c),
(704,105,o),
(719,115,o),
(727,115,c)
);
},
{
closed = 1;
nodes = (
(701,77,o),
(735,77,o),
(742,78,c),
(742,70,o),
(742,63,o),
(742,56,c),
(741,54,o),
(740,53,o),
(738,53,cs),
(723,53,o),
(709,54,o),
(694,51,c),
(694,59,o),
(694,68,o),
(694,76,c)
);
},
{
closed = 1;
nodes = (
(851,30,o),
(867,30,o),
(883,31,cs),
(885,31,o),
(889,33,o),
(890,32,cs),
(895,25,o),
(906,27,o),
(908,36,cs),
(910,43,o),
(910,79,o),
(909,87,cs),
(909,100,o),
(907,114,o),
(899,123,cs),
(879,146,o),
(844,134,o),
(823,112,cs),
(809,99,o),
(811,54,o),
(813,35,cs),
(815,23,o),
(830,17,o),
(835,28,c)
);
},
{
closed = 1;
nodes = (
(847,106,o),
(854,110,o),
(863,113,cs),
(868,115,o),
(878,115,o),
(882,112,cs),
(887,107,o),
(888,99,o),
(889,93,c),
(871,94,o),
(854,92,o),
(837,90,cs),
(832,90,o),
(836,97,o),
(840,100,cs)
);
},
{
closed = 1;
nodes = (
(848,70,o),
(864,72,o),
(880,72,cs),
(883,72,o),
(889,73,o),
(889,70,cs),
(889,68,o),
(888,55,o),
(888,52,c),
(880,53,o),
(841,52,o),
(833,51,c),
(833,57,o),
(833,62,o),
(832,68,c)
);
},
{
closed = 1;
nodes = (
(294,29,o),
(312,27,o),
(329,28,cs),
(330,28,o),
(331,21,o),
(331,20,c),
(336,9,o),
(351,14,o),
(351,26,cs),
(350,41,o),
(352,98,o),
(345,112,cs),
(337,129,o),
(311,126,o),
(293,120,cs),
(278,114,o),
(266,99,o),
(260,84,cs),
(252,63,o),
(248,36,o),
(257,16,cs),
(266,-2,o),
(292,17,o),
(276,29,c)
);
},
{
closed = 1;
nodes = (
(296,101,o),
(310,106,o),
(324,104,cs),
(329,103,o),
(329,95,o),
(330,90,c),
(324,90,o),
(292,91,o),
(287,91,c)
);
},
{
closed = 1;
nodes = (
(274,60,o),
(274,69,o),
(280,70,cs),
(286,70,o),
(324,69,o),
(330,69,c),
(330,63,o),
(330,57,o),
(330,51,c),
(323,51,o),
(281,53,o),
(274,53,c)
);
},
{
closed = 1;
nodes = (
(158,19,o),
(191,21,o),
(197,22,c),
(197,8,o),
(214,4,o),
(217,17,cs),
(219,24,o),
(216,58,o),
(219,65,cs),
(221,68,o),
(218,73,o),
(218,77,cs),
(217,87,o),
(216,98,o),
(209,106,cs),
(204,112,o),
(196,117,o),
(188,117,cs),
(171,117,o),
(142,102,o),
(135,87,cs),
(124,64,o),
(129,37,o),
(132,13,cs),
(134,-2,o),
(154,4,o),
(152,19,c)
);
},
{
closed = 1;
nodes = (
(158,87,o),
(169,91,o),
(178,95,c),
(183,96,o),
(190,97,o),
(193,94,cs),
(197,89,o),
(197,83,o),
(198,77,c),
(183,75,o),
(168,76,o),
(153,78,c)
);
},
{
closed = 1;
nodes = (
(165,57,o),
(182,54,o),
(198,56,c),
(198,52,o),
(200,45,o),
(196,44,cs),
(182,41,o),
(167,43,o),
(152,42,cs),
(147,42,o),
(149,52,o),
(149,58,c)
);
}
);
width = 1077;
}
);
note = four;
unicode = 52;
},
{
glyphname = five;
layers = (
{
layerId = m01;
shapes = (
{
closed = 1;
nodes = (
(801,-150,o),
(812,-137,o),
(818,-120,cs),
(827,-98,o),
(825,-71,o),
(819,-48,c),
(829,-49,o),
(839,-51,o),
(850,-51,cs),
(867,-51,o),
(885,-45,o),
(900,-36,cs),
(929,-15,o),
(938,29,o),
(919,58,cs),
(911,70,o),
(898,78,o),
(884,84,cs),
(860,94,o),
(834,98,o),
(809,107,cs),
(790,114,o),
(772,125,o),
(757,138,cs),
(731,160,o),
(711,188,o),
(689,214,cs),
(688,215,o),
(679,222,o),
(680,223,c),
(706,237,o),
(729,256,o),
(747,279,cs),
(760,297,o),
(770,317,o),
(776,339,cs),
(785,375,o),
(782,414,o),
(774,450,cs),
(773,454,o),
(780,456,o),
(783,459,cs),
(796,471,o),
(856,533,o),
(872,542,cs),
(883,548,o),
(954,576,o),
(965,582,cs),
(987,593,o),
(1009,608,o),
(1023,629,cs),
(1030,640,o),
(1035,654,o),
(1036,667,cs),
(1038,694,o),
(1026,734,o),
(1000,741,cs),
(977,748,o),
(953,735,o),
(930,734,c),
(930,753,o),
(935,774,o),
(928,792,cs),
(914,828,o),
(872,848,o),
(844,823,c),
(837,818,o),
(833,812,o),
(829,805,cs),
(815,782,o),
(808,757,o),
(795,735,cs),
(781,711,o),
(760,691,o),
(741,670,cs),
(731,659,o),
(689,611,o),
(682,598,c),
(682,596,o),
(681,590,o),
(681,590,c),
(651,610,o),
(618,627,o),
(584,637,cs),
(557,645,o),
(528,644,o),
(501,638,cs),
(454,628,o),
(410,607,o),
(371,581,c),
(363,592,o),
(312,643,o),
(303,653,cs),
(291,668,o),
(278,683,o),
(273,701,cs),
(265,727,o),
(273,757,o),
(264,783,cs),
(251,824,o),
(212,855,o),
(172,839,cs),
(158,834,o),
(146,822,o),
(139,809,cs),
(128,790,o),
(125,768,o),
(117,747,cs),
(114,741,o),
(108,735,o),
(101,734,cs),
(81,732,o),
(58,731,o),
(42,718,cs),
(28,706,o),
(22,684,o),
(22,665,cs),
(22,622,o),
(53,570,o),
(96,565,cs),
(115,562,o),
(134,568,o),
(152,572,cs),
(163,574,o),
(176,576,o),
(187,572,cs),
(211,563,o),
(254,511,o),
(264,487,cs),
(265,485,o),
(270,479,o),
(269,477,cs),
(252,447,o),
(247,408,o),
(256,376,cs),
(272,320,o),
(307,265,o),
(357,234,c),
(350,223,o),
(308,175,o),
(299,166,cs),
(287,153,o),
(272,141,o),
(255,135,cs),
(221,123,o),
(182,122,o),
(149,106,cs),
(125,94,o),
(104,71,o),
(93,46,cs),
(80,20,o),
(76,-16,o),
(102,-29,cs),
(120,-38,o),
(143,-30,o),
(163,-28,cs),
(168,-28,o),
(173,-30,o),
(175,-34,cs),
(183,-46,o),
(191,-106,o),
(194,-119,cs),
(196,-130,o),
(199,-141,o),
(206,-149,cs),
(228,-174,o),
(262,-148,o),
(282,-122,cs),
(304,-92,o),
(316,-57,o),
(329,-23,cs),
(339,2,o),
(349,28,o),
(365,49,cs),
(375,61,o),
(386,72,o),
(398,83,c),
(402,82,o),
(408,84,o),
(410,88,c),
(418,112,o),
(416,191,o),
(408,215,cs),
(406,223,o),
(402,230,o),
(396,235,cs),
(385,243,o),
(373,247,o),
(363,254,cs),
(322,281,o),
(292,327,o),
(278,374,cs),
(273,392,o),
(270,411,o),
(273,430,cs),
(276,444,o),
(282,458,o),
(289,470,c),
(295,473,o),
(299,478,o),
(298,484,c),
(346,549,o),
(422,598,o),
(500,617,cs),
(517,621,o),
(536,623,o),
(553,621,cs),
(570,619,o),
(586,614,o),
(601,607,cs),
(640,591,o),
(679,569,o),
(707,538,cs),
(744,496,o),
(761,435,o),
(758,379,cs),
(757,356,o),
(751,331,o),
(740,311,cs),
(715,265,o),
(662,231,o),
(609,226,cs),
(603,226,o),
(596,225,o),
(591,222,cs),
(581,216,o),
(579,189,o),
(578,178,cs),
(577,168,o),
(572,119,o),
(572,109,cs),
(572,105,o),
(574,102,o),
(579,99,c),
(602,58,o),
(641,27,o),
(662,-16,cs),
(679,-52,o),
(672,-97,o),
(693,-131,cs),
(712,-163,o),
(753,-177,o),
(785,-159,cs)
);
},
{
closed = 1;
nodes = (
(209,600,o),
(189,608,o),
(169,608,cs),
(153,609,o),
(137,604,o),
(120,601,cs),
(112,600,o),
(104,599,o),
(96,602,cs),
(76,609,o),
(56,645,o),
(53,666,cs),
(52,677,o),
(54,692,o),
(64,699,cs),
(81,711,o),
(107,703,o),
(124,716,cs),
(152,736,o),
(144,787,o),
(170,810,cs),
(199,834,o),
(235,806,o),
(243,770,cs),
(246,752,o),
(242,734,o),
(242,717,cs),
(243,699,o),
(248,682,o),
(256,667,cs),
(280,628,o),
(313,595,o),
(346,562,c),
(325,546,o),
(305,527,o),
(288,506,c),
(274,537,o),
(250,564,o),
(224,587,cs)
);
},
{
closed = 1;
nodes = (
(747,525,o),
(725,554,o),
(698,577,cs),
(696,579,o),
(701,580,o),
(703,583,cs),
(706,588,o),
(725,607,o),
(729,611,cs),
(758,642,o),
(792,672,o),
(814,709,cs),
(821,722,o),
(848,790,o),
(857,801,cs),
(871,819,o),
(897,804,o),
(905,782,cs),
(911,765,o),
(902,746,o),
(904,729,cs),
(905,723,o),
(907,718,o),
(910,714,cs),
(922,697,o),
(961,710,o),
(981,713,c),
(984,714,o),
(992,714,o),
(995,713,cs),
(999,711,o),
(1001,706,o),
(1003,701,cs),
(1010,687,o),
(1012,670,o),
(1007,655,cs),
(1002,640,o),
(989,627,o),
(976,618,cs),
(955,603,o),
(930,593,o),
(905,585,cs),
(873,575,o),
(838,566,o),
(813,543,cs),
(807,537,o),
(767,499,o),
(761,493,c)
);
},
{
closed = 1;
nodes = (
(218,-132,o),
(213,-111,o),
(212,-103,cs),
(207,-82,o),
(205,-61,o),
(200,-41,cs),
(198,-33,o),
(195,-26,o),
(190,-20,cs),
(185,-13,o),
(176,-9,o),
(168,-8,cs),
(150,-7,o),
(132,-16,o),
(114,-12,cs),
(104,-9,o),
(102,4,o),
(104,15,cs),
(111,52,o),
(136,82,o),
(172,94,cs),
(207,106,o),
(247,106,o),
(280,124,cs),
(314,144,o),
(338,178,o),
(362,208,cs),
(364,210,o),
(375,221,o),
(376,223,c),
(378,225,o),
(382,221,o),
(384,220,c),
(392,213,o),
(393,184,o),
(394,173,cs),
(395,150,o),
(397,126,o),
(393,103,c),
(386,103,o),
(373,90,o),
(368,85,cs),
(352,70,o),
(339,52,o),
(329,33,cs),
(313,2,o),
(303,-32,o),
(289,-64,cs),
(278,-88,o),
(265,-111,o),
(245,-128,cs),
(240,-132,o),
(231,-139,o),
(225,-136,cs)
);
},
{
closed = 1;
nodes = (
(719,-124,o),
(711,-109,o),
(707,-95,cs),
(699,-67,o),
(699,-36,o),
(687,-9,cs),
(674,21,o),
(651,46,o),
(629,71,cs),
(624,76,o),
(605,100,o),
(601,106,cs),
(598,112,o),
(603,123,o),
(597,128,c),
(598,137,o),
(605,192,o),
(606,201,c),
(623,204,o),
(641,206,o),
(657,212,cs),
(661,214,o),
(662,207,o),
(664,203,cs),
(667,198,o),
(688,173,o),
(691,169,cs),
(713,142,o),
(736,116,o),
(766,99,cs),
(791,85,o),
(820,77,o),
(848,69,cs),
(866,64,o),
(888,57,o),
(896,41,cs),
(903,27,o),
(899,9,o),
(890,-3,cs),
(878,-20,o),
(852,-26,o),
(831,-25,cs),
(818,-24,o),
(798,-22,o),
(795,-34,cs),
(793,-39,o),
(795,-45,o),
(796,-50,cs),
(801,-70,o),
(801,-94,o),
(792,-112,cs),
(781,-135,o),
(754,-145,o),
(732,-132,cs)
);
},
{
closed = 1;
nodes = (
(394,386,o),
(401,389,o),
(407,394,cs),
(439,419,o),
(442,467,o),
(417,500,cs),
(413,505,o),
(407,510,o),
(401,510,cs),
(391,510,o),
(381,505,o),
(372,501,cs),
(353,492,o),
(335,469,o),
(336,448,cs),
(337,416,o),
(355,380,o),
(387,385,cs)
);
},
{
closed = 1;
nodes = (
(364,414,o),
(357,438,o),
(356,448,cs),
(356,454,o),
(357,460,o),
(360,464,cs),
(366,473,o),
(386,488,o),
(396,490,c),
(399,490,o),
(401,485,o),
(403,482,cs),
(408,473,o),
(412,463,o),
(412,453,cs),
(413,441,o),
(408,429,o),
(402,420,cs),
(395,410,o),
(383,401,o),
(374,408,cs)
);
},
{
closed = 1;
nodes = (
(677,427,o),
(678,441,o),
(675,453,cs),
(668,477,o),
(648,511,o),
(623,509,cs),
(618,509,o),
(613,507,o),
(611,503,cs),
(607,494,o),
(600,488,o),
(595,480,cs),
(587,466,o),
(580,450,o),
(581,434,cs),
(585,379,o),
(657,363,o),
(674,415,cs)
);
},
{
closed = 1;
nodes = (
(602,450,o),
(610,465,o),
(619,476,c),
(625,475,o),
(630,479,o),
(631,485,c),
(645,474,o),
(654,456,o),
(655,438,cs),
(655,427,o),
(651,412,o),
(640,407,cs),
(622,399,o),
(604,416,o),
(603,435,cs)
);
},
{
closed = 1;
nodes = (
(536,261,o),
(560,292,o),
(564,328,cs),
(565,343,o),
(563,365,o),
(547,368,cs),
(536,370,o),
(525,361,o),
(516,355,cs),
(513,353,o),
(509,350,o),
(507,353,cs),
(501,360,o),
(495,368,o),
(487,372,cs),
(471,381,o),
(451,375,o),
(446,358,cs),
(443,344,o),
(448,329,o),
(452,315,cs),
(457,301,o),
(463,288,o),
(467,274,c),
(468,266,o),
(471,243,o),
(477,238,cs),
(486,232,o),
(498,241,o),
(493,251,cs),
(491,255,o),
(487,278,o),
(485,283,cs),
(480,301,o),
(471,319,o),
(467,338,cs),
(466,343,o),
(464,353,o),
(468,355,c),
(476,362,o),
(486,344,o),
(495,337,cs),
(500,333,o),
(507,331,o),
(513,333,cs),
(523,335,o),
(531,343,o),
(541,347,cs),
(545,349,o),
(544,342,o),
(544,338,cs),
(545,326,o),
(541,313,o),
(536,301,cs),
(527,281,o),
(512,265,o),
(498,248,cs),
(489,238,o),
(503,226,o),
(512,235,cs)
);
},
{
closed = 1;
nodes = (
(460,107,o),
(460,164,o),
(459,174,cs),
(457,190,o),
(433,184,o),
(437,168,cs),
(437,167,o),
(439,165,o),
(439,164,cs),
(439,153,o),
(437,104,o),
(439,94,cs),
(442,82,o),
(459,84,o),
(460,96,cs)
);
},
{
closed = 1;
nodes = (
(511,107,o),
(511,108,o),
(511,109,cs),
(510,121,o),
(511,166,o),
(506,176,cs),
(500,188,o),
(481,182,o),
(484,169,cs),
(489,145,o),
(482,119,o),
(490,96,cs),
(492,92,o),
(497,89,o),
(501,89,c),
(511,87,o),
(518,98,o),
(512,106,cs)
);
},
{
closed = 1;
nodes = (
(556,108,o),
(554,148,o),
(556,157,cs),
(559,171,o),
(539,176,o),
(533,164,c),
(532,160,o),
(532,146,o),
(532,142,cs),
(533,127,o),
(534,112,o),
(535,97,cs),
(537,82,o),
(557,85,o),
(556,99,cs)
);
}
);
width = 1050;
}
);
note = five;
unicode = 53;
},
{
glyphname = six;
layers = (
{
layerId = m01;
shapes = (
{
closed = 1;
nodes = (
(312,908,o),
(302,883,o),
(318,880,cs),
(335,878,o),
(341,894,o),
(325,902,cs)
);
},
{
closed = 1;
nodes = (
(778,894,o),
(777,866,o),
(795,866,cs),
(809,867,o),
(809,887,o),
(795,890,cs)
);
},
{
closed = 1;
nodes = (
(609,863,o),
(584,867,o),
(581,849,cs),
(577,830,o),
(609,825,o),
(609,845,cs)
);
},
{
closed = 1;
nodes = (
(413,617,o),
(396,691,o),
(394,703,cs),
(394,705,o),
(395,706,o),
(396,707,c),
(403,724,o),
(387,745,o),
(395,761,cs),
(398,767,o),
(409,784,o),
(415,787,cs),
(430,794,o),
(416,814,o),
(401,807,c),
(392,810,o),
(383,812,o),
(376,818,cs),
(367,826,o),
(365,840,o),
(360,851,cs),
(354,863,o),
(337,857,o),
(340,844,c),
(337,842,o),
(333,838,o),
(333,834,c),
(335,823,o),
(338,787,o),
(333,777,cs),
(330,772,o),
(325,770,o),
(322,765,cs),
(317,759,o),
(318,749,o),
(325,746,cs),
(334,741,o),
(348,744,o),
(354,736,cs),
(358,730,o),
(360,722,o),
(363,716,c),
(364,712,o),
(369,709,o),
(373,709,c),
(375,694,o),
(393,615,o),
(396,601,cs),
(399,587,o),
(418,591,o),
(416,605,cs)
);
},
{
closed = 1;
nodes = (
(357,775,o),
(356,792,o),
(357,807,c),
(363,799,o),
(373,793,o),
(382,789,cs),
(385,788,o),
(385,788,o),
(384,786,cs),
(377,776,o),
(370,764,o),
(369,751,c),
(364,757,o),
(356,761,o),
(349,763,c)
);
},
{
closed = 1;
nodes = (
(698,580,o),
(704,602,o),
(706,605,c),
(711,620,o),
(744,694,o),
(752,707,cs),
(754,710,o),
(753,713,o),
(756,711,cs),
(761,707,o),
(769,709,o),
(772,715,cs),
(779,729,o),
(793,741,o),
(807,748,c),
(817,748,o),
(822,761,o),
(814,768,cs),
(807,774,o),
(803,783,o),
(802,791,cs),
(799,806,o),
(801,821,o),
(800,836,cs),
(800,842,o),
(797,845,o),
(791,847,c),
(786,856,o),
(772,854,o),
(770,844,cs),
(768,831,o),
(768,816,o),
(758,807,cs),
(752,802,o),
(743,802,o),
(735,801,cs),
(729,801,o),
(725,796,o),
(725,791,cs),
(725,787,o),
(722,783,o),
(723,779,cs),
(725,770,o),
(735,766,o),
(738,758,cs),
(740,751,o),
(727,726,o),
(725,718,c),
(725,714,o),
(729,709,o),
(727,705,cs),
(719,688,o),
(681,602,o),
(677,583,cs),
(674,571,o),
(690,565,o),
(696,576,cs)
);
},
{
closed = 1;
nodes = (
(756,733,o),
(762,744,o),
(762,755,cs),
(762,764,o),
(758,773,o),
(753,780,cs),
(752,782,o),
(753,783,o),
(755,783,c),
(764,786,o),
(771,792,o),
(778,798,c),
(779,786,o),
(781,772,o),
(788,762,c),
(774,750,o),
(757,738,o),
(752,720,c),
(752,721,o),
(751,721,o),
(752,722,c)
);
},
{
closed = 1;
nodes = (
(486,814,o),
(457,821,o),
(450,802,cs),
(443,785,o),
(469,778,o),
(477,795,cs)
);
},
{
closed = 1;
nodes = (
(678,807,o),
(678,791,o),
(689,789,cs),
(711,784,o),
(711,815,o),
(689,810,cs)
);
},
{
closed = 1;
nodes = (
(559,612,o),
(563,638,o),
(561,647,c),
(566,647,o),
(571,648,o),
(573,652,cs),
(576,661,o),
(580,670,o),
(586,676,cs),
(595,685,o),
(606,690,o),
(616,697,cs),
(622,702,o),
(621,712,o),
(613,715,c),
(612,724,o),
(601,728,o),
(597,736,cs),
(591,747,o),
(593,759,o),
(594,771,cs),
(594,775,o),
(589,779,o),
(587,783,cs),
(584,791,o),
(571,791,o),
(568,783,cs),
(563,767,o),
(564,748,o),
(553,736,cs),
(548,729,o),
(537,730,o),
(530,725,cs),
(522,719,o),
(522,707,o),
(531,703,cs),
(539,698,o),
(543,692,o),
(543,680,c),
(544,675,o),
(541,653,o),
(542,648,c),
(543,647,o),
(541,644,o),
(541,643,cs),
(540,638,o),
(536,613,o),
(536,609,cs),
(536,598,o),
(550,594,o),
(555,604,cs)
);
},
{
closed = 1;
nodes = (
(554,713,o),
(560,714,o),
(563,717,c),
(568,720,o),
(571,724,o),
(574,729,cs),
(575,731,o),
(575,729,o),
(576,727,cs),
(579,719,o),
(585,712,o),
(592,707,c),
(582,701,o),
(572,693,o),
(565,683,c),
(564,693,o),
(561,702,o),
(556,710,cs)
);
},
{
closed = 1;
nodes = (
(820,758,o),
(826,735,o),
(844,735,cs),
(862,735,o),
(856,761,o),
(837,759,cs)
);
},
{
closed = 1;
nodes = (
(290,750,o),
(268,745,o),
(271,730,cs),
(274,716,o),
(297,721,o),
(294,735,cs)
);
},
{
closed = 1;
nodes = (
(491,723,o),
(480,725,o),
(474,719,cs),
(469,712,o),
(473,703,o),
(480,702,cs),
(488,700,o),
(494,707,o),
(493,714,cs)
);
},
{
closed = 1;
nodes = (
(676,714,o),
(652,721,o),
(641,707,cs),
(624,686,o),
(667,670,o),
(672,697,cs)
);
},
{
closed = 1;
nodes = (
(318,586,o),
(320,586,o),
(321,586,cs),
(328,588,o),
(331,596,o),
(327,602,cs),
(325,604,o),
(324,606,o),
(323,608,c),
(322,614,o),
(331,633,o),
(333,639,cs),
(336,648,o),
(336,660,o),
(327,662,cs),
(316,664,o),
(302,664,o),
(296,673,cs),
(295,674,o),
(293,678,o),
(293,678,c),
(283,696,o),
(257,671,o),
(275,662,cs),
(279,660,o),
(278,654,o),
(278,649,cs),
(277,641,o),
(273,631,o),
(265,628,cs),
(250,622,o),
(257,602,o),
(273,606,cs),
(277,607,o),
(284,613,o),
(287,610,cs),
(289,607,o),
(300,589,o),
(302,587,cs),
(306,582,o),
(312,581,o),
(317,585,cs)
);
},
{
closed = 1;
nodes = (
(300,629,o),
(297,631,o),
(295,632,c),
(297,637,o),
(298,642,o),
(298,647,c),
(302,646,o),
(305,644,o),
(308,644,c),
(311,643,o),
(313,643,o),
(312,640,cs),
(311,638,o),
(307,627,o),
(306,625,cs),
(305,623,o),
(303,625,o),
(302,627,c)
);
},
{
closed = 1;
nodes = (
(751,568,o),
(761,583,o),
(765,587,cs),
(770,593,o),
(775,598,o),
(780,602,c),
(790,600,o),
(798,608,o),
(794,617,cs),
(792,621,o),
(793,640,o),
(792,644,cs),
(791,653,o),
(780,659,o),
(774,655,c),
(765,651,o),
(757,642,o),
(747,645,cs),
(737,647,o),
(729,635,o),
(736,626,cs),
(738,623,o),
(737,614,o),
(736,610,cs),
(735,605,o),
(730,600,o),
(727,595,c),
(725,589,o),
(728,583,o),
(733,581,c),
(731,572,o),
(737,565,o),
(745,567,cs)
);
},
{
closed = 1;
nodes = (
(762,624,o),
(766,625,o),
(769,626,cs),
(772,627,o),
(774,623,o),
(771,621,c),
(768,620,o),
(759,612,o),
(757,609,c),
(757,614,o),
(755,622,o),
(759,623,cs)
);
},
{
closed = 1;
nodes = (
(468,576,o),
(490,577,o),
(513,577,cs),
(529,577,o),
(535,596,o),
(519,600,cs),
(507,603,o),
(453,598,o),
(440,597,cs),
(424,595,o),
(429,572,o),
(445,573,cs)
);
},
{
closed = 1;
nodes = (
(620,586,o),
(583,595,o),
(574,595,cs),
(561,595,o),
(559,574,o),
(572,572,cs),
(590,569,o),
(607,565,o),
(625,561,cs),
(644,557,o),
(647,579,o),
(628,584,cs)
);
},
{
closed = 1;
nodes = (
(827,-37,o),
(857,-16,o),
(878,11,cs),
(899,37,o),
(912,71,o),
(915,105,cs),
(918,145,o),
(910,186,o),
(894,223,cs),
(884,246,o),
(871,268,o),
(856,289,cs),
(850,299,o),
(817,345,o),
(813,356,c),
(807,367,o),
(803,380,o),
(805,393,cs),
(809,415,o),
(819,436,o),
(822,458,cs),
(824,474,o),
(818,498,o),
(804,504,c),
(804,508,o),
(800,521,o),
(797,525,cs),
(795,527,o),
(790,528,o),
(790,531,c),
(789,534,o),
(788,536,o),
(786,538,cs),
(772,548,o),
(708,564,o),
(691,568,cs),
(675,572,o),
(669,551,o),
(686,547,cs),
(697,544,o),
(752,530,o),
(763,525,cs),
(766,523,o),
(775,521,o),
(775,517,cs),
(775,513,o),
(777,500,o),
(776,496,c),
(771,485,o),
(758,479,o),
(746,474,c),
(745,473,o),
(743,473,o),
(743,474,cs),
(741,496,o),
(725,518,o),
(705,526,cs),
(689,533,o),
(668,537,o),
(653,529,cs),
(641,524,o),
(634,512,o),
(629,500,cs),
(628,498,o),
(627,498,o),
(625,498,c),
(619,500,o),
(612,499,o),
(606,497,c),
(605,513,o),
(601,529,o),
(591,541,cs),
(587,547,o),
(581,551,o),
(575,555,cs),
(552,568,o),
(507,573,o),
(487,556,cs),
(479,550,o),
(475,541,o),
(470,532,c),
(466,538,o),
(461,543,o),
(455,546,cs),
(436,555,o),
(417,538,o),
(411,518,c),
(394,528,o),
(358,523,o),
(343,510,cs),
(333,501,o),
(329,487,o),
(328,474,c),
(318,478,o),
(309,483,o),
(303,491,cs),
(289,509,o),
(308,531,o),
(328,541,cs),
(339,547,o),
(350,552,o),
(361,556,c),
(363,556,o),
(371,558,o),
(372,559,c),
(386,565,o),
(378,586,o),
(364,582,cs),
(339,575,o),
(313,565,o),
(294,547,c),
(285,549,o),
(272,535,o),
(265,528,c),
(263,527,o),
(261,528,o),
(259,530,cs),
(253,536,o),
(233,539,o),
(224,537,cs),
(209,534,o),
(196,526,o),
(183,518,cs),
(135,487,o),
(89,446,o),
(62,395,cs),
(40,353,o),
(28,303,o),
(35,255,cs),
(39,226,o),
(54,196,o),
(76,176,cs),
(99,156,o),
(130,146,o),
(160,143,c),
(159,120,o),
(160,96,o),
(166,74,cs),
(175,41,o),
(197,11,o),
(223,-11,cs),
(259,-41,o),
(305,-58,o),
(349,-69,cs),
(422,-89,o),
(499,-100,o),
(575,-100,cs),
(650,-100,o),
(729,-87,o),
(796,-52,cs)
);
},
{
closed = 1;
nodes = (
(379,312,o),
(376,332,o),
(383,346,cs),
(389,359,o),
(402,368,o),
(413,377,cs),
(421,384,o),
(416,396,o),
(406,399,cs),
(398,401,o),
(385,403,o),
(384,411,cs),
(384,420,o),
(388,431,o),
(395,435,cs),
(397,436,o),
(399,436,o),
(400,437,c),
(412,443,o),
(406,460,o),
(393,457,c),
(391,457,o),
(388,455,o),
(386,456,cs),
(376,459,o),
(366,464,o),
(356,465,cs),
(353,465,o),
(349,466,o),
(348,469,c),
(348,473,o),
(351,487,o),
(354,491,cs),
(359,497,o),
(379,502,o),
(387,503,cs),
(391,503,o),
(396,503,o),
(400,501,cs),
(404,499,o),
(408,495,o),
(411,491,cs),
(412,489,o),
(412,487,o),
(413,486,c),
(416,478,o),
(427,478,o),
(431,486,cs),
(433,490,o),
(431,505,o),
(431,509,cs),
(431,521,o),
(441,533,o),
(450,525,cs),
(458,517,o),
(458,504,o),
(460,493,cs),
(463,481,o),
(479,479,o),
(482,490,cs),
(483,494,o),
(480,498,o),
(481,502,cs),
(483,511,o),
(493,535,o),
(501,541,cs),
(509,546,o),
(520,546,o),
(530,545,cs),
(545,545,o),
(562,541,o),
(572,531,cs),
(582,521,o),
(589,497,o),
(585,484,cs),
(584,481,o),
(582,479,o),
(581,477,c),
(578,465,o),
(593,459,o),
(601,469,cs),
(604,472,o),
(613,476,o),
(618,476,cs),
(626,476,o),
(630,462,o),
(632,454,c),
(634,450,o),
(628,452,o),
(623,451,cs),
(618,450,o),
(614,445,o),
(612,440,c),
(580,438,o),
(546,441,o),
(519,456,cs),
(507,463,o),
(496,447,o),
(506,438,cs),
(509,436,o),
(510,432,o),
(510,429,cs),
(511,417,o),
(502,396,o),
(492,390,cs),
(487,387,o),
(482,387,o),
(477,386,cs),
(465,383,o),
(467,366,o),
(480,365,cs),
(485,365,o),
(486,359,o),
(486,354,cs),
(485,348,o),
(480,341,o),
(475,338,cs),
(466,334,o),
(454,335,o),
(446,329,cs),
(433,319,o),
(438,296,o),
(427,284,cs),
(415,271,o),
(396,283,o),
(387,298,cs)
);
},
{
closed = 1;
nodes = (
(99,184,o),
(78,203,o),
(68,224,cs),
(58,244,o),
(55,267,o),
(56,289,cs),
(57,327,o),
(68,366,o),
(89,398,cs),
(115,439,o),
(153,472,o),
(194,499,cs),
(209,508,o),
(234,523,o),
(247,511,cs),
(248,510,o),
(250,510,o),
(249,509,cs),
(244,502,o),
(240,495,o),
(236,488,c),
(237,488,o),
(236,487,o),
(235,487,c),
(234,486,o),
(227,490,o),
(226,490,cs),
(216,490,o),
(207,484,o),
(199,478,cs),
(177,464,o),
(156,446,o),
(139,425,cs),
(118,397,o),
(102,363,o),
(94,328,cs),
(88,302,o),
(87,274,o),
(95,248,cs),
(101,230,o),
(122,187,o),
(140,180,cs),
(149,177,o),
(162,179,o),
(166,188,c),
(165,181,o),
(163,173,o),
(163,166,c),
(149,169,o),
(135,170,o),
(122,175,cs)
);
},
{
closed = 1;
nodes = (
(645,487,o),
(649,493,o),
(652,498,cs),
(655,503,o),
(659,509,o),
(665,511,cs),
(678,514,o),
(702,508,o),
(710,497,cs),
(717,488,o),
(723,477,o),
(723,466,c),
(701,459,o),
(678,456,o),
(656,454,c),
(655,457,o),
(647,477,o),
(646,481,cs)
);
},
{
closed = 1;
nodes = (
(457,-56,o),
(383,-42,o),
(312,-21,cs),
(282,-12,o),
(252,2,o),
(229,23,cs),
(208,43,o),
(193,69,o),
(187,97,cs),
(181,126,o),
(183,157,o),
(189,186,cs),
(196,219,o),
(207,251,o),
(226,278,cs),
(242,301,o),
(263,319,o),
(281,339,cs),
(286,345,o),
(291,352,o),
(293,360,cs),
(295,369,o),
(294,379,o),
(290,387,cs),
(281,405,o),
(268,420,o),
(259,438,cs),
(255,446,o),
(252,456,o),
(253,465,cs),
(256,479,o),
(265,492,o),
(274,503,c),
(274,491,o),
(279,480,o),
(287,471,cs),
(298,460,o),
(312,453,o),
(326,447,cs),
(331,445,o),
(345,440,o),
(350,441,cs),
(356,443,o),
(363,440,o),
(369,437,c),
(364,427,o),
(361,414,o),
(364,403,cs),
(366,396,o),
(378,385,o),
(385,382,c),
(375,374,o),
(367,363,o),
(362,352,cs),
(351,330,o),
(361,291,o),
(378,274,cs),
(397,255,o),
(427,250,o),
(444,270,cs),
(454,281,o),
(457,296,o),
(459,310,cs),
(460,314,o),
(468,314,o),
(473,315,cs),
(498,321,o),
(515,347,o),
(504,371,c),
(520,383,o),
(532,404,o),
(532,424,cs),
(532,426,o),
(533,426,o),
(535,425,cs),
(565,415,o),
(597,416,o),
(629,418,cs),
(636,419,o),
(645,418,o),
(652,422,c),
(690,425,o),
(728,432,o),
(762,448,cs),
(768,451,o),
(788,464,o),
(793,468,c),
(789,436,o),
(770,406,o),
(776,374,cs),
(777,364,o),
(781,353,o),
(787,344,cs),
(810,304,o),
(841,269,o),
(861,228,cs),
(885,180,o),
(892,116,o),
(870,66,cs),
(862,49,o),
(849,33,o),
(835,20,cs),
(805,-8,o),
(765,-25,o),
(726,-37,cs),
(663,-56,o),
(597,-62,o),
(531,-59,cs)
);
},
{
closed = 1;
nodes = (
(728,116,o),
(731,116,o),
(734,118,cs),
(742,125,o),
(789,164,o),
(798,170,cs),
(802,172,o),
(807,181,o),
(807,185,cs),
(807,206,o),
(805,226,o),
(799,246,cs),
(792,268,o),
(781,288,o),
(767,306,cs),
(756,319,o),
(745,333,o),
(731,343,cs),
(721,349,o),
(706,339,o),
(709,328,c),
(709,326,o),
(709,326,o),
(706,325,c),
(699,321,o),
(657,301,o),
(649,297,cs),
(644,294,o),
(639,289,o),
(638,283,c),
(617,267,o),
(655,249,o),
(672,229,cs),
(696,200,o),
(704,159,o),
(706,121,cs),
(706,110,o),
(719,105,o),
(726,114,cs)
);
},
{
closed = 1;
nodes = (
(684,252,o),
(670,263,o),
(658,275,c),
(667,282,o),
(719,306,o),
(730,311,c),
(746,293,o),
(762,272,o),
(772,249,cs),
(780,231,o),
(782,210,o),
(784,190,c),
(772,186,o),
(736,155,o),
(726,148,c),
(723,179,o),
(713,212,o),
(694,238,cs)
);
},
{
closed = 1;
nodes = (
(148,202,o),
(144,207,o),
(141,211,cs),
(120,237,o),
(109,273,o),
(113,306,cs),
(117,340,o),
(130,374,o),
(150,402,cs),
(164,423,o),
(183,440,o),
(203,455,c),
(210,459,o),
(216,463,o),
(223,466,c),
(224,465,o),
(229,462,o),
(229,460,cs),
(230,441,o),
(240,422,o),
(250,406,cs),
(254,399,o),
(270,376,o),
(270,368,cs),
(270,360,o),
(255,346,o),
(250,341,cs),
(232,322,o),
(214,302,o),
(200,280,cs),
(184,253,o),
(173,221,o),
(166,190,c),
(167,198,o),
(161,204,o),
(153,203,cs)
);
}
);
width = 950;
}
);
note = six;
unicode = 54;
},
{
glyphname = seven;
layers = (
{
layerId = m01;
shapes = (
{
closed = 1;
nodes = (
(401,70,o),
(444,94,o),
(469,131,c),
(464,122,o),
(438,69,o),
(433,61,c),
(432,58,o),
(429,50,o),
(429,48,cs),
(429,31,o),
(451,31,o),
(454,47,cs),
(454,49,o),
(459,58,o),
(460,60,cs),
(473,84,o),
(485,109,o),
(498,134,c),
(506,129,o),
(516,134,o),
(517,144,c),
(530,156,o),
(545,164,o),
(561,172,cs),
(596,190,o),
(633,204,o),
(671,213,cs),
(721,224,o),
(773,225,o),
(824,225,cs),
(829,225,o),
(849,225,o),
(853,227,cs),
(861,231,o),
(862,240,o),
(857,247,c),
(858,253,o),
(856,261,o),
(851,264,cs),
(847,266,o),
(843,267,o),
(840,269,cs),
(830,276,o),
(822,287,o),
(819,299,cs),
(816,311,o),
(818,325,o),
(823,336,cs),
(838,369,o),
(885,384,o),
(920,376,cs),
(939,371,o),
(959,361,o),
(973,347,cs),
(986,334,o),
(993,317,o),
(1000,300,c),
(1000,290,o),
(1008,283,o),
(1018,285,cs),
(1060,295,o),
(1099,311,o),
(1140,325,c),
(1146,326,o),
(1154,329,o),
(1155,336,c),
(1156,338,o),
(1157,335,o),
(1159,334,cs),
(1172,327,o),
(1184,344,o),
(1173,354,cs),
(1170,357,o),
(1158,366,o),
(1156,369,cs),
(1155,371,o),
(1155,379,o),
(1155,381,cs),
(1155,392,o),
(1156,446,o),
(1158,457,c),
(1164,464,o),
(1164,474,o),
(1156,478,cs),
(1147,482,o),
(1103,494,o),
(1095,499,cs),
(1086,506,o),
(1086,522,o),
(1089,533,cs),
(1093,549,o),
(1099,565,o),
(1108,579,cs),
(1131,613,o),
(1169,638,o),
(1207,654,cs),
(1218,658,o),
(1219,673,o),
(1208,678,c),
(1207,679,o),
(1196,682,o),
(1195,683,c),
(1183,689,o),
(1120,720,o),
(1110,728,cs),
(1106,731,o),
(1100,731,o),
(1099,736,c),
(1095,746,o),
(1083,749,o),
(1075,742,cs),
(1073,740,o),
(1071,741,o),
(1069,741,cs),
(1064,740,o),
(1060,735,o),
(1056,731,cs),
(1031,709,o),
(963,660,o),
(930,664,cs),
(924,665,o),
(916,668,o),
(913,674,cs),
(906,685,o),
(905,702,o),
(910,714,cs),
(914,722,o),
(928,739,o),
(936,741,cs),
(944,744,o),
(947,750,o),
(945,757,c),
(946,764,o),
(943,772,o),
(936,773,cs),
(922,775,o),
(907,779,o),
(896,788,cs),
(887,795,o),
(882,807,o),
(875,816,cs),
(870,822,o),
(861,825,o),
(854,821,cs),
(844,816,o),
(838,806,o),
(830,800,cs),
(819,792,o),
(781,757,o),
(767,755,c),
(766,754,o),
(763,756,o),
(762,756,cs),
(759,757,o),
(755,757,o),
(752,755,c),
(741,765,o),
(728,751,o),
(735,738,cs),
(740,730,o),
(745,721,o),
(749,712,cs),
(757,691,o),
(759,666,o),
(751,645,cs),
(745,629,o),
(734,613,o),
(720,603,cs),
(707,594,o),
(689,592,o),
(674,593,cs),
(650,596,o),
(627,606,o),
(607,619,cs),
(604,621,o),
(590,631,o),
(586,632,cs),
(581,634,o),
(576,633,o),
(572,630,cs),
(569,628,o),
(559,632,o),
(556,631,cs),
(546,629,o),
(543,616,o),
(551,609,cs),
(555,605,o),
(561,603,o),
(565,598,cs),
(571,588,o),
(573,575,o),
(575,564,cs),
(581,534,o),
(579,497,o),
(557,476,cs),
(543,462,o),
(522,456,o),
(502,452,cs),
(488,450,o),
(473,450,o),
(459,447,cs),
(449,445,o),
(446,432,o),
(454,426,cs),
(456,424,o),
(458,424,o),
(461,422,cs),
(469,418,o),
(477,411,o),
(483,404,cs),
(497,387,o),
(510,368,o),
(517,348,cs),
(525,322,o),
(526,294,o),
(523,268,cs),
(521,250,o),
(515,231,o),
(502,217,c),
(497,210,o),
(499,201,o),
(506,197,c),
(498,183,o),
(489,169,o),
(481,154,c),
(494,185,o),
(499,223,o),
(489,255,cs),
(483,279,o),
(473,303,o),
(460,325,cs),
(456,332,o),
(452,340,o),
(446,346,cs),
(443,349,o),
(436,357,o),
(432,357,cs),
(428,358,o),
(421,352,o),
(418,356,cs),
(411,365,o),
(386,363,o),
(376,362,c),
(368,377,o),
(362,392,o),
(355,407,cs),
(341,435,o),
(323,462,o),
(299,482,cs),
(279,500,o),
(254,513,o),
(228,517,cs),
(205,521,o),
(182,516,o),
(161,508,c),
(159,520,o),
(153,534,o),
(142,542,cs),
(129,552,o),
(115,555,o),
(99,551,cs),
(82,548,o),
(71,524,o),
(70,507,cs),
(70,494,o),
(75,465,o),
(85,458,c),
(66,440,o),
(46,420,o),
(40,394,cs),
(36,376,o),
(39,356,o),
(44,337,cs),
(55,302,o),
(71,268,o),
(88,236,cs),
(94,224,o),
(101,212,o),
(112,206,c),
(107,193,o),
(103,180,o),
(101,167,c),
(92,163,o),
(93,151,o),
(101,145,c),
(104,111,o),
(127,75,o),
(158,60,cs),
(173,53,o),
(194,49,o),
(197,66,c),
(200,57,o),
(204,48,o),
(211,42,cs),
(242,17,o),
(322,41,o),
(359,55,cs)
);
},
{
closed = 1;
nodes = (
(717,406,o),
(719,403,o),
(721,402,cs),
(732,395,o),
(744,389,o),
(757,386,cs),
(770,383,o),
(779,397,o),
(771,407,cs),
(767,412,o),
(747,423,o),
(742,426,c),
(773,451,o),
(805,475,o),
(838,497,cs),
(842,500,o),
(847,499,o),
(852,497,cs),
(879,486,o),
(907,477,o),
(935,469,cs),
(951,464,o),
(959,486,o),
(943,492,cs),
(933,496,o),
(881,515,o),
(871,518,c),
(895,532,o),
(920,546,o),
(946,559,c),
(948,561,o),
(951,561,o),
(953,563,cs),
(963,571,o),
(956,586,o),
(943,584,cs),
(926,582,o),
(868,546,o),
(853,537,c),
(856,578,o),
(857,620,o),
(859,661,cs),
(860,680,o),
(837,681,o),
(836,662,cs),
(833,618,o),
(830,574,o),
(827,530,c),
(823,527,o),
(821,521,o),
(821,517,c),
(786,493,o),
(753,467,o),
(720,440,cs),
(719,439,o),
(717,440,o),
(716,442,cs),
(713,446,o),
(706,448,o),
(700,447,c),
(686,474,o),
(673,503,o),
(661,532,cs),
(654,549,o),
(634,539,o),
(640,522,cs),
(647,504,o),
(677,429,o),
(690,414,c),
(638,367,o),
(589,316,o),
(547,259,c),
(553,293,o),
(550,330,o),
(538,362,cs),
(530,384,o),
(517,405,o),
(502,422,c),
(500,423,o),
(499,424,o),
(500,425,c),
(525,428,o),
(551,435,o),
(571,451,cs),
(587,464,o),
(599,484,o),
(604,504,cs),
(611,531,o),
(608,560,o),
(602,587,c),
(626,574,o),
(653,564,o),
(680,564,cs),
(761,562,o),
(804,652,o),
(771,725,c),
(780,725,o),
(789,731,o),
(797,736,cs),
(821,751,o),
(845,767,o),
(861,790,c),
(871,773,o),
(887,758,o),
(906,751,c),
(898,744,o),
(889,736,o),
(884,725,cs),
(870,696,o),
(875,654,o),
(904,638,cs),
(956,609,o),
(1033,671,o),
(1074,714,c),
(1080,706,o),
(1089,701,o),
(1097,695,cs),
(1118,681,o),
(1141,670,o),
(1165,662,c),
(1134,646,o),
(1104,625,o),
(1083,598,cs),
(1071,583,o),
(1062,565,o),
(1056,547,cs),
(1052,535,o),
(1049,522,o),
(1050,509,cs),
(1052,472,o),
(1092,449,o),
(1130,449,c),
(1129,436,o),
(1125,378,o),
(1128,364,c),
(1129,362,o),
(1136,351,o),
(1134,350,c),
(1117,348,o),
(1037,319,o),
(1021,313,c),
(1014,335,o),
(1001,357,o),
(984,373,cs),
(961,393,o),
(930,404,o),
(900,405,cs),
(867,406,o),
(830,394,o),
(808,369,cs),
(777,334,o),
(777,279,o),
(815,252,c),
(757,251,o),
(696,250,o),
(640,232,cs),
(600,219,o),
(559,203,o),
(523,180,c),
(573,265,o),
(641,340,o),
(716,405,cs)
);
},
{
closed = 1;
nodes = (
(97,520,o),
(101,528,o),
(105,529,cs),
(114,533,o),
(127,528,o),
(133,520,cs),
(138,514,o),
(139,505,o),
(141,498,c),
(128,489,o),
(115,481,o),
(102,472,c),
(94,485,o),
(91,502,o),
(95,517,c)
);
},
{
closed = 1;
nodes = (
(111,246,o),
(77,320,o),
(70,338,cs),
(65,354,o),
(60,371,o),
(63,387,cs),
(66,402,o),
(76,415,o),
(87,426,cs),
(101,441,o),
(117,455,o),
(134,466,cs),
(151,479,o),
(171,490,o),
(192,494,cs),
(206,498,o),
(221,497,o),
(235,493,cs),
(260,486,o),
(283,470,o),
(301,450,cs),
(323,425,o),
(337,394,o),
(350,363,cs),
(351,361,o),
(350,361,o),
(347,361,cs),
(298,357,o),
(249,339,o),
(207,312,cs),
(175,291,o),
(146,262,o),
(126,230,c),
(125,230,o),
(123,230,o),
(123,231,c)
);
},
{
closed = 1;
nodes = (
(323,335,o),
(350,338,o),
(377,338,cs),
(386,339,o),
(396,340,o),
(404,336,cs),
(407,335,o),
(413,338,o),
(412,334,cs),
(408,321,o),
(407,308,o),
(405,294,c),
(371,309,o),
(333,315,o),
(298,327,c)
);
},
{
closed = 1;
nodes = (
(238,64,o),
(234,68,o),
(233,73,cs),
(225,108,o),
(271,158,o),
(300,180,cs),
(335,208,o),
(379,225,o),
(422,238,cs),
(424,239,o),
(429,241,o),
(431,240,cs),
(442,234,o),
(453,247,o),
(445,257,cs),
(442,261,o),
(436,263,o),
(431,263,cs),
(428,263,o),
(425,261,o),
(425,265,cs),
(427,284,o),
(428,304,o),
(433,323,c),
(451,296,o),
(464,265,o),
(469,232,cs),
(474,204,o),
(467,173,o),
(452,148,cs),
(432,113,o),
(393,92,o),
(355,79,cs),
(329,70,o),
(302,63,o),
(275,60,cs),
(263,58,o),
(251,57,o),
(239,59,c)
);
},
{
closed = 1;
nodes = (
(207,283,o),
(231,299,o),
(257,311,c),
(260,309,o),
(269,308,o),
(269,304,cs),
(270,282,o),
(270,260,o),
(271,238,c),
(242,244,o),
(214,253,o),
(187,264,c)
);
},
{
closed = 1;
nodes = (
(310,219,o),
(307,232,o),
(296,234,c),
(295,256,o),
(295,278,o),
(295,300,c),
(330,289,o),
(366,279,o),
(402,268,c),
(403,268,o),
(402,256,o),
(401,255,c),
(367,244,o),
(333,230,o),
(302,211,c)
);
},
{
closed = 1;
nodes = (
(132,195,o),
(148,221,o),
(167,243,c),
(176,214,o),
(183,184,o),
(189,155,c),
(169,159,o),
(148,163,o),
(128,166,c)
);
},
{
closed = 1;
nodes = (
(209,176,o),
(203,204,o),
(196,231,c),
(220,222,o),
(245,214,o),
(271,211,c),
(274,210,o),
(275,201,o),
(277,199,cs),
(279,197,o),
(280,195,o),
(278,193,cs),
(260,180,o),
(244,163,o),
(231,145,c),
(226,146,o),
(220,148,o),
(214,149,c)
);
},
{
closed = 1;
nodes = (
(191,79,o),
(185,80,o),
(180,82,cs),
(157,94,o),
(135,115,o),
(129,141,c),
(150,136,o),
(170,131,o),
(191,127,cs),
(195,126,o),
(195,126,o),
(195,124,c),
(197,116,o),
(197,105,o),
(204,100,c),
(204,100,o),
(208,99,o),
(208,99,c),
(207,96,o),
(208,88,o),
(204,87,cs),
(201,86,o),
(198,84,o),
(196,80,cs),
(195,78,o),
(196,73,o),
(194,75,cs)
);
}
);
width = 1242;
}
);
note = seven;
unicode = 55;
},
{
glyphname = eight;
layers = (
{
layerId = m01;
shapes = (
{
closed = 1;
nodes = (
(367,730,o),
(354,751,o),
(341,772,cs),
(323,802,o),
(304,832,o),
(280,859,cs),
(273,867,o),
(258,884,o),
(247,882,cs),
(235,879,o),
(234,863,o),
(245,858,cs),
(251,856,o),
(264,839,o),
(267,835,cs),
(299,797,o),
(322,753,o),
(347,710,cs),
(348,708,o),
(356,696,o),
(358,694,cs),
(367,683,o),
(383,695,o),
(377,708,cs)
);
},
{
closed = 1;
nodes = (
(511,799,o),
(539,842,o),
(541,850,cs),
(544,863,o),
(526,871,o),
(519,860,cs),
(513,850,o),
(486,809,o),
(484,797,cs),
(479,779,o),
(506,772,o),
(509,791,cs)
);
},
{
closed = 1;
nodes = (
(418,751,o),
(421,814,o),
(419,826,cs),
(416,841,o),
(396,838,o),
(396,823,cs),
(396,794,o),
(396,765,o),
(396,735,cs),
(396,718,o),
(418,722,o),
(418,738,cs)
);
},
{
closed = 1;
nodes = (
(485,495,o),
(496,508,o),
(504,519,cs),
(515,534,o),
(525,551,o),
(528,569,cs),
(529,580,o),
(527,591,o),
(523,601,cs),
(519,609,o),
(514,617,o),
(509,625,c),
(512,627,o),
(530,635,o),
(533,636,cs),
(574,654,o),
(614,673,o),
(656,688,cs),
(669,693,o),
(742,719,o),
(755,726,cs),
(768,732,o),
(763,751,o),
(749,751,cs),
(743,751,o),
(719,744,o),
(714,742,cs),
(648,722,o),
(584,694,o),
(523,661,cs),
(519,659,o),
(499,649,o),
(494,648,cs),
(484,646,o),
(481,635,o),
(487,627,c),
(487,620,o),
(504,589,o),
(506,581,cs),
(509,563,o),
(488,530,o),
(474,517,cs),
(470,514,o),
(463,513,o),
(460,509,cs),
(454,501,o),
(461,490,o),
(471,492,cs)
);
},
{
closed = 1;
nodes = (
(179,558,o),
(308,570,o),
(330,573,cs),
(331,573,o),
(333,573,o),
(334,572,cs),
(341,563,o),
(354,566,o),
(354,578,c),
(358,583,o),
(358,590,o),
(353,594,cs),
(348,598,o),
(351,606,o),
(354,612,cs),
(362,624,o),
(373,635,o),
(386,641,cs),
(400,648,o),
(416,649,o),
(431,650,c),
(439,644,o),
(449,645,o),
(452,654,c),
(453,655,o),
(453,662,o),
(454,663,c),
(456,671,o),
(474,707,o),
(474,716,cs),
(474,728,o),
(459,733,o),
(452,724,cs),
(446,716,o),
(432,681,o),
(429,672,c),
(409,670,o),
(389,668,o),
(372,658,cs),
(350,645,o),
(327,621,o),
(328,596,c),
(290,592,o),
(252,588,o),
(214,584,cs),
(202,582,o),
(153,580,o),
(143,574,cs),
(132,568,o),
(136,552,o),
(148,552,cs),
(151,552,o),
(154,554,o),
(157,554,c)
);
},
{
closed = 1;
nodes = (
(294,694,o),
(255,708,o),
(240,709,cs),
(232,710,o),
(224,712,o),
(217,709,cs),
(200,700,o),
(210,676,o),
(228,684,c),
(248,684,o),
(270,677,o),
(287,666,cs),
(299,658,o),
(312,672,o),
(304,682,cs)
);
},
{
closed = 1;
nodes = (
(96,11,o),
(126,61,o),
(157,109,cs),
(219,205,o),
(284,299,o),
(350,392,cs),
(362,409,o),
(434,514,o),
(445,530,cs),
(446,531,o),
(447,533,o),
(449,533,cs),
(460,533,o),
(465,545,o),
(458,554,c),
(458,561,o),
(453,566,o),
(445,566,c),
(442,569,o),
(419,588,o),
(415,591,c),
(418,603,o),
(405,613,o),
(396,605,cs),
(392,602,o),
(389,597,o),
(386,592,cs),
(264,398,o),
(123,215,o),
(3,19,cs),
(-4,9,o),
(-11,-1,o),
(-14,-13,cs),
(-17,-23,o),
(-9,-33,o),
(1,-30,c),
(13,-38,o),
(51,-67,o),
(66,-67,cs),
(79,-66,o),
(82,-50,o),
(72,-42,c)
);
},
{
closed = 1;
nodes = (
(19,-9,o),
(14,-7,o),
(16,-4,cs),
(37,31,o),
(169,227,o),
(193,260,cs),
(263,362,o),
(336,461,o),
(400,567,c),
(404,564,o),
(423,548,o),
(426,545,c),
(407,510,o),
(277,331,o),
(253,298,cs),
(213,241,o),
(174,183,o),
(136,124,cs),
(105,75,o),
(75,25,o),
(51,-27,c),
(42,-22,o),
(32,-16,o),
(23,-11,cs)
);
},
{
closed = 1;
nodes = (
(570,569,o),
(595,573,o),
(599,573,c),
(615,577,o),
(611,599,o),
(595,598,cs),
(578,596,o),
(560,596,o),
(544,590,cs),
(532,585,o),
(535,568,o),
(547,566,cs),
(553,565,o),
(560,567,o),
(566,568,cs)
);
},
{
closed = 1;
nodes = (
(263,488,o),
(283,494,o),
(301,501,cs),
(315,506,o),
(310,526,o),
(295,523,cs),
(291,522,o),
(272,515,o),
(268,514,cs),
(257,510,o),
(234,499,o),
(231,487,cs),
(229,475,o),
(241,464,o),
(250,474,cs)
);
},
{
closed = 1;
nodes = (
(617,439,o),
(576,468,o),
(534,496,cs),
(531,498,o),
(522,503,o),
(520,506,cs),
(515,517,o),
(494,513,o),
(494,500,cs),
(493,489,o),
(515,478,o),
(524,471,cs),
(557,446,o),
(591,422,o),
(623,397,cs),
(627,394,o),
(638,384,o),
(642,383,cs),
(654,380,o),
(662,395,o),
(653,403,cs)
);
},
{
closed = 1;
nodes = (
(468,435,o),
(464,455,o),
(466,459,cs),
(471,471,o),
(458,482,o),
(448,475,cs),
(438,467,o),
(443,442,o),
(445,431,cs),
(446,419,o),
(464,419,o),
(467,430,cs)
);
},
{
closed = 1;
nodes = (
(482,303,o),
(483,343,o),
(481,351,cs),
(478,366,o),
(457,364,o),
(456,348,cs),
(456,343,o),
(458,315,o),
(458,310,c),
(459,306,o),
(459,291,o),
(461,287,cs),
(467,275,o),
(483,281,o),
(483,295,cs)
);
}
);
width = 706;
}
);
note = eight;
unicode = 56;
},
{
glyphname = nine;
layers = (
{
layerId = m01;
shapes = (
{
closed = 1;
nodes = (
(289,-7,o),
(293,-9,o),
(297,-9,cs),
(332,-11,o),
(367,7,o),
(395,27,cs),
(419,44,o),
(439,66,o),
(457,89,cs),
(481,117,o),
(503,147,o),
(525,177,cs),
(591,265,o),
(662,350,o),
(732,435,cs),
(769,479,o),
(809,523,o),
(832,577,cs),
(839,593,o),
(845,612,o),
(842,629,cs),
(841,639,o),
(835,648,o),
(828,655,c),
(822,683,o),
(801,703,o),
(771,709,cs),
(746,713,o),
(720,707,o),
(696,701,cs),
(644,686,o),
(594,670,o),
(544,651,cs),
(462,619,o),
(382,582,o),
(299,555,cs),
(248,539,o),
(195,528,o),
(143,517,cs),
(111,509,o),
(76,502,o),
(53,480,cs),
(40,467,o),
(27,439,o),
(35,422,c),
(22,416,o),
(33,397,o),
(39,383,cs),
(61,326,o),
(88,272,o),
(117,218,cs),
(143,168,o),
(170,118,o),
(203,72,cs),
(221,46,o),
(243,19,o),
(272,5,c),
(270,-3,o),
(277,-12,o),
(285,-9,cs)
);
},
{
closed = 1;
nodes = (
(701,486,o),
(689,495,o),
(678,503,c),
(691,516,o),
(703,530,o),
(716,544,cs),
(730,560,o),
(743,577,o),
(750,597,cs),
(755,611,o),
(741,623,o),
(729,614,cs),
(725,610,o),
(715,592,o),
(712,588,cs),
(697,562,o),
(677,540,o),
(657,518,c),
(646,526,o),
(635,535,o),
(628,546,cs),
(614,566,o),
(606,588,o),
(596,610,cs),
(594,614,o),
(584,635,o),
(583,639,c),
(631,656,o),
(681,672,o),
(732,680,cs),
(748,682,o),
(765,683,o),
(779,676,cs),
(786,673,o),
(792,669,o),
(797,663,c),
(794,658,o),
(792,650,o),
(797,645,cs),
(798,644,o),
(804,641,o),
(805,639,c),
(805,635,o),
(807,631,o),
(809,629,c),
(811,628,o),
(813,628,o),
(813,626,cs),
(813,622,o),
(812,619,o),
(812,615,c),
(807,590,o),
(795,566,o),
(781,544,cs),
(764,518,o),
(745,494,o),
(726,471,c),
(723,475,o),
(718,477,o),
(713,479,cs)
);
},
{
closed = 1;
nodes = (
(295,365,o),
(260,433,o),
(244,503,cs),
(243,508,o),
(241,514,o),
(246,515,cs),
(355,542,o),
(456,592,o),
(561,631,c),
(568,614,o),
(602,542,o),
(613,528,cs),
(621,518,o),
(631,510,o),
(642,502,c),
(611,469,o),
(430,273,o),
(399,242,c),
(377,261,o),
(358,284,o),
(340,307,cs)
);
},
{
closed = 1;
nodes = (
(301,25,o),
(298,25,o),
(294,25,cs),
(267,25,o),
(231,75,o),
(216,97,cs),
(176,156,o),
(143,219,o),
(111,282,cs),
(91,321,o),
(72,360,o),
(56,401,cs),
(54,405,o),
(53,410,o),
(57,412,cs),
(63,415,o),
(65,423,o),
(61,428,cs),
(60,429,o),
(58,430,o),
(57,432,cs),
(55,435,o),
(57,444,o),
(59,448,cs),
(64,461,o),
(77,471,o),
(90,477,cs),
(104,484,o),
(120,488,o),
(136,491,cs),
(164,498,o),
(193,503,o),
(221,510,c),
(222,502,o),
(224,494,o),
(226,486,cs),
(252,388,o),
(308,295,o),
(383,226,c),
(365,208,o),
(306,147,o),
(282,141,cs),
(271,139,o),
(256,150,o),
(251,160,cs),
(249,164,o),
(249,169,o),
(247,173,cs),
(242,183,o),
(228,181,o),
(226,171,c),
(224,166,o),
(230,152,o),
(233,147,cs),
(243,130,o),
(266,116,o),
(286,119,cs),
(314,123,o),
(379,188,o),
(400,208,cs),
(402,210,o),
(401,210,o),
(404,208,cs),
(427,193,o),
(453,184,o),
(477,171,cs),
(480,169,o),
(487,170,o),
(485,167,cs),
(454,124,o),
(421,81,o),
(379,48,cs),
(359,33,o),
(335,21,o),
(310,16,c),
(309,19,o),
(307,22,o),
(304,24,c)
);
},
{
closed = 1;
nodes = (
(482,194,o),
(426,220,o),
(418,226,c),
(502,310,o),
(581,399,o),
(663,486,c),
(671,481,o),
(703,456,o),
(713,454,c),
(641,363,o),
(566,273,o),
(496,181,cs),
(493,177,o),
(494,185,o),
(490,188,cs)
);
}
);
width = 864;
}
);
note = nine;
unicode = 57;
},
{
glyphname = A;
kernRight = A;
layers = (
{
layerId = m01;
shapes = (
{
closed = 1;
nodes = (
(54,-36,o),
(54,-34,o),
(55,-32,cs),
(64,-18,o),
(123,39,o),
(135,52,cs),
(195,118,o),
(254,185,o),
(314,251,c),
(315,253,o),
(316,254,o),
(317,252,cs),
(329,232,o),
(342,211,o),
(361,197,cs),
(374,188,o),
(391,183,o),
(407,182,cs),
(437,180,o),
(468,184,o),
(497,192,cs),
(542,204,o),
(582,232,o),
(623,256,cs),
(663,280,o),
(703,305,o),
(736,338,cs),
(757,359,o),
(777,384,o),
(784,413,cs),
(791,439,o),
(783,468,o),
(772,492,cs),
(756,527,o),
(736,560,o),
(708,587,cs),
(696,599,o),
(681,608,o),
(665,613,cs),
(663,614,o),
(662,614,o),
(663,616,cs),
(679,639,o),
(691,667,o),
(694,695,cs),
(694,697,o),
(694,698,o),
(695,699,c),
(703,703,o),
(703,714,o),
(695,718,cs),
(691,720,o),
(668,725,o),
(664,726,cs),
(655,729,o),
(647,725,o),
(644,716,cs),
(639,696,o),
(634,677,o),
(623,660,c),
(609,699,o),
(585,737,o),
(552,761,cs),
(519,785,o),
(474,797,o),
(434,791,cs),
(410,787,o),
(386,777,o),
(364,764,cs),
(319,737,o),
(281,696,o),
(256,651,cs),
(234,609,o),
(216,565,o),
(201,520,cs),
(189,486,o),
(179,449,o),
(184,413,cs),
(188,391,o),
(198,372,o),
(216,358,cs),
(232,345,o),
(251,337,o),
(269,327,cs),
(272,325,o),
(272,325,o),
(270,323,cs),
(184,237,o),
(98,149,o),
(19,57,cs),
(12,48,o),
(4,39,o),
(1,28,cs),
(-1,21,o),
(1,13,o),
(2,5,cs),
(3,-9,o),
(5,-26,o),
(16,-35,c),
(20,-40,o),
(28,-41,o),
(34,-40,c),
(39,-46,o),
(49,-45,o),
(53,-38,cs)
);
},
{
closed = 1;
nodes = (
(359,226,o),
(346,250,o),
(333,271,c),
(332,272,o),
(336,274,o),
(335,275,c),
(336,275,o),
(336,276,o),
(338,275,c),
(341,271,o),
(347,270,o),
(351,271,cs),
(361,273,o),
(363,287,o),
(353,292,cs),
(351,293,o),
(346,301,o),
(345,303,c),
(325,323,o),
(300,338,o),
(275,352,cs),
(257,362,o),
(238,370,o),
(225,385,cs),
(215,396,o),
(211,411,o),
(210,426,cs),
(208,453,o),
(215,481,o),
(224,508,cs),
(234,542,o),
(248,574,o),
(262,607,cs),
(286,659,o),
(324,710,o),
(373,740,cs),
(396,754,o),
(422,767,o),
(450,769,cs),
(493,771,o),
(540,745,o),
(566,711,cs),
(583,690,o),
(597,667,o),
(605,642,cs),
(606,639,o),
(605,635,o),
(605,632,cs),
(606,628,o),
(610,625,o),
(614,621,c),
(608,621,o),
(602,621,o),
(598,618,cs),
(591,612,o),
(592,602,o),
(600,598,cs),
(605,595,o),
(630,593,o),
(636,593,c),
(649,591,o),
(662,588,o),
(674,582,cs),
(689,574,o),
(701,561,o),
(712,548,cs),
(728,528,o),
(741,505,o),
(750,480,cs),
(756,465,o),
(761,450,o),
(761,434,cs),
(760,368,o),
(632,291,o),
(576,255,cs),
(559,245,o),
(542,234,o),
(524,226,cs),
(490,210,o),
(411,194,o),
(380,213,cs)
);
},
{
closed = 1;
nodes = (
(348,563,o),
(363,589,o),
(371,598,cs),
(387,617,o),
(407,632,o),
(427,646,cs),
(439,655,o),
(451,663,o),
(466,666,cs),
(469,667,o),
(473,668,o),
(475,670,cs),
(479,673,o),
(480,680,o),
(478,684,c),
(490,677,o),
(503,689,o),
(493,699,cs),
(489,704,o),
(464,727,o),
(459,731,cs),
(455,734,o),
(449,733,o),
(445,732,cs),
(435,731,o),
(425,730,o),
(416,726,cs),
(381,714,o),
(348,690,o),
(327,661,cs),
(318,649,o),
(294,612,o),
(294,598,cs),
(293,589,o),
(298,580,o),
(303,572,cs),
(308,565,o),
(323,547,o),
(331,545,c),
(337,533,o),
(353,539,o),
(351,551,cs)
);
},
{
closed = 1;
nodes = (
(315,599,o),
(322,613,o),
(324,618,c),
(334,635,o),
(346,652,o),
(360,666,cs),
(376,682,o),
(426,711,o),
(449,710,c),
(452,708,o),
(470,691,o),
(473,689,c),
(456,693,o),
(419,669,o),
(404,659,cs),
(385,645,o),
(367,630,o),
(353,612,cs),
(343,600,o),
(336,586,o),
(331,571,c),
(328,575,o),
(317,589,o),
(316,594,cs)
);
},
{
closed = 1;
nodes = (
(631,625,o),
(632,630,o),
(631,634,c),
(640,645,o),
(648,658,o),
(653,672,cs),
(658,682,o),
(660,694,o),
(664,705,c),
(664,703,o),
(673,703,o),
(673,702,cs),
(670,672,o),
(656,643,o),
(639,619,c),
(633,620,o),
(624,618,o),
(628,622,cs)
);
},
{
closed = 1;
nodes = (
(42,48,o),
(42,50,o),
(43,51,cs),
(120,141,o),
(206,224,o),
(287,310,c),
(293,298,o),
(298,286,o),
(304,274,c),
(277,245,o),
(124,70,o),
(96,42,cs),
(91,37,o),
(63,10,o),
(58,5,c),
(55,19,o),
(49,33,o),
(43,46,cs)
);
},
{
closed = 1;
nodes = (
(321,294,o),
(321,293,o),
(321,293,c),
(321,293,o),
(320,294,o),
(320,294,c)
);
},
{
closed = 1;
nodes = (
(26,-6,o),
(25,4,o),
(24,14,cs),
(23,20,o),
(22,26,o),
(26,31,c),
(30,20,o),
(35,9,o),
(36,-2,cs),
(37,-9,o),
(32,-22,o),
(29,-15,cs)
);
}
);
width = 801;
}
);
note = A;
unicode = (65,192,193,194,195,196,197);
},
{
glyphname = B;
layers = (
{
layerId = m01;
shapes = (
{
closed = 1;
nodes = (
(899,153,o),
(948,188,o),
(976,234,cs),
(1003,280,o),
(1010,337,o),
(1008,390,c),
(1012,379,o),
(1021,369,o),
(1031,364,cs),
(1058,353,o),
(1094,355,o),
(1117,372,cs),
(1132,382,o),
(1142,398,o),
(1147,414,cs),
(1160,451,o),
(1162,491,o),
(1165,530,cs),
(1169,585,o),
(1173,640,o),
(1166,694,cs),
(1161,729,o),
(1151,764,o),
(1133,794,cs),
(1124,810,o),
(1112,825,o),
(1097,836,cs),
(1064,858,o),
(1020,861,o),
(981,856,cs),
(962,854,o),
(941,847,o),
(929,833,cs),
(913,815,o),
(910,789,o),
(908,766,cs),
(902,697,o),
(911,628,o),
(926,561,c),
(887,584,o),
(840,598,o),
(795,599,cs),
(782,600,o),
(768,597,o),
(756,591,cs),
(747,587,o),
(740,579,o),
(733,573,cs),
(730,571,o),
(730,571,o),
(729,573,cs),
(720,596,o),
(704,617,o),
(684,630,cs),
(666,642,o),
(645,649,o),
(624,652,cs),
(608,654,o),
(591,656,o),
(576,650,cs),
(566,646,o),
(558,640,o),
(550,634,c),
(540,669,o),
(525,707,o),
(498,732,cs),
(453,775,o),
(315,786,o),
(254,773,cs),
(246,771,o),
(215,760,o),
(208,755,cs),
(204,752,o),
(199,751,o),
(197,747,cs),
(194,740,o),
(190,713,o),
(191,705,c),
(191,682,o),
(204,663,o),
(224,655,cs),
(226,654,o),
(226,653,o),
(224,651,c),
(193,600,o),
(166,546,o),
(139,493,cs),
(135,484,o),
(115,445,o),
(113,436,cs),
(112,433,o),
(116,427,o),
(113,426,c),
(94,423,o),
(75,421,o),
(59,413,cs),
(43,406,o),
(30,393,o),
(23,377,cs),
(6,333,o),
(17,274,o),
(47,237,cs),
(81,195,o),
(132,163,o),
(185,151,cs),
(206,146,o),
(228,146,o),
(249,148,cs),
(286,151,o),
(322,166,o),
(352,188,cs),
(386,212,o),
(414,246,o),
(432,284,c),
(442,269,o),
(457,255,o),
(475,247,cs),
(495,238,o),
(518,237,o),
(539,239,cs),
(581,243,o),
(622,261,o),
(654,287,c),
(657,259,o),
(663,229,o),
(675,203,cs),
(692,167,o),
(730,137,o),
(770,129,cs),
(796,123,o),
(823,128,o),
(848,136,cs)
);
},
{
closed = 1;
nodes = (
(1033,397,o),
(1031,406,o),
(1028,413,cs),
(1024,422,o),
(1012,422,o),
(1006,413,c),
(1001,453,o),
(990,494,o),
(965,525,c),
(964,527,o),
(961,529,o),
(962,531,c),
(963,537,o),
(957,543,o),
(955,549,cs),
(952,558,o),
(944,606,o),
(942,615,cs),
(934,665,o),
(931,716,o),
(936,766,cs),
(938,784,o),
(940,805,o),
(953,816,cs),
(971,832,o),
(1026,831,o),
(1049,826,cs),
(1066,822,o),
(1083,813,o),
(1095,800,cs),
(1117,774,o),
(1129,739,o),
(1135,705,cs),
(1144,652,o),
(1140,597,o),
(1137,543,cs),
(1134,509,o),
(1130,420,o),
(1104,398,cs),
(1089,386,o),
(1056,385,o),
(1040,394,cs)
);
},
{
closed = 1;
nodes = (
(1127,579,o),
(1122,628,o),
(1106,675,cs),
(1091,721,o),
(1063,764,o),
(1027,795,cs),
(1019,802,o),
(1009,809,o),
(999,809,cs),
(986,809,o),
(979,797,o),
(982,785,cs),
(985,776,o),
(997,775,o),
(1002,783,c),
(1003,786,o),
(1005,783,o),
(1008,782,c),
(1020,772,o),
(1030,760,o),
(1040,748,cs),
(1076,703,o),
(1096,643,o),
(1100,586,cs),
(1101,568,o),
(1099,551,o),
(1098,534,cs),
(1096,518,o),
(1118,516,o),
(1120,531,cs)
);
},
{
closed = 1;
nodes = (
(67,251,o),
(45,284,o),
(43,319,cs),
(41,336,o),
(42,356,o),
(50,371,cs),
(54,380,o),
(62,386,o),
(70,390,cs),
(86,398,o),
(103,401,o),
(121,402,cs),
(131,403,o),
(140,410,o),
(137,420,cs),
(136,422,o),
(140,425,o),
(141,428,c),
(144,433,o),
(160,469,o),
(163,475,cs),
(191,533,o),
(218,591,o),
(252,645,c),
(252,646,o),
(253,648,o),
(254,648,cs),
(265,651,o),
(266,666,o),
(256,670,cs),
(248,674,o),
(239,676,o),
(230,680,cs),
(222,684,o),
(217,693,o),
(216,701,cs),
(214,710,o),
(215,720,o),
(216,729,c),
(217,731,o),
(221,733,o),
(223,735,cs),
(226,737,o),
(244,743,o),
(248,745,c),
(278,754,o),
(311,754,o),
(343,752,cs),
(373,750,o),
(404,747,o),
(434,739,cs),
(453,733,o),
(472,725,o),
(486,711,cs),
(508,686,o),
(520,653,o),
(528,621,cs),
(532,603,o),
(536,582,o),
(526,566,cs),
(513,545,o),
(439,505,o),
(417,495,cs),
(413,493,o),
(409,498,o),
(405,499,cs),
(391,502,o),
(384,483,o),
(397,476,cs),
(399,475,o),
(401,470,o),
(402,468,cs),
(422,425,o),
(429,371,o),
(414,325,cs),
(405,295,o),
(386,266,o),
(365,242,cs),
(332,207,o),
(284,181,o),
(237,179,cs),
(186,176,o),
(133,197,o),
(94,229,cs)
);
},
{
closed = 1;
nodes = (
(498,631,o),
(494,652,o),
(482,668,cs),
(471,682,o),
(455,691,o),
(440,698,cs),
(420,707,o),
(340,738,o),
(319,738,cs),
(307,739,o),
(278,737,o),
(271,728,cs),
(265,721,o),
(270,710,o),
(279,710,cs),
(283,710,o),
(286,713,o),
(289,714,cs),
(302,717,o),
(316,717,o),
(329,715,cs),
(356,709,o),
(441,678,o),
(460,657,cs),
(472,645,o),
(474,625,o),
(477,608,cs),
(480,592,o),
(502,595,o),
(500,611,cs)
);
},
{
closed = 1;
nodes = (
(374,534,o),
(397,558,o),
(392,582,cs),
(388,596,o),
(374,606,o),
(362,613,cs),
(351,620,o),
(339,627,o),
(326,627,cs),
(317,627,o),
(312,617,o),
(317,608,c),
(306,597,o),
(301,563,o),
(304,548,cs),
(308,527,o),
(331,517,o),
(351,525,cs)
);
},
{
closed = 1;
nodes = (
(332,593,o),
(340,598,o),
(343,597,c),
(351,592,o),
(369,583,o),
(369,574,cs),
(369,562,o),
(353,551,o),
(342,547,cs),
(322,540,o),
(325,570,o),
(331,590,cs)
);
},
{
closed = 1;
nodes = (
(394,330,o),
(398,352,o),
(396,373,cs),
(395,395,o),
(387,417,o),
(379,439,cs),
(378,442,o),
(373,456,o),
(371,459,cs),
(364,467,o),
(350,463,o),
(350,452,cs),
(350,448,o),
(356,435,o),
(358,432,c),
(364,413,o),
(371,394,o),
(373,374,cs),
(375,353,o),
(370,333,o),
(368,312,cs),
(366,297,o),
(387,294,o),
(390,309,cs)
);
},
{
closed = 1;
nodes = (
(303,389,o),
(300,400,o),
(295,410,c),
(298,422,o),
(286,430,o),
(274,432,cs),
(271,432,o),
(265,428,o),
(263,427,cs),
(244,419,o),
(232,397,o),
(226,377,cs),
(224,367,o),
(225,355,o),
(232,346,cs),
(254,317,o),
(295,342,o),
(301,378,cs)
);
},
{
closed = 1;
nodes = (
(249,366,o),
(250,371,o),
(252,375,c),
(254,383,o),
(265,401,o),
(272,405,c),
(276,398,o),
(280,390,o),
(279,382,cs),
(276,367,o),
(258,348,o),
(251,362,cs)
);
},
{
closed = 1;
nodes = (
(470,282,o),
(460,294,o),
(453,307,cs),
(451,311,o),
(445,321,o),
(446,325,cs),
(456,374,o),
(448,427,o),
(429,473,c),
(455,484,o),
(480,497,o),
(503,512,cs),
(522,524,o),
(543,539,o),
(552,559,cs),
(558,574,o),
(558,591,o),
(556,606,c),
(559,611,o),
(575,624,o),
(580,627,c),
(591,631,o),
(604,631,o),
(616,630,cs),
(643,627,o),
(672,616,o),
(690,595,cs),
(711,570,o),
(719,533,o),
(719,500,cs),
(721,443,o),
(704,383,o),
(670,338,cs),
(636,295,o),
(585,268,o),
(531,266,cs),
(515,265,o),
(497,268,o),
(483,275,cs)
);
},
{
closed = 1;
nodes = (
(691,473,o),
(690,504,o),
(680,532,cs),
(672,553,o),
(656,571,o),
(640,587,cs),
(633,594,o),
(611,608,o),
(601,608,cs),
(591,608,o),
(587,595,o),
(595,589,cs),
(603,583,o),
(613,581,o),
(621,574,cs),
(641,558,o),
(658,535,o),
(663,510,cs),
(668,489,o),
(669,468,o),
(670,447,cs),
(670,446,o),
(671,439,o),
(671,438,cs),
(674,423,o),
(693,428,o),
(692,443,cs)
);
},
{
closed = 1;
nodes = (
(596,391,o),
(601,411,o),
(597,428,cs),
(592,450,o),
(572,467,o),
(549,470,cs),
(532,472,o),
(517,452,o),
(512,436,cs),
(507,423,o),
(502,410,o),
(503,396,cs),
(503,352,o),
(560,341,o),
(585,377,cs)
);
},
{
closed = 1;
nodes = (
(529,390,o),
(529,396,o),
(529,402,cs),
(530,411,o),
(537,436,o),
(543,443,c),
(546,445,o),
(549,443,o),
(552,442,cs),
(554,441,o),
(556,442,o),
(558,441,cs),
(577,430,o),
(577,405,o),
(563,389,cs),
(555,381,o),
(541,378,o),
(533,386,cs)
);
},
{
closed = 1;
nodes = (
(741,168,o),
(718,187,o),
(704,209,cs),
(686,238,o),
(682,274,o),
(677,308,c),
(697,331,o),
(713,359,o),
(723,388,cs),
(741,437,o),
(748,494,o),
(737,546,c),
(741,548,o),
(765,561,o),
(769,563,cs),
(780,567,o),
(793,566,o),
(805,565,cs),
(851,562,o),
(902,546,o),
(935,514,cs),
(960,489,o),
(972,452,o),
(977,417,cs),
(985,370,o),
(983,318,o),
(964,273,cs),
(953,245,o),
(934,219,o),
(910,201,cs),
(880,178,o),
(843,161,o),
(806,156,cs),
(793,154,o),
(778,156,o),
(765,160,cs)
);
},
{
closed = 1;
nodes = (
(935,280,o),
(938,285,o),
(939,290,c),
(945,306,o),
(950,322,o),
(953,339,cs),
(956,364,o),
(955,391,o),
(951,416,cs),
(947,440,o),
(939,465,o),
(923,484,cs),
(905,505,o),
(879,519,o),
(854,532,cs),
(836,542,o),
(805,543,o),
(810,523,cs),
(812,514,o),
(822,510,o),
(829,516,c),
(853,512,o),
(900,477,o),
(911,456,cs),
(928,426,o),
(931,389,o),
(929,356,cs),
(927,334,o),
(919,314,o),
(914,292,cs),
(912,283,o),
(921,274,o),
(930,278,cs)
);
},
{
closed = 1;
nodes = (
(855,288,o),
(867,311,o),
(866,334,cs),
(865,345,o),
(860,358,o),
(851,365,c),
(850,367,o),
(843,369,o),
(843,370,c),
(838,380,o),
(821,383,o),
(812,378,cs),
(799,371,o),
(791,356,o),
(787,342,cs),
(781,326,o),
(777,307,o),
(784,292,cs),
(792,272,o),
(816,266,o),
(835,277,cs)
);
},
{
closed = 1;
nodes = (
(810,334,o),
(817,353,o),
(823,357,cs),
(825,358,o),
(826,354,o),
(827,352,c),
(829,350,o),
(833,349,o),
(835,346,cs),
(838,343,o),
(840,338,o),
(840,334,c),
(843,320,o),
(832,303,o),
(819,298,cs),
(805,293,o),
(805,313,o),
(808,327,cs)
);
},
{
closed = 1;
nodes = (
(1142,272,o),
(1130,279,o),
(1117,283,cs),
(1113,284,o),
(1110,288,o),
(1105,290,c),
(1095,296,o),
(1080,290,o),
(1071,282,cs),
(1055,268,o),
(1044,248,o),
(1037,228,cs),
(1032,212,o),
(1027,194,o),
(1028,177,cs),
(1029,165,o),
(1033,153,o),
(1040,144,cs),
(1047,137,o),
(1055,132,o),
(1064,130,cs),
(1144,105,o),
(1207,200,o),
(1151,262,cs)
);
},
{
closed = 1;
nodes = (
(1054,164,o),
(1056,189,o),
(1059,205,cs),
(1063,222,o),
(1069,239,o),
(1079,252,cs),
(1081,255,o),
(1083,259,o),
(1085,257,c),
(1087,256,o),
(1092,254,o),
(1094,254,cs),
(1141,259,o),
(1161,196,o),
(1124,166,cs),
(1109,154,o),
(1086,151,o),
(1069,158,cs)
);
},
{
closed = 1;
nodes = (
(1119,217,o),
(1117,225,o),
(1112,231,c),
(1107,235,o),
(1102,240,o),
(1096,241,cs),
(1084,244,o),
(1077,228,o),
(1086,221,cs),
(1089,219,o),
(1093,218,o),
(1095,215,cs),
(1096,214,o),
(1099,203,o),
(1100,201,cs),
(1105,189,o),
(1124,196,o),
(1121,209,cs)
);
}
);
width = 1210;
}
);
note = B;
unicode = 66;
},
{
glyphname = C;
kernRight = C;
layers = (
{
layerId = m01;
shapes = (
{
closed = 1;
nodes = (
(658,-58,o),
(662,-55,o),
(666,-56,cs),
(674,-58,o),
(679,-49,o),
(678,-40,cs),
(664,32,o),
(652,106,o),
(655,180,cs),
(655,190,o),
(656,225,o),
(661,233,cs),
(663,236,o),
(663,240,o),
(663,244,cs),
(667,272,o),
(671,301,o),
(679,329,cs),
(687,355,o),
(699,380,o),
(717,399,cs),
(755,438,o),
(811,453,o),
(858,482,cs),
(886,500,o),
(913,522,o),
(930,551,cs),
(954,590,o),
(954,643,o),
(942,686,cs),
(930,731,o),
(904,774,o),
(869,805,cs),
(848,824,o),
(818,840,o),
(790,838,cs),
(778,837,o),
(761,830,o),
(758,818,cs),
(756,806,o),
(760,792,o),
(767,780,cs),
(788,741,o),
(819,706,o),
(832,664,cs),
(839,644,o),
(839,620,o),
(832,600,cs),
(828,590,o),
(821,580,o),
(812,574,cs),
(798,562,o),
(779,557,o),
(761,554,cs),
(735,548,o),
(708,545,o),
(683,536,cs),
(657,526,o),
(633,508,o),
(620,484,c),
(618,500,o),
(605,573,o),
(599,588,cs),
(595,600,o),
(585,621,o),
(572,621,cs),
(562,621,o),
(558,608,o),
(567,602,cs),
(569,601,o),
(573,594,o),
(574,592,cs),
(588,566,o),
(599,457,o),
(600,427,cs),
(600,424,o),
(598,412,o),
(597,409,c),
(596,399,o),
(594,363,o),
(597,354,cs),
(604,337,o),
(633,350,o),
(623,365,cs),
(622,366,o),
(622,366,o),
(621,367,c),
(623,386,o),
(623,405,o),
(627,424,cs),
(632,449,o),
(642,476,o),
(661,493,cs),
(674,505,o),
(692,512,o),
(709,517,cs),
(746,528,o),
(787,529,o),
(819,550,cs),
(836,561,o),
(850,579,o),
(855,599,cs),
(862,620,o),
(861,644,o),
(855,666,cs),
(846,697,o),
(828,725,o),
(810,753,cs),
(800,768,o),
(788,783,o),
(781,801,cs),
(780,805,o),
(777,812,o),
(782,814,cs),
(799,823,o),
(831,807,o),
(845,795,cs),
(886,761,o),
(915,708,o),
(922,656,cs),
(926,633,o),
(925,608,o),
(918,585,cs),
(907,553,o),
(881,527,o),
(853,509,cs),
(810,481,o),
(760,465,o),
(719,433,cs),
(701,420,o),
(686,403,o),
(675,384,cs),
(657,353,o),
(649,316,o),
(643,280,cs),
(641,271,o),
(634,242,o),
(638,234,c),
(631,192,o),
(632,149,o),
(635,107,cs),
(638,59,o),
(646,12,o),
(655,-35,c),
(631,-45,o),
(605,-51,o),
(580,-56,c),
(574,-58,o),
(552,-62,o),
(546,-61,cs),
(541,-61,o),
(524,-54,o),
(520,-51,cs),
(518,-50,o),
(515,-48,o),
(515,-45,cs),
(514,-36,o),
(521,-13,o),
(528,-6,cs),
(540,7,o),
(562,8,o),
(574,22,cs),
(583,33,o),
(582,50,o),
(581,64,cs),
(576,133,o),
(570,202,o),
(561,271,cs),
(556,307,o),
(551,343,o),
(542,377,cs),
(540,386,o),
(532,409,o),
(525,413,cs),
(516,419,o),
(505,412,o),
(507,402,cs),
(508,399,o),
(511,396,o),
(513,393,cs),
(520,378,o),
(523,361,o),
(527,345,cs),
(545,250,o),
(556,153,o),
(560,56,cs),
(560,53,o),
(561,42,o),
(560,39,cs),
(557,32,o),
(536,25,o),
(530,21,c),
(521,17,o),
(513,11,o),
(508,3,cs),
(502,-4,o),
(499,-13,o),
(496,-22,c),
(483,-24,o),
(453,-31,o),
(445,-21,cs),
(438,-13,o),
(431,7,o),
(434,17,cs),
(436,25,o),
(445,30,o),
(453,33,cs),
(460,36,o),
(468,37,o),
(475,38,cs),
(480,39,o),
(485,43,o),
(487,48,c),
(492,47,o),
(498,49,o),
(500,53,cs),
(502,58,o),
(500,77,o),
(500,82,cs),
(492,186,o),
(469,290,o),
(440,390,c),
(447,389,o),
(453,386,o),
(459,384,cs),
(470,380,o),
(478,396,o),
(469,403,cs),
(465,406,o),
(446,411,o),
(440,412,cs),
(425,415,o),
(407,411,o),
(395,402,cs),
(384,394,o),
(376,382,o),
(369,371,cs),
(356,347,o),
(348,320,o),
(346,293,cs),
(344,271,o),
(344,249,o),
(343,227,cs),
(343,222,o),
(343,215,o),
(347,212,c),
(341,167,o),
(336,20,o),
(306,-14,cs),
(302,-19,o),
(296,-23,o),
(290,-26,cs),
(270,-35,o),
(248,-40,o),
(226,-41,cs),
(224,-41,o),
(217,-41,o),
(215,-39,cs),
(211,-36,o),
(209,-23,o),
(210,-18,c),
(210,2,o),
(220,18,o),
(237,24,cs),
(242,26,o),
(245,32,o),
(250,31,cs),
(264,27,o),
(266,48,o),
(266,62,cs),
(267,82,o),
(273,199,o),
(274,218,cs),
(274,240,o),
(274,263,o),
(265,283,cs),
(257,298,o),
(243,310,o),
(229,320,cs),
(222,325,o),
(215,331,o),
(207,331,cs),
(194,331,o),
(192,313,o),
(204,309,c),
(210,308,o),
(227,294,o),
(231,291,c),
(213,261,o),
(208,155,o),
(211,121,cs),
(213,93,o),
(219,66,o),
(222,39,c),
(210,31,o),
(200,20,o),
(195,7,cs),
(194,5,o),
(189,7,o),
(186,7,cs),
(174,6,o),
(111,2,o),
(99,2,cs),
(94,2,o),
(82,3,o),
(80,8,c),
(76,14,o),
(76,24,o),
(80,30,cs),
(88,43,o),
(135,62,o),
(148,69,cs),
(151,71,o),
(156,69,o),
(159,72,cs),
(162,74,o),
(163,80,o),
(163,85,c),
(170,138,o),
(172,192,o),
(170,246,cs),
(170,261,o),
(169,277,o),
(166,292,c),
(169,297,o),
(165,304,o),
(162,309,cs),
(158,317,o),
(151,325,o),
(142,328,cs),
(134,331,o),
(95,330,o),
(87,331,cs),
(77,331,o),
(66,332,o),
(59,340,cs),
(53,347,o),
(49,376,o),
(48,386,cs),
(45,425,o),
(48,464,o),
(51,504,cs),
(51,510,o),
(52,550,o),
(53,556,c),
(58,551,o),
(84,521,o),
(89,516,cs),
(104,503,o),
(129,504,o),
(150,505,c),
(154,498,o),
(163,497,o),
(166,504,cs),
(167,507,o),
(171,528,o),
(172,531,cs),
(177,552,o),
(184,572,o),
(193,591,c),
(198,582,o),
(213,531,o),
(216,521,c),
(217,520,o),
(216,518,o),
(216,516,c),
(213,505,o),
(228,498,o),
(237,506,cs),
(245,512,o),
(259,546,o),
(263,554,cs),
(285,595,o),
(312,633,o),
(339,671,cs),
(349,684,o),
(332,697,o),
(322,684,cs),
(287,637,o),
(254,588,o),
(229,536,c),
(226,544,o),
(212,591,o),
(209,599,cs),
(205,608,o),
(198,618,o),
(189,613,cs),
(171,601,o),
(158,543,o),
(153,521,c),
(144,521,o),
(111,520,o),
(103,525,cs),
(95,530,o),
(64,571,o),
(55,575,cs),
(50,577,o),
(43,577,o),
(41,572,cs),
(36,561,o),
(35,514,o),
(35,503,cs),
(33,462,o),
(29,421,o),
(32,381,cs),
(33,361,o),
(35,338,o),
(50,325,cs),
(64,311,o),
(89,313,o),
(109,313,cs),
(114,313,o),
(133,314,o),
(137,312,cs),
(140,311,o),
(145,306,o),
(146,303,cs),
(152,274,o),
(153,243,o),
(153,213,cs),
(153,171,o),
(150,130,o),
(145,89,c),
(127,78,o),
(108,72,o),
(90,62,cs),
(80,56,o),
(70,49,o),
(65,40,cs),
(53,18,o),
(61,-11,o),
(85,-16,cs),
(96,-18,o),
(108,-17,o),
(120,-17,cs),
(143,-16,o),
(165,-14,o),
(188,-10,cs),
(190,-10,o),
(190,-11,o),
(190,-13,cs),
(190,-26,o),
(191,-41,o),
(199,-51,cs),
(205,-60,o),
(218,-62,o),
(229,-61,cs),
(253,-60,o),
(279,-55,o),
(301,-44,cs),
(313,-38,o),
(322,-30,o),
(329,-18,cs),
(341,1,o),
(345,23,o),
(349,45,cs),
(353,69,o),
(365,194,o),
(366,219,cs),
(366,223,o),
(364,227,o),
(364,231,cs),
(365,259,o),
(364,288,o),
(370,315,cs),
(375,338,o),
(384,361,o),
(401,378,cs),
(405,383,o),
(412,387,o),
(418,390,c),
(440,313,o),
(459,235,o),
(471,155,cs),
(475,125,o),
(480,93,o),
(480,62,c),
(476,63,o),
(462,59,o),
(458,58,cs),
(440,54,o),
(420,43,o),
(413,25,cs),
(406,6,o),
(415,-18,o),
(427,-35,cs),
(432,-42,o),
(441,-46,o),
(449,-48,cs),
(462,-51,o),
(477,-48,o),
(491,-46,c),
(494,-45,o),
(494,-49,o),
(495,-52,cs),
(496,-58,o),
(499,-64,o),
(503,-68,c),
(508,-71,o),
(530,-81,o),
(536,-82,c),
(561,-90,o),
(632,-70,o),
(655,-59,cs)
);
},
{
closed = 1;
nodes = (
(237,82,o),
(232,111,o),
(231,141,cs),
(230,185,o),
(234,229,o),
(246,270,c),
(251,259,o),
(252,247,o),
(252,236,cs),
(253,214,o),
(246,93,o),
(245,72,cs),
(245,63,o),
(244,44,o),
(242,52,cs)
);
},
{
closed = 1;
nodes = (
(375,652,o),
(387,667,o),
(390,671,cs),
(398,682,o),
(407,694,o),
(415,705,cs),
(425,719,o),
(407,730,o),
(397,717,cs),
(391,709,o),
(361,670,o),
(357,662,c),
(354,658,o),
(352,653,o),
(352,649,cs),
(352,636,o),
(371,634,o),
(374,647,cs)
);
},
{
closed = 1;
nodes = (
(461,673,o),
(467,683,o),
(469,694,cs),
(471,706,o),
(455,712,o),
(449,702,cs),
(443,692,o),
(435,667,o),
(440,657,cs),
(445,647,o),
(460,650,o),
(460,662,cs)
);
},
{
closed = 1;
nodes = (
(509,650,o),
(520,660,o),
(530,670,cs),
(540,680,o),
(525,695,o),
(515,686,cs),
(506,678,o),
(481,656,o),
(480,643,cs),
(479,630,o),
(496,625,o),
(502,637,cs)
);
},
{
closed = 1;
nodes = (
(564,632,o),
(564,651,o),
(564,655,c),
(568,675,o),
(545,675,o),
(544,655,cs),
(544,652,o),
(541,635,o),
(542,631,cs),
(544,622,o),
(556,620,o),
(561,628,cs)
);
},
{
closed = 1;
nodes = (
(155,426,o),
(158,462,o),
(157,470,cs),
(154,484,o),
(135,482,o),
(134,468,cs),
(134,460,o),
(132,424,o),
(135,416,cs),
(139,402,o),
(153,404,o),
(154,418,cs)
);
},
{
closed = 1;
nodes = (
(102,417,o),
(96,460,o),
(94,468,c),
(93,482,o),
(73,480,o),
(73,467,cs),
(73,454,o),
(72,413,o),
(80,402,cs),
(86,392,o),
(100,396,o),
(101,408,cs)
);
}
);
width = 958;
}
);
note = C;
unicode = (67,199);
},
{
glyphname = D;
kernLeft = D;
layers = (
{
layerId = m01;
shapes = (
{
closed = 1;
nodes = (
(696,-133,o),
(725,-129,o),
(751,-117,cs),
(768,-110,o),
(782,-96,o),
(795,-83,cs),
(798,-80,o),
(800,-75,o),
(799,-70,cs),
(797,-62,o),
(785,-44,o),
(778,-39,cs),
(769,-34,o),
(757,-32,o),
(746,-31,cs),
(741,-31,o),
(712,-31,o),
(706,-31,c),
(703,-19,o),
(690,52,o),
(688,64,cs),
(681,96,o),
(675,128,o),
(667,160,cs),
(667,161,o),
(665,166,o),
(665,167,cs),
(666,170,o),
(671,180,o),
(672,182,cs),
(699,239,o),
(720,299,o),
(745,356,c),
(753,354,o),
(772,365,o),
(780,370,cs),
(794,379,o),
(806,394,o),
(812,411,cs),
(816,424,o),
(815,440,o),
(810,453,cs),
(808,459,o),
(802,463,o),
(797,465,c),
(803,479,o),
(833,559,o),
(838,574,c),
(839,575,o),
(840,577,o),
(841,577,cs),
(865,574,o),
(891,576,o),
(911,588,cs),
(928,598,o),
(941,614,o),
(953,629,cs),
(968,648,o),
(981,669,o),
(995,689,c),
(995,686,o),
(995,672,o),
(996,670,c),
(998,658,o),
(1015,658,o),
(1018,670,cs),
(1020,678,o),
(1018,718,o),
(1018,726,cs),
(1017,741,o),
(1001,745,o),
(994,732,cs),
(982,708,o),
(967,685,o),
(951,663,cs),
(939,646,o),
(927,629,o),
(911,615,cs),
(904,609,o),
(896,603,o),
(887,601,cs),
(874,597,o),
(860,597,o),
(847,598,c),
(853,614,o),
(892,718,o),
(898,734,c),
(899,725,o),
(899,716,o),
(899,706,cs),
(900,693,o),
(919,690,o),
(922,703,cs),
(924,712,o),
(923,753,o),
(923,762,cs),
(923,766,o),
(921,783,o),
(922,786,cs),
(924,795,o),
(916,801,o),
(908,803,cs),
(899,805,o),
(885,789,o),
(878,783,cs),
(871,777,o),
(839,749,o),
(834,742,cs),
(827,733,o),
(836,720,o),
(847,724,cs),
(854,727,o),
(875,749,o),
(881,754,c),
(862,703,o),
(844,652,o),
(825,602,c),
(816,605,o),
(808,609,o),
(803,617,cs),
(791,634,o),
(785,691,o),
(787,712,cs),
(790,731,o),
(797,751,o),
(805,769,cs),
(806,772,o),
(809,783,o),
(812,785,cs),
(821,793,o),
(815,808,o),
(803,806,cs),
(793,804,o),
(759,780,o),
(750,775,cs),
(737,767,o),
(744,748,o),
(758,752,cs),
(762,753,o),
(776,762,o),
(779,764,c),
(772,747,o),
(767,728,o),
(765,710,cs),
(762,684,o),
(771,619,o),
(789,599,cs),
(796,591,o),
(807,586,o),
(817,582,c),
(818,582,o),
(816,580,o),
(816,579,c),
(804,544,o),
(791,509,o),
(776,476,c),
(762,490,o),
(740,487,o),
(727,472,cs),
(713,455,o),
(704,434,o),
(691,417,cs),
(687,413,o),
(668,398,o),
(665,393,c),
(649,389,o),
(632,384,o),
(615,384,cs),
(598,384,o),
(582,399,o),
(572,413,c),
(581,418,o),
(591,422,o),
(598,428,cs),
(623,450,o),
(646,479,o),
(654,511,cs),
(664,551,o),
(661,599,o),
(639,634,c),
(646,643,o),
(653,653,o),
(656,664,cs),
(660,678,o),
(657,693,o),
(653,707,cs),
(648,727,o),
(642,749,o),
(627,763,cs),
(618,771,o),
(601,775,o),
(598,762,cs),
(597,757,o),
(594,752,o),
(596,748,cs),
(599,742,o),
(597,722,o),
(597,715,c),
(595,705,o),
(592,693,o),
(584,686,c),
(584,686,o),
(583,686,o),
(582,685,c),
(569,692,o),
(555,697,o),
(542,702,cs),
(526,708,o),
(510,713,o),
(493,714,cs),
(454,715,o),
(410,694,o),
(389,661,c),
(371,678,o),
(368,707,o),
(370,731,cs),
(370,741,o),
(366,749,o),
(357,749,c),
(349,754,o),
(340,748,o),
(335,741,cs),
(320,721,o),
(305,697,o),
(304,671,cs),
(303,655,o),
(304,639,o),
(310,624,cs),
(316,608,o),
(329,594,o),
(344,586,c),
(334,574,o),
(340,538,o),
(343,522,cs),
(351,489,o),
(366,455,o),
(390,432,c),
(365,422,o),
(345,402,o),
(327,381,cs),
(313,364,o),
(299,345,o),
(288,326,cs),
(282,316,o),
(276,304,o),
(276,292,cs),
(274,269,o),
(297,228,o),
(316,215,cs),
(328,206,o),
(374,191,o),
(389,190,cs),
(390,190,o),
(393,191,o),
(392,189,cs),
(382,169,o),
(392,147,o),
(413,141,cs),
(417,140,o),
(429,141,o),
(433,143,c),
(434,140,o),
(437,122,o),
(438,119,c),
(399,102,o),
(356,94,o),
(314,98,cs),
(288,101,o),
(263,107,o),
(238,116,cs),
(221,122,o),
(203,129,o),
(188,140,cs),
(157,163,o),
(136,200,o),
(123,237,cs),
(111,272,o),
(106,311,o),
(111,349,cs),
(114,371,o),
(122,393,o),
(130,414,c),
(134,405,o),
(137,396,o),
(143,388,cs),
(164,365,o),
(202,363,o),
(222,388,cs),
(227,394,o),
(230,401,o),
(231,409,cs),
(232,423,o),
(227,437,o),
(222,450,cs),
(207,491,o),
(190,533,o),
(188,577,cs),
(188,581,o),
(188,598,o),
(187,602,cs),
(186,606,o),
(183,609,o),
(179,610,c),
(173,617,o),
(164,616,o),
(158,609,c),
(157,607,o),
(152,597,o),
(150,595,cs),
(146,589,o),
(141,583,o),
(136,577,c),
(111,555,o),
(82,538,o),
(54,520,cs),
(36,507,o),
(16,491,o),
(12,469,cs),
(5,431,o),
(47,410,o),
(86,413,cs),
(93,414,o),
(101,416,o),
(106,420,cs),
(115,427,o),
(110,440,o),
(100,440,cs),
(95,440,o),
(91,437,o),
(86,436,cs),
(70,435,o),
(51,437,o),
(39,448,cs),
(20,466,o),
(49,489,o),
(71,503,cs),
(95,518,o),
(119,534,o),
(141,552,c),
(146,555,o),
(163,571,o),
(166,576,c),
(168,550,o),
(174,525,o),
(181,500,cs),
(186,486,o),
(209,429,o),
(209,414,cs),
(208,393,o),
(180,389,o),
(164,403,cs),
(159,407,o),
(151,425,o),
(150,431,cs),
(149,434,o),
(144,439,o),
(141,440,c),
(150,461,o),
(155,483,o),
(157,505,cs),
(159,517,o),
(142,521,o),
(137,510,cs),
(135,505,o),
(131,474,o),
(129,468,cs),
(126,459,o),
(104,409,o),
(100,401,c),
(88,366,o),
(84,328,o),
(87,291,cs),
(93,236,o),
(115,181,o),
(151,139,cs),
(168,120,o),
(191,105,o),
(215,96,cs),
(257,80,o),
(303,70,o),
(348,70,cs),
(378,71,o),
(408,77,o),
(437,88,c),
(430,52,o),
(409,19,o),
(390,-12,cs),
(387,-16,o),
(386,-21,o),
(383,-24,cs),
(375,-34,o),
(366,-44,o),
(360,-55,cs),
(353,-68,o),
(347,-94,o),
(357,-105,cs),
(359,-107,o),
(363,-107,o),
(364,-110,cs),
(367,-123,o),
(391,-128,o),
(404,-130,cs),
(427,-134,o),
(495,-142,o),
(515,-131,cs),
(537,-120,o),
(539,-91,o),
(525,-71,cs),
(515,-58,o),
(499,-52,o),
(484,-46,c),
(502,-29,o),
(516,-8,o),
(528,14,cs),
(537,30,o),
(545,46,o),
(551,63,c),
(558,42,o),
(592,-65,o),
(602,-84,cs),
(607,-93,o),
(622,-127,o),
(630,-133,cs),
(636,-138,o),
(659,-137,o),
(667,-136,cs)
);
},
{
closed = 1;
nodes = (
(374,-95,o),
(379,-80,o),
(382,-69,cs),
(386,-53,o),
(401,-41,o),
(410,-26,cs),
(420,-11,o),
(431,3,o),
(440,19,cs),
(454,43,o),
(463,71,o),
(464,98,cs),
(464,104,o),
(467,111,o),
(465,116,cs),
(463,120,o),
(459,141,o),
(458,145,cs),
(458,147,o),
(458,155,o),
(458,157,c),
(492,187,o),
(483,242,o),
(441,259,c),
(435,281,o),
(429,303,o),
(424,325,cs),
(422,332,o),
(416,336,o),
(409,335,cs),
(393,331,o),
(377,325,o),
(366,312,cs),
(355,298,o),
(352,277,o),
(368,267,cs),
(374,263,o),
(404,254,o),
(412,253,c),
(413,252,o),
(415,253,o),
(415,251,cs),
(415,245,o),
(421,240,o),
(427,240,cs),
(434,240,o),
(447,229,o),
(451,224,cs),
(460,212,o),
(459,192,o),
(451,180,cs),
(444,171,o),
(433,166,o),
(423,162,cs),
(420,161,o),
(416,163,o),
(414,164,c),
(404,172,o),
(416,184,o),
(424,194,cs),
(433,206,o),
(418,219,o),
(407,209,c),
(403,214,o),
(395,214,o),
(389,215,cs),
(366,218,o),
(343,223,o),
(326,238,cs),
(315,247,o),
(298,276,o),
(300,291,cs),
(301,311,o),
(341,360,o),
(354,375,cs),
(366,388,o),
(378,401,o),
(394,408,cs),
(399,410,o),
(406,411,o),
(412,412,cs),
(414,412,o),
(417,414,o),
(420,413,c),
(434,405,o),
(476,392,o),
(492,396,cs),
(506,401,o),
(505,423,o),
(490,424,cs),
(467,427,o),
(443,429,o),
(423,441,cs),
(387,462,o),
(366,509,o),
(362,550,c),
(361,553,o),
(360,566,o),
(360,569,cs),
(360,574,o),
(363,579,o),
(361,584,cs),
(360,586,o),
(362,587,o),
(363,588,cs),
(368,594,o),
(365,604,o),
(357,606,cs),
(349,608,o),
(336,621,o),
(333,628,cs),
(325,645,o),
(323,665,o),
(328,683,cs),
(331,696,o),
(339,708,o),
(347,720,c),
(348,697,o),
(352,674,o),
(364,655,cs),
(369,647,o),
(376,641,o),
(384,636,c),
(392,625,o),
(408,631,o),
(408,645,c),
(416,656,o),
(425,666,o),
(436,674,cs),
(451,683,o),
(469,689,o),
(487,689,cs),
(504,689,o),
(559,671,o),
(574,663,c),
(576,661,o),
(578,658,o),
(580,657,cs),
(588,653,o),
(597,659,o),
(597,668,cs),
(597,670,o),
(604,674,o),
(606,676,c),
(618,693,o),
(620,716,o),
(620,737,c),
(627,723,o),
(640,683,o),
(635,669,cs),
(632,658,o),
(622,651,o),
(617,642,cs),
(614,635,o),
(614,631,o),
(619,626,cs),
(623,622,o),
(631,603,o),
(632,598,c),
(641,572,o),
(640,542,o),
(633,516,cs),
(628,496,o),
(616,478,o),
(603,464,cs),
(588,448,o),
(570,435,o),
(549,430,cs),
(538,427,o),
(538,413,o),
(548,409,c),
(553,399,o),
(561,390,o),
(569,383,cs),
(578,374,o),
(589,366,o),
(601,363,cs),
(619,358,o),
(638,363,o),
(657,367,cs),
(664,369,o),
(686,375,o),
(691,382,cs),
(693,384,o),
(691,389,o),
(694,391,cs),
(705,400,o),
(712,411,o),
(720,423,cs),
(725,431,o),
(740,459,o),
(749,464,c),
(755,466,o),
(762,464,o),
(757,461,cs),
(741,451,o),
(730,431,o),
(729,413,cs),
(729,401,o),
(745,397,o),
(750,408,cs),
(751,410,o),
(754,421,o),
(755,423,cs),
(758,430,o),
(765,442,o),
(773,442,cs),
(776,442,o),
(787,440,o),
(789,440,c),
(791,441,o),
(792,441,o),
(793,439,c),
(794,427,o),
(793,414,o),
(786,405,cs),
(778,392,o),
(765,383,o),
(752,377,c),
(749,386,o),
(737,386,o),
(733,378,cs),
(732,375,o),
(727,374,o),
(725,372,cs),
(724,371,o),
(721,363,o),
(720,362,cs),
(709,349,o),
(667,319,o),
(650,316,cs),
(643,314,o),
(610,315,o),
(603,316,cs),
(591,316,o),
(587,301,o),
(597,295,c),
(600,294,o),
(599,286,o),
(600,284,cs),
(603,278,o),
(608,274,o),
(610,268,cs),
(612,263,o),
(620,234,o),
(621,228,cs),
(642,146,o),
(659,63,o),
(673,-20,cs),
(676,-36,o),
(679,-59,o),
(695,-59,cs),
(699,-59,o),
(703,-55,o),
(707,-56,c),
(717,-56,o),
(753,-57,o),
(762,-63,c),
(766,-67,o),
(773,-71,o),
(768,-75,cs),
(738,-98,o),
(698,-107,o),
(661,-111,cs),
(658,-111,o),
(646,-113,o),
(643,-112,cs),
(638,-111,o),
(634,-97,o),
(632,-92,c),
(631,-91,o),
(632,-89,o),
(633,-88,cs),
(636,-83,o),
(636,-76,o),
(632,-71,cs),
(630,-69,o),
(629,-66,o),
(627,-63,c),
(619,-40,o),
(575,79,o),
(570,104,cs),
(567,118,o),
(547,117,o),
(542,103,c),
(538,102,o),
(535,100,o),
(533,96,cs),
(531,90,o),
(519,57,o),
(517,51,cs),
(506,22,o),
(491,-7,o),
(469,-29,c),
(466,-31,o),
(454,-43,o),
(452,-46,cs),
(443,-65,o),
(483,-66,o),
(500,-78,cs),
(508,-85,o),
(513,-97,o),
(508,-107,cs),
(503,-115,o),
(481,-112,o),
(472,-112,cs),
(456,-112,o),
(398,-106,o),
(384,-100,cs)
);
},
{
closed = 1;
nodes = (
(504,558,o),
(503,588,o),
(483,604,cs),
(469,617,o),
(447,624,o),
(428,619,cs),
(406,613,o),
(385,593,o),
(379,571,cs),
(378,566,o),
(377,561,o),
(379,557,cs),
(384,545,o),
(402,551,o),
(399,563,cs),
(397,570,o),
(406,581,o),
(410,585,cs),
(417,591,o),
(424,597,o),
(433,599,c),
(434,600,o),
(433,598,o),
(433,597,c),
(430,589,o),
(427,581,o),
(428,573,cs),
(429,543,o),
(462,524,o),
(485,542,cs)
);
},
{
closed = 1;
nodes = (
(447,574,o),
(452,589,o),
(458,596,c),
(464,594,o),
(471,590,o),
(474,585,cs),
(476,582,o),
(479,573,o),
(479,570,cs),
(477,555,o),
(457,553,o),
(451,566,cs)
);
},
{
closed = 1;
nodes = (
(609,572,o),
(600,598,o),
(587,609,cs),
(576,619,o),
(556,621,o),
(543,614,cs),
(537,610,o),
(532,605,o),
(527,600,cs),
(520,593,o),
(513,582,o),
(515,573,cs),
(518,562,o),
(533,562,o),
(535,573,c),
(536,574,o),
(535,578,o),
(536,578,c),
(539,583,o),
(551,595,o),
(557,597,c),
(550,583,o),
(551,559,o),
(563,550,cs),
(575,540,o),
(594,543,o),
(601,557,cs)
);
},
{
closed = 1;
nodes = (
(572,573,o),
(574,585,o),
(577,590,c),
(581,584,o),
(585,576,o),
(584,568,cs),
(583,564,o),
(576,563,o),
(574,568,cs)
);
},
{
closed = 1;
nodes = (
(494,467,o),
(489,479,o),
(480,479,cs),
(471,479,o),
(461,481,o),
(453,485,cs),
(445,489,o),
(439,497,o),
(435,505,cs),
(434,507,o),
(436,508,o),
(437,509,cs),
(446,520,o),
(431,533,o),
(422,524,cs),
(419,521,o),
(408,511,o),
(406,508,cs),
(402,499,o),
(409,491,o),
(418,492,c),
(423,484,o),
(429,476,o),
(437,470,cs),
(442,467,o),
(448,465,o),
(454,463,cs),
(462,460,o),
(480,455,o),
(487,461,cs)
);
},
{
closed = 1;
nodes = (
(640,293,o),
(655,293,o),
(667,299,cs),
(680,305,o),
(691,313,o),
(703,321,c),
(687,282,o),
(672,243,o),
(656,205,c),
(652,220,o),
(637,281,o),
(627,293,c)
);
},
{
closed = 1;
nodes = (
(380,287,o),
(381,290,o),
(382,292,cs),
(385,300,o),
(392,304,o),
(399,308,c),
(402,309,o),
(402,309,o),
(403,307,cs),
(406,296,o),
(409,286,o),
(412,276,c),
(407,277,o),
(386,282,o),
(382,285,cs)
);
}
);
width = 1017;
}
);
note = D;
unicode = 68;
},
{
glyphname = E;
layers = (
{
layerId = m01;
shapes = (
{
closed = 1;
nodes = (
(886,512,o),
(891,528,o),
(891,534,cs),
(892,571,o),
(901,608,o),
(899,646,cs),
(898,657,o),
(897,672,o),
(887,677,cs),
(879,681,o),
(871,674,o),
(868,665,cs),
(866,659,o),
(865,651,o),
(869,646,c),
(866,610,o),
(862,574,o),
(854,539,cs),
(853,533,o),
(853,517,o),
(855,511,cs),
(860,501,o),
(874,499,o),
(882,508,cs)
);
},
{
closed = 1;
nodes = (
(694,436,o),
(673,500,o),
(667,513,c),
(669,514,o),
(671,518,o),
(673,517,cs),
(688,512,o),
(767,489,o),
(784,486,cs),
(807,482,o),
(820,512,o),
(801,526,cs),
(791,532,o),
(777,529,o),
(766,531,cs),
(740,534,o),
(716,539,o),
(690,542,c),
(688,543,o),
(687,543,o),
(688,545,cs),
(700,561,o),
(712,577,o),
(725,592,cs),
(729,598,o),
(754,626,o),
(757,633,cs),
(768,653,o),
(743,667,o),
(730,649,cs),
(717,633,o),
(704,617,o),
(692,600,cs),
(687,593,o),
(661,550,o),
(656,542,c),
(649,559,o),
(623,631,o),
(611,645,cs),
(604,653,o),
(592,648,o),
(587,638,cs),
(583,631,o),
(588,623,o),
(597,621,c),
(614,582,o),
(630,542,o),
(644,501,cs),
(653,474,o),
(663,447,o),
(670,419,cs),
(674,403,o),
(697,406,o),
(695,422,cs)
);
},
{
closed = 1;
nodes = (
(545,418,o),
(606,441,o),
(617,449,cs),
(620,452,o),
(622,456,o),
(624,460,c),
(638,476,o),
(614,493,o),
(594,485,cs),
(584,481,o),
(529,444,o),
(519,439,c),
(510,453,o),
(501,467,o),
(492,481,cs),
(490,484,o),
(494,486,o),
(496,488,cs),
(503,496,o),
(549,523,o),
(558,530,c),
(571,532,o),
(576,548,o),
(566,556,cs),
(565,557,o),
(563,557,o),
(562,558,cs),
(548,570,o),
(524,554,o),
(511,543,cs),
(505,538,o),
(480,512,o),
(475,506,c),
(466,520,o),
(457,534,o),
(447,547,c),
(455,554,o),
(510,582,o),
(518,588,cs),
(536,603,o),
(520,629,o),
(499,619,cs),
(484,612,o),
(436,576,o),
(425,563,cs),
(422,559,o),
(419,549,o),
(420,545,cs),
(421,540,o),
(434,524,o),
(437,520,cs),
(453,496,o),
(468,472,o),
(483,448,cs),
(488,440,o),
(500,412,o),
(509,408,cs),
(514,406,o),
(528,409,o),
(533,412,cs)
);
},
{
closed = 1;
nodes = (
(373,316,o),
(381,318,o),
(386,319,c),
(393,322,o),
(421,331,o),
(429,330,cs),
(433,330,o),
(446,334,o),
(450,336,cs),
(469,346,o),
(465,373,o),
(444,378,cs),
(438,379,o),
(421,375,o),
(416,371,cs),
(406,364,o),
(394,359,o),
(383,352,cs),
(376,348,o),
(370,343,o),
(363,338,c),
(353,360,o),
(341,381,o),
(329,402,c),
(337,405,o),
(382,422,o),
(389,426,c),
(403,415,o),
(418,434,o),
(411,449,cs),
(400,471,o),
(371,457,o),
(349,446,c),
(345,443,o),
(319,429,o),
(314,426,c),
(305,442,o),
(296,457,o),
(287,473,c),
(300,476,o),
(313,478,o),
(325,481,cs),
(335,484,o),
(374,499,o),
(382,505,cs),
(397,516,o),
(387,538,o),
(369,535,cs),
(362,533,o),
(329,520,o),
(323,517,cs),
(317,515,o),
(279,502,o),
(273,500,c),
(263,510,o),
(247,499,o),
(252,486,cs),
(254,482,o),
(257,479,o),
(256,475,cs),
(255,468,o),
(258,463,o),
(266,460,c),
(289,415,o),
(315,371,o),
(336,325,cs),
(340,317,o),
(344,308,o),
(351,302,cs),
(359,296,o),
(370,301,o),
(372,311,cs)
);
},
{
closed = 1;
nodes = (
(210,250,o),
(229,262,o),
(238,267,cs),
(246,272,o),
(285,297,o),
(292,301,cs),
(306,308,o),
(299,327,o),
(283,327,cs),
(270,327,o),
(258,317,o),
(247,310,cs),
(239,304,o),
(211,280,o),
(202,278,c),
(202,278,o),
(199,276,o),
(198,276,c),
(195,282,o),
(173,313,o),
(169,318,c),
(188,333,o),
(208,348,o),
(228,361,cs),
(231,363,o),
(235,365,o),
(238,368,c),
(239,371,o),
(241,373,o),
(242,376,c),
(250,384,o),
(245,397,o),
(234,399,cs),
(228,400,o),
(215,395,o),
(211,391,cs),
(192,373,o),
(174,356,o),
(155,339,c),
(144,355,o),
(134,373,o),
(128,392,c),
(135,397,o),
(170,426,o),
(177,431,cs),
(179,433,o),
(188,441,o),
(190,442,c),
(197,443,o),
(202,451,o),
(202,457,cs),
(202,467,o),
(191,473,o),
(182,469,cs),
(170,463,o),
(129,424,o),
(119,416,c),
(117,413,o),
(103,402,o),
(101,400,cs),
(95,392,o),
(99,383,o),
(107,379,c),
(120,348,o),
(138,320,o),
(156,292,cs),
(169,272,o),
(182,240,o),
(200,254,c)
);
},
{
closed = 1;
nodes = (
(883,416,o),
(876,438,o),
(857,438,cs),
(840,438,o),
(831,417,o),
(842,403,cs),
(850,394,o),
(864,391,o),
(872,401,cs)
);
},
{
closed = 1;
nodes = (
(959,18,o),
(982,31,o),
(998,49,cs),
(1002,54,o),
(1005,59,o),
(1004,65,c),
(1012,85,o),
(1019,138,o),
(1009,158,cs),
(1005,166,o),
(992,165,o),
(990,155,c),
(989,153,o),
(988,143,o),
(988,141,cs),
(986,130,o),
(982,119,o),
(976,110,cs),
(956,83,o),
(917,70,o),
(885,72,cs),
(874,72,o),
(863,73,o),
(853,78,cs),
(840,84,o),
(828,93,o),
(819,104,cs),
(812,111,o),
(809,120,o),
(804,129,c),
(812,153,o),
(803,184,o),
(786,202,cs),
(776,212,o),
(727,243,o),
(715,250,c),
(718,264,o),
(716,278,o),
(715,292,cs),
(713,306,o),
(692,305,o),
(693,291,cs),
(693,281,o),
(693,271,o),
(693,261,c),
(687,263,o),
(681,265,o),
(676,266,c),
(677,277,o),
(671,298,o),
(663,305,cs),
(649,316,o),
(632,304,o),
(621,290,c),
(611,306,o),
(601,328,o),
(582,333,cs),
(565,337,o),
(540,331,o),
(532,315,cs),
(529,308,o),
(529,283,o),
(530,275,cs),
(532,263,o),
(538,252,o),
(543,241,c),
(506,238,o),
(494,190,o),
(529,178,cs),
(537,176,o),
(545,176,o),
(553,176,c),
(555,166,o),
(558,156,o),
(561,147,c),
(555,146,o),
(549,145,o),
(544,147,c),
(538,148,o),
(533,152,o),
(527,154,cs),
(516,159,o),
(507,144,o),
(517,136,cs),
(530,126,o),
(550,123,o),
(566,126,c),
(573,104,o),
(577,79,o),
(592,62,cs),
(600,54,o),
(609,48,o),
(618,43,cs),
(653,25,o),
(727,18,o),
(757,42,cs),
(761,45,o),
(773,57,o),
(775,61,c),
(814,21,o),
(881,0,o),
(935,13,cs)
);
},
{
closed = 1;
nodes = (
(848,37,o),
(820,50,o),
(798,67,cs),
(792,71,o),
(780,88,o),
(773,88,cs),
(765,89,o),
(756,73,o),
(751,68,cs),
(742,59,o),
(730,55,o),
(718,53,cs),
(688,48,o),
(655,51,o),
(628,65,cs),
(621,69,o),
(613,75,o),
(608,82,cs),
(601,91,o),
(588,126,o),
(588,138,cs),
(588,142,o),
(585,145,o),
(584,148,cs),
(581,159,o),
(578,169,o),
(576,180,cs),
(574,188,o),
(571,198,o),
(563,198,cs),
(548,196,o),
(524,194,o),
(529,208,cs),
(532,219,o),
(539,223,o),
(550,220,c),
(553,220,o),
(557,222,o),
(560,223,cs),
(580,227,o),
(558,253,o),
(552,273,cs),
(550,280,o),
(547,300,o),
(551,306,cs),
(553,310,o),
(563,313,o),
(567,313,c),
(570,314,o),
(574,314,o),
(577,313,cs),
(588,309,o),
(604,279,o),
(610,269,cs),
(615,261,o),
(630,261,o),
(634,268,cs),
(638,276,o),
(643,282,o),
(650,286,c),
(652,282,o),
(653,278,o),
(654,274,cs),
(655,265,o),
(652,255,o),
(657,249,cs),
(660,245,o),
(677,243,o),
(681,241,cs),
(701,234,o),
(759,200,o),
(772,184,cs),
(779,174,o),
(785,162,o),
(785,150,c),
(786,146,o),
(782,128,o),
(783,124,cs),
(784,119,o),
(795,99,o),
(799,95,c),
(814,73,o),
(840,55,o),
(867,52,cs),
(886,50,o),
(906,49,o),
(925,53,cs),
(949,58,o),
(972,73,o),
(989,92,c),
(987,78,o),
(981,65,o),
(973,54,cs),
(970,49,o),
(952,41,o),
(947,38,c),
(925,29,o),
(899,27,o),
(876,31,cs)
);
},
{
closed = 1;
nodes = (
(630,254,o),
(623,262,o),
(609,255,cs),
(596,249,o),
(616,228,o),
(623,241,cs)
);
},
{
closed = 1;
nodes = (
(599,228,o),
(596,234,o),
(595,235,cs),
(588,243,o),
(573,238,o),
(575,227,c),
(575,222,o),
(579,218,o),
(581,215,cs),
(590,204,o),
(606,214,o),
(600,226,cs)
);
},
{
closed = 1;
nodes = (
(161,220,o),
(156,221,o),
(152,223,cs),
(108,247,o),
(71,280,o),
(30,308,c),
(25,319,o),
(8,320,o),
(4,308,cs),
(1,301,o),
(9,293,o),
(16,288,cs),
(38,272,o),
(122,201,o),
(149,195,cs),
(161,192,o),
(171,206,o),
(163,216,c)
);
},
{
closed = 1;
nodes = (
(209,201,o),
(198,204,o),
(191,198,cs),
(180,190,o),
(185,174,o),
(198,170,cs),
(210,167,o),
(219,181,o),
(213,193,cs)
);
}
);
width = 1023;
}
);
note = E;
unicode = (69,200,201,202,203);
},
{
glyphname = F;
kernLeft = F;
layers = (
{
layerId = m01;
shapes = (
{
closed = 1;
nodes = (
(446,14,o),
(462,26,o),
(474,42,c),
(498,33,o),
(523,25,o),
(546,15,cs),
(552,12,o),
(558,9,o),
(565,7,c),
(567,-11,o),
(592,-10,o),
(590,8,cs),
(590,15,o),
(597,43,o),
(599,49,cs),
(600,54,o),
(604,58,o),
(604,62,cs),
(604,68,o),
(596,75,o),
(592,77,cs),
(581,82,o),
(520,96,o),
(509,100,c),
(508,100,o),
(510,102,o),
(510,103,c),
(534,150,o),
(556,199,o),
(573,248,cs),
(574,250,o),
(574,251,o),
(576,252,cs),
(589,258,o),
(598,272,o),
(605,286,cs),
(618,313,o),
(625,346,o),
(622,377,cs),
(620,389,o),
(617,403,o),
(608,411,cs),
(601,416,o),
(591,417,o),
(583,414,cs),
(580,413,o),
(576,406,o),
(576,410,cs),
(581,505,o),
(586,601,o),
(593,696,c),
(594,698,o),
(593,704,o),
(593,705,cs),
(593,706,o),
(595,708,o),
(595,709,c),
(605,728,o),
(572,730,o),
(551,730,cs),
(541,730,o),
(484,726,o),
(474,725,cs),
(372,721,o),
(270,729,o),
(168,728,cs),
(152,728,o),
(136,727,o),
(120,726,cs),
(104,724,o),
(89,720,o),
(73,716,c),
(71,716,o),
(69,714,o),
(68,715,c),
(58,718,o),
(52,708,o),
(52,698,cs),
(48,602,o),
(61,506,o),
(67,410,c),
(37,419,o),
(33,373,o),
(38,341,cs),
(41,320,o),
(47,298,o),
(58,279,cs),
(65,268,o),
(76,258,o),
(88,254,c),
(102,195,o),
(121,136,o),
(153,85,c),
(144,83,o),
(113,72,o),
(103,74,cs),
(92,77,o),
(83,57,o),
(90,48,c),
(91,43,o),
(99,18,o),
(101,13,cs),
(104,8,o),
(115,4,o),
(121,5,cs),
(132,7,o),
(185,30,o),
(196,34,c),
(222,9,o),
(257,-10,o),
(293,-18,cs),
(338,-28,o),
(390,-20,o),
(430,4,cs)
);
},
{
closed = 1;
nodes = (
(278,20,o),
(250,31,o),
(227,47,cs),
(186,77,o),
(157,122,o),
(137,168,cs),
(124,198,o),
(115,231,o),
(107,263,c),
(107,266,o),
(108,269,o),
(107,272,c),
(105,275,o),
(102,277,o),
(104,279,cs),
(116,288,o),
(109,317,o),
(105,331,cs),
(97,372,o),
(96,413,o),
(92,454,cs),
(89,486,o),
(84,518,o),
(81,550,cs),
(76,596,o),
(74,643,o),
(75,690,cs),
(75,693,o),
(75,693,o),
(78,693,c),
(81,694,o),
(100,698,o),
(103,699,cs),
(124,703,o),
(147,703,o),
(169,703,cs),
(297,700,o),
(427,685,o),
(554,699,cs),
(560,700,o),
(565,700,o),
(570,701,c),
(570,684,o),
(560,582,o),
(559,565,cs),
(556,528,o),
(546,311,o),
(545,274,cs),
(545,272,o),
(545,262,o),
(544,260,cs),
(529,215,o),
(509,171,o),
(487,128,cs),
(476,106,o),
(468,82,o),
(452,63,cs),
(437,46,o),
(415,34,o),
(394,27,cs),
(366,18,o),
(335,12,o),
(306,16,cs)
);
},
{
closed = 1;
nodes = (
(125,563,o),
(124,588,o),
(124,596,cs),
(124,616,o),
(124,636,o),
(125,656,c),
(126,660,o),
(127,664,o),
(126,669,cs),
(124,677,o),
(114,680,o),
(107,675,cs),
(100,669,o),
(101,648,o),
(101,639,cs),
(101,620,o),
(102,600,o),
(102,581,cs),
(102,574,o),
(99,567,o),
(100,560,cs),
(102,551,o),
(114,549,o),
(120,557,cs)
);
},
{
closed = 1;
nodes = (
(183,592,o),
(184,648,o),
(183,658,cs),
(182,675,o),
(160,672,o),
(160,656,cs),
(160,647,o),
(157,594,o),
(157,585,cs),
(157,568,o),
(183,565,o),
(183,582,cs)
);
},
{
closed = 1;
nodes = (
(351,620,o),
(349,645,o),
(347,654,cs),
(343,672,o),
(320,667,o),
(319,649,cs),
(319,642,o),
(321,619,o),
(324,613,cs),
(329,604,o),
(342,603,o),
(347,612,cs)
);
},
{
closed = 1;
nodes = (
(519,525,o),
(523,551,o),
(523,560,cs),
(524,573,o),
(522,633,o),
(519,647,cs),
(518,653,o),
(513,661,o),
(506,662,cs),
(491,666,o),
(482,648,o),
(494,638,c),
(494,626,o),
(493,613,o),
(491,601,cs),
(488,575,o),
(482,548,o),
(489,523,cs),
(491,512,o),
(506,509,o),
(513,518,cs)
);
},
{
closed = 1;
nodes = (
(465,596,o),
(455,638,o),
(455,646,cs),
(455,660,o),
(436,665,o),
(430,652,cs),
(425,642,o),
(428,629,o),
(429,617,cs),
(431,606,o),
(431,594,o),
(436,584,cs),
(442,570,o),
(460,572,o),
(463,587,cs)
);
},
{
closed = 1;
nodes = (
(290,611,o),
(287,638,o),
(286,647,cs),
(286,662,o),
(264,664,o),
(261,649,cs),
(259,641,o),
(260,614,o),
(264,606,cs),
(268,598,o),
(279,597,o),
(285,604,cs)
);
},
{
closed = 1;
nodes = (
(405,616,o),
(402,643,o),
(396,650,c),
(389,661,o),
(373,659,o),
(371,646,cs),
(371,643,o),
(374,632,o),
(374,629,cs),
(375,624,o),
(378,606,o),
(380,602,cs),
(386,589,o),
(404,593,o),
(405,607,cs)
);
},
{
closed = 1;
nodes = (
(235,586,o),
(234,596,o),
(234,598,cs),
(233,614,o),
(234,629,o),
(230,644,cs),
(226,659,o),
(204,657,o),
(204,641,cs),
(204,640,o),
(205,634,o),
(205,633,cs),
(206,626,o),
(207,592,o),
(209,586,cs),
(213,573,o),
(231,571,o),
(234,584,c)
);
},
{
closed = 1;
nodes = (
(155,405,o),
(180,419,o),
(185,422,c),
(187,419,o),
(192,409,o),
(195,407,cs),
(203,400,o),
(216,411,o),
(210,420,cs),
(207,425,o),
(201,430,o),
(206,433,cs),
(210,435,o),
(214,440,o),
(215,436,cs),
(216,432,o),
(218,428,o),
(220,425,cs),
(226,416,o),
(241,421,o),
(239,432,cs),
(238,437,o),
(229,446,o),
(235,449,cs),
(240,452,o),
(245,455,o),
(250,458,cs),
(255,460,o),
(256,450,o),
(260,446,cs),
(269,437,o),
(283,446,o),
(278,458,c),
(277,459,o),
(273,468,o),
(272,469,c),
(280,473,o),
(288,477,o),
(296,481,c),
(297,479,o),
(302,468,o),
(304,466,cs),
(312,455,o),
(328,465,o),
(322,477,cs),
(320,481,o),
(317,486,o),
(315,491,c),
(323,495,o),
(330,499,o),
(338,503,c),
(339,504,o),
(340,499,o),
(342,497,c),
(346,488,o),
(359,489,o),
(362,499,cs),
(363,504,o),
(360,509,o),
(358,514,c),
(364,517,o),
(394,532,o),
(399,536,cs),
(410,544,o),
(398,558,o),
(386,552,cs),
(374,545,o),
(362,539,o),
(350,533,c),
(349,534,o),
(345,544,o),
(344,546,cs),
(336,559,o),
(317,548,o),
(324,535,cs),
(326,530,o),
(333,524,o),
(328,521,cs),
(326,520,o),
(309,511,o),
(306,510,c),
(305,514,o),
(299,529,o),
(296,532,c),
(287,538,o),
(276,530,o),
(279,520,cs),
(281,513,o),
(284,506,o),
(287,500,c),
(279,496,o),
(271,492,o),
(263,487,c),
(261,491,o),
(254,505,o),
(251,507,cs),
(242,515,o),
(230,504,o),
(236,493,cs),
(238,488,o),
(241,483,o),
(244,477,c),
(239,475,o),
(233,472,o),
(228,469,cs),
(223,466,o),
(225,481,o),
(220,485,cs),
(212,492,o),
(200,485,o),
(203,474,cs),
(204,470,o),
(206,465,o),
(207,461,cs),
(209,455,o),
(200,453,o),
(195,451,c),
(191,459,o),
(184,476,o),
(174,476,cs),
(161,476,o),
(158,457,o),
(171,454,cs),
(174,453,o),
(175,444,o),
(177,441,c),
(172,438,o),
(145,426,o),
(141,422,cs),
(132,415,o),
(139,402,o),
(150,404,cs)
);
},
{
closed = 1;
nodes = (
(467,281,o),
(420,308,o),
(409,317,c),
(420,317,o),
(470,309,o),
(481,312,cs),
(494,315,o),
(501,330,o),
(491,338,cs),
(479,347,o),
(433,344,o),
(418,344,cs),
(412,344,o),
(374,346,o),
(367,346,cs),
(307,350,o),
(247,353,o),
(186,353,cs),
(175,353,o),
(155,354,o),
(153,343,cs),
(149,328,o),
(164,318,o),
(175,328,c),
(210,327,o),
(245,326,o),
(280,324,c),
(250,314,o),
(220,303,o),
(190,291,c),
(189,291,o),
(181,287,o),
(179,287,c),
(164,283,o),
(167,262,o),
(181,262,cs),
(189,262,o),
(222,276,o),
(230,278,c),
(230,279,o),
(230,277,o),
(230,277,c),
(234,268,o),
(253,264,o),
(261,270,cs),
(264,273,o),
(266,278,o),
(265,282,cs),
(264,285,o),
(260,288,o),
(263,289,cs),
(268,291,o),
(300,300,o),
(305,301,cs),
(314,304,o),
(320,313,o),
(317,322,c),
(333,321,o),
(349,320,o),
(365,319,c),
(365,316,o),
(366,311,o),
(368,308,cs),
(371,304,o),
(390,294,o),
(394,292,c),
(392,288,o),
(390,282,o),
(392,278,cs),
(393,276,o),
(394,275,o),
(394,273,c),
(396,267,o),
(402,263,o),
(408,264,cs),
(414,266,o),
(419,274,o),
(423,271,cs),
(430,266,o),
(453,248,o),
(462,248,cs),
(472,248,o),
(478,259,o),
(474,267,cs)
);
},
{
closed = 1;
nodes = (
(378,213,o),
(392,217,o),
(393,228,cs),
(395,238,o),
(382,243,o),
(372,243,cs),
(358,242,o),
(300,239,o),
(286,243,cs),
(272,247,o),
(262,230,o),
(274,221,c),
(277,220,o),
(288,217,o),
(291,216,c),
(316,213,o),
(341,212,o),
(367,213,cs)
);
},
{
closed = 1;
nodes = (
(381,101,o),
(328,99,o),
(317,99,cs),
(304,99,o),
(272,101,o),
(264,91,cs),
(258,83,o),
(264,70,o),
(275,70,cs),
(279,70,o),
(282,72,o),
(286,72,cs),
(299,72,o),
(372,70,o),
(386,68,cs),
(406,66,o),
(413,93,o),
(393,98,cs)
);
},
{
closed = 1;
nodes = (
(576,299,o),
(572,299,o),
(572,301,cs),
(573,324,o),
(573,347,o),
(574,370,c),
(578,370,o),
(581,370,o),
(584,372,cs),
(591,378,o),
(591,399,o),
(595,390,cs),
(605,367,o),
(597,315,o),
(583,294,cs),
(581,291,o),
(580,296,o),
(578,297,c)
);
},
{
closed = 1;
nodes = (
(64,394,o),
(69,376,o),
(70,367,cs),
(71,357,o),
(78,303,o),
(78,293,c),
(64,312,o),
(53,363,o),
(61,386,cs)
);
},
{
closed = 1;
nodes = (
(490,66,o),
(492,72,o),
(495,72,c),
(497,73,o),
(503,77,o),
(505,76,cs),
(515,72,o),
(566,57,o),
(576,54,c),
(574,48,o),
(573,41,o),
(571,35,cs),
(570,33,o),
(570,33,o),
(567,34,c),
(542,47,o),
(515,55,o),
(488,63,c)
);
},
{
closed = 1;
nodes = (
(132,55,o),
(150,60,o),
(167,65,c),
(171,61,o),
(175,56,o),
(179,52,c),
(172,49,o),
(128,33,o),
(121,30,c),
(118,37,o),
(116,43,o),
(114,50,c)
);
}
);
width = 657;
}
);
note = F;
unicode = 70;
},
{
glyphname = G;
kernLeft = G;
lastChange = "2023-03-06 21:06:26 +0000";
layers = (
{
layerId = m01;
shapes = (
{
closed = 1;
nodes = (
(444,-73,o),
(505,-25,o),
(573,-25,cs),
(625,-24,o),
(676,-39,o),
(728,-46,cs),
(756,-50,o),
(785,-53,o),
(813,-46,cs),
(855,-37,o),
(937,11,o),
(953,50,cs),
(956,57,o),
(958,73,o),
(954,79,c),
(955,91,o),
(952,103,o),
(950,114,cs),
(945,136,o),
(915,221,o),
(902,240,c),
(956,274,o),
(1007,321,o),
(1030,379,cs),
(1036,395,o),
(1040,415,o),
(1032,430,cs),
(1021,452,o),
(988,457,o),
(965,448,cs),
(956,445,o),
(915,425,o),
(906,424,cs),
(900,424,o),
(896,431,o),
(895,437,cs),
(894,442,o),
(892,458,o),
(895,463,cs),
(905,480,o),
(913,496,o),
(923,512,cs),
(931,524,o),
(974,589,o),
(980,602,cs),
(990,619,o),
(995,639,o),
(1001,658,c),
(1003,661,o),
(1002,666,o),
(1000,669,c),
(1005,700,o),
(1009,733,o),
(997,761,cs),
(992,773,o),
(983,784,o),
(973,792,cs),
(958,805,o),
(937,811,o),
(918,815,cs),
(870,825,o),
(820,824,o),
(772,820,cs),
(715,816,o),
(656,805,o),
(605,777,cs),
(558,751,o),
(518,710,o),
(486,666,cs),
(441,602,o),
(404,532,o),
(350,476,cs),
(299,423,o),
(231,382,o),
(160,362,cs),
(144,358,o),
(127,355,o),
(111,356,cs),
(102,356,o),
(56,361,o),
(48,363,cs),
(40,364,o),
(33,358,o),
(31,351,c),
(14,336,o),
(17,281,o),
(18,258,cs),
(19,241,o),
(20,223,o),
(26,206,c),
(26,199,ls),
(25,184,o),
(38,171,o),
(48,160,cs),
(75,132,o),
(111,111,o),
(148,99,cs),
(153,98,o),
(157,93,o),
(162,92,cs),
(184,86,o),
(209,88,o),
(228,75,cs),
(241,65,o),
(249,50,o),
(256,35,cs),
(266,15,o),
(273,-7,o),
(284,-26,cs),
(294,-44,o),
(307,-61,o),
(324,-70,cs),
(339,-79,o),
(358,-81,o),
(376,-79,cs)
);
},
{
closed = 1;
nodes = (
(442,104,o),
(459,125,o),
(478,142,c),
(480,143,o),
(482,143,o),
(485,144,cs),
(501,152,o),
(486,174,o),
(470,166,cs),
(442,151,o),
(425,118,o),
(395,108,cs),
(378,102,o),
(355,105,o),
(342,116,cs),
(334,122,o),
(331,132,o),
(328,140,cs),
(324,154,o),
(323,168,o),
(317,181,cs),
(309,199,o),
(290,212,o),
(271,215,cs),
(231,222,o),
(189,217,o),
(150,227,cs),
(129,233,o),
(106,243,o),
(92,260,cs),
(88,264,o),
(83,270,o),
(84,276,cs),
(86,288,o),
(69,294,o),
(63,282,c),
(63,280,o),
(64,282,o),
(62,281,c),
(53,269,o),
(65,251,o),
(75,240,cs),
(101,211,o),
(144,198,o),
(183,194,cs),
(196,192,o),
(263,191,o),
(276,188,cs),
(288,184,o),
(296,171,o),
(299,160,cs),
(304,140,o),
(306,119,o),
(319,104,cs),
(342,77,o),
(390,73,o),
(420,91,cs)
);
},
{
closed = 1;
nodes = (
(596,50,o),
(609,56,o),
(621,61,cs),
(647,72,o),
(671,86,o),
(697,96,cs),
(714,102,o),
(733,106,o),
(751,103,cs),
(766,101,o),
(780,95,o),
(795,89,cs),
(808,84,o),
(858,59,o),
(872,59,cs),
(884,60,o),
(888,76,o),
(876,81,c),
(873,83,o),
(870,82,o),
(867,84,c),
(827,98,o),
(790,125,o),
(748,129,cs),
(711,132,o),
(675,115,o),
(642,100,cs),
(625,92,o),
(608,82,o),
(589,78,cs),
(574,75,o),
(559,81,o),
(551,93,cs),
(543,107,o),
(543,125,o),
(543,142,cs),
(542,154,o),
(526,160,o),
(519,150,c),
(514,145,o),
(515,126,o),
(516,120,cs),
(518,101,o),
(523,80,o),
(536,67,cs),
(548,56,o),
(566,49,o),
(582,50,cs)
);
},
{
closed = 1;
nodes = (
(603,229,o),
(617,240,o),
(628,254,cs),
(645,278,o),
(656,306,o),
(663,335,cs),
(666,349,o),
(672,365,o),
(665,378,cs),
(662,384,o),
(653,388,o),
(645,389,cs),
(634,389,o),
(595,384,o),
(586,391,cs),
(583,393,o),
(581,404,o),
(581,409,cs),
(580,422,o),
(579,436,o),
(583,449,cs),
(586,461,o),
(573,470,o),
(564,461,cs),
(561,458,o),
(558,446,o),
(558,442,c),
(555,428,o),
(555,414,o),
(557,400,cs),
(559,393,o),
(561,384,o),
(566,378,cs),
(571,370,o),
(582,366,o),
(592,365,cs),
(610,365,o),
(628,367,o),
(646,367,c),
(646,366,o),
(647,366,o),
(647,366,c),
(649,348,o),
(629,296,o),
(620,281,cs),
(612,267,o),
(602,254,o),
(589,246,cs),
(551,225,o),
(496,244,o),
(470,278,cs),
(464,286,o),
(450,317,o),
(449,327,cs),
(448,331,o),
(450,336,o),
(448,340,cs),
(444,348,o),
(432,347,o),
(429,338,cs),
(425,319,o),
(434,299,o),
(443,283,cs),
(469,233,o),
(535,202,o),
(587,222,cs)
);
},
{
closed = 1;
nodes = (
(351,-56,o),
(338,-52,o),
(328,-43,cs),
(315,-32,o),
(308,-16,o),
(302,-1,cs),
(290,27,o),
(281,58,o),
(261,82,cs),
(245,102,o),
(215,109,o),
(190,113,c),
(187,118,o),
(181,121,o),
(175,120,cs),
(166,120,o),
(157,123,o),
(148,127,cs),
(114,141,o),
(79,161,o),
(54,190,c),
(53,192,o),
(50,195,o),
(51,197,cs),
(54,202,o),
(52,212,o),
(48,217,c),
(42,239,o),
(39,309,o),
(48,330,cs),
(49,332,o),
(50,335,o),
(52,335,c),
(70,331,o),
(88,329,o),
(107,327,cs),
(128,325,o),
(150,329,o),
(170,335,cs),
(215,348,o),
(259,368,o),
(299,394,cs),
(335,417,o),
(367,447,o),
(396,479,cs),
(452,543,o),
(490,620,o),
(546,684,cs),
(580,723,o),
(628,753,o),
(678,767,cs),
(729,783,o),
(783,788,o),
(836,789,cs),
(865,790,o),
(894,789,o),
(922,782,cs),
(937,779,o),
(951,773,o),
(961,763,cs),
(974,749,o),
(979,727,o),
(979,708,cs),
(979,698,o),
(972,647,o),
(970,637,cs),
(966,622,o),
(958,609,o),
(950,596,cs),
(938,577,o),
(878,493,o),
(871,473,cs),
(870,470,o),
(872,466,o),
(872,463,cs),
(870,448,o),
(870,432,o),
(877,418,cs),
(882,405,o),
(895,398,o),
(909,399,cs),
(935,402,o),
(958,422,o),
(983,427,cs),
(994,430,o),
(1008,426,o),
(1011,416,cs),
(1014,405,o),
(1003,378,o),
(998,369,cs),
(976,326,o),
(938,292,o),
(897,266,cs),
(891,262,o),
(870,251,o),
(862,251,cs),
(856,252,o),
(843,258,o),
(840,263,cs),
(835,272,l),
(826,280,o),
(812,272,o),
(815,260,cs),
(820,236,o),
(848,219,o),
(873,225,c),
(875,215,o),
(896,166,o),
(899,156,cs),
(904,142,o),
(908,128,o),
(912,114,cs),
(914,105,o),
(921,64,o),
(926,56,c),
(920,47,o),
(911,40,o),
(903,33,cs),
(875,10,o),
(843,-10,o),
(807,-19,cs),
(780,-26,o),
(750,-23,o),
(722,-19,cs),
(678,-13,o),
(635,-2,o),
(591,-1,cs),
(541,1,o),
(492,-20,o),
(445,-37,cs),
(419,-46,o),
(392,-57,o),
(364,-56,cs)
);
},
{
closed = 1;
nodes = (
(661,505,o),
(641,509,o),
(635,524,cs),
(630,536,o),
(633,550,o),
(636,561,cs),
(643,584,o),
(657,607,o),
(676,619,c),
(672,606,o),
(670,591,o),
(674,578,cs),
(678,562,o),
(689,548,o),
(700,536,cs),
(702,533,o),
(706,531,o),
(704,529,cs),
(696,521,o),
(687,513,o),
(676,510,cs)
);
},
{
closed = 1;
nodes = (
(710,498,o),
(729,518,o),
(745,538,cs),
(759,556,o),
(785,604,o),
(780,626,cs),
(778,636,o),
(760,644,o),
(751,647,cs),
(739,650,o),
(726,653,o),
(714,653,cs),
(711,653,o),
(709,654,o),
(706,655,cs),
(702,657,o),
(698,656,o),
(694,654,c),
(694,653,o),
(692,650,o),
(691,650,cs),
(677,647,o),
(664,641,o),
(653,631,cs),
(627,609,o),
(610,572,o),
(610,538,cs),
(610,523,o),
(616,507,o),
(628,497,cs),
(643,485,o),
(668,482,o),
(686,489,cs)
);
},
{
closed = 1;
nodes = (
(710,556,o),
(702,567,o),
(697,578,cs),
(690,594,o),
(696,613,o),
(704,629,c),
(717,630,o),
(732,629,o),
(745,625,cs),
(749,624,o),
(754,624,o),
(753,620,c),
(749,612,o),
(747,603,o),
(744,595,cs),
(737,579,o),
(729,562,o),
(719,547,c)
);
},
{
closed = 1;
nodes = (
(801,516,o),
(801,529,o),
(803,534,c),
(804,544,o),
(808,553,o),
(813,561,c),
(818,547,o),
(826,533,o),
(839,525,c),
(835,521,o),
(831,517,o),
(826,514,cs),
(820,510,o),
(810,507,o),
(805,512,cs)
);
},
{
closed = 1;
nodes = (
(873,516,o),
(908,573,o),
(902,609,cs),
(901,616,o),
(894,628,o),
(888,631,cs),
(880,635,o),
(872,631,o),
(869,623,c),
(841,639,o),
(812,610,o),
(796,582,cs),
(787,568,o),
(780,552,o),
(778,535,cs),
(777,524,o),
(777,512,o),
(783,502,cs),
(794,481,o),
(822,483,o),
(842,496,cs)
);
},
{
closed = 1;
nodes = (
(844,549,o),
(838,559,o),
(836,569,cs),
(834,575,o),
(833,581,o),
(836,586,cs),
(837,588,o),
(836,592,o),
(838,594,cs),
(842,597,o),
(851,603,o),
(856,602,c),
(858,601,o),
(858,598,o),
(860,597,c),
(862,594,o),
(868,593,o),
(867,589,cs),
(865,574,o),
(860,558,o),
(852,544,c)
);
}
);
width = 1058;
}
);
note = G;
unicode = 71;
},
{
glyphname = H;
layers = (
{
layerId = m01;
shapes = (
{
closed = 1;
nodes = (
(289,678,o),
(291,691,o),
(282,695,c),
(278,698,o),
(271,697,o),
(268,702,cs),
(264,708,o),
(270,722,o),
(273,729,c),
(293,723,o),
(320,725,o),
(325,746,cs),
(328,756,o),
(325,770,o),
(316,777,cs),
(301,789,o),
(281,774,o),
(269,759,c),
(267,776,o),
(278,818,o),
(290,830,c),
(292,833,o),
(296,836,o),
(297,839,cs),
(299,849,o),
(288,856,o),
(280,850,cs),
(264,837,o),
(257,815,o),
(253,795,cs),
(250,783,o),
(247,771,o),
(248,758,cs),
(248,752,o),
(250,746,o),
(254,741,cs),
(255,739,o),
(255,739,o),
(254,736,c),
(242,714,o),
(244,686,o),
(267,679,c),
(271,677,o),
(276,675,o),
(280,676,cs)
);
},
{
closed = 1;
nodes = (
(292,755,o),
(301,766,o),
(305,757,cs),
(309,748,o),
(296,746,o),
(285,747,c)
);
},
{
closed = 1;
nodes = (
(899,-95,o),
(916,-8,o),
(920,10,cs),
(922,23,o),
(939,99,o),
(942,112,c),
(971,115,o),
(1019,120,o),
(1001,143,c),
(1003,148,o),
(1003,155,o),
(999,160,cs),
(970,195,o),
(942,235,o),
(927,279,cs),
(925,284,o),
(918,306,o),
(915,310,cs),
(909,318,o),
(899,320,o),
(892,314,cs),
(889,312,o),
(875,312,o),
(871,311,c),
(799,303,o),
(724,302,o),
(654,317,cs),
(651,318,o),
(651,318,o),
(651,321,cs),
(652,333,o),
(661,405,o),
(662,417,c),
(668,418,o),
(697,426,o),
(702,428,cs),
(712,431,o),
(715,447,o),
(708,455,c),
(709,459,o),
(708,464,o),
(706,468,cs),
(698,482,o),
(647,565,o),
(639,579,cs),
(601,643,o),
(563,708,o),
(523,771,cs),
(518,780,o),
(501,810,o),
(492,814,cs),
(482,820,o),
(471,811,o),
(470,800,c),
(465,798,o),
(462,794,o),
(460,789,cs),
(431,732,o),
(395,678,o),
(360,624,c),
(359,632,o),
(358,660,o),
(353,667,cs),
(349,671,o),
(339,673,o),
(333,672,cs),
(308,667,o),
(269,662,o),
(282,640,c),
(280,626,o),
(282,613,o),
(284,599,cs),
(287,580,o),
(290,561,o),
(293,542,c),
(294,539,o),
(295,536,o),
(297,535,c),
(299,533,o),
(298,532,o),
(297,531,cs),
(282,509,o),
(267,488,o),
(254,465,c),
(254,464,o),
(252,462,o),
(251,461,cs),
(245,456,o),
(245,446,o),
(251,441,cs),
(270,426,o),
(295,420,o),
(319,414,c),
(317,409,o),
(316,404,o),
(316,399,cs),
(316,387,o),
(319,320,o),
(320,308,cs),
(320,306,o),
(319,305,o),
(317,305,c),
(283,293,o),
(144,299,o),
(107,302,c),
(103,306,o),
(98,306,o),
(93,304,c),
(84,304,o),
(79,295,o),
(82,287,c),
(57,233,o),
(30,179,o),
(16,122,c),
(9,118,o),
(7,110,o),
(11,103,cs),
(19,90,o),
(54,89,o),
(69,89,c),
(69,77,o),
(74,65,o),
(76,53,cs),
(82,21,o),
(97,-75,o),
(123,-96,cs),
(135,-105,o),
(150,-94,o),
(147,-80,cs),
(141,-59,o),
(113,65,o),
(108,86,c),
(108,88,o),
(107,89,o),
(110,89,cs),
(176,92,o),
(241,102,o),
(307,106,cs),
(310,106,o),
(321,108,o),
(323,107,cs),
(327,105,o),
(330,103,o),
(334,104,cs),
(335,104,o),
(339,106,o),
(340,106,c),
(339,106,o),
(340,105,o),
(340,105,c),
(343,82,o),
(358,-59,o),
(361,-82,cs),
(361,-86,o),
(364,-99,o),
(367,-102,cs),
(372,-108,o),
(381,-105,o),
(383,-97,c),
(384,-95,o),
(385,-84,o),
(384,-81,c),
(375,52,o),
(362,186,o),
(351,319,cs),
(350,331,o),
(346,398,o),
(344,409,c),
(438,395,o),
(536,397,o),
(631,412,c),
(634,413,o),
(634,412,o),
(633,410,c),
(621,321,o),
(613,232,o),
(606,143,c),
(596,139,o),
(596,127,o),
(604,120,c),
(602,92,o),
(586,-54,o),
(587,-82,cs),
(587,-85,o),
(589,-96,o),
(591,-99,cs),
(597,-107,o),
(609,-106,o),
(612,-97,cs),
(615,-87,o),
(618,-41,o),
(619,-31,cs),
(623,14,o),
(629,59,o),
(633,105,cs),
(633,107,o),
(635,106,o),
(636,106,cs),
(724,86,o),
(817,98,o),
(907,107,c),
(895,71,o),
(887,34,o),
(879,-4,cs),
(876,-21,o),
(861,-91,o),
(865,-108,cs),
(867,-122,o),
(885,-124,o),
(891,-112,cs)
);
},
{
closed = 1;
nodes = (
(434,688,o),
(474,759,o),
(481,773,c),
(501,740,o),
(518,706,o),
(537,672,c),
(523,662,o),
(501,657,o),
(494,673,cs),
(492,678,o),
(485,680,o),
(480,679,cs),
(473,678,o),
(445,658,o),
(439,655,c),
(432,661,o),
(428,667,o),
(426,675,c)
);
},
{
closed = 1;
nodes = (
(577,548,o),
(571,554,o),
(565,559,c),
(562,563,o),
(556,562,o),
(552,560,c),
(549,557,o),
(547,551,o),
(542,549,cs),
(535,545,o),
(525,550,o),
(523,559,cs),
(518,588,o),
(502,624,o),
(476,609,cs),
(456,598,o),
(444,572,o),
(440,550,cs),
(440,549,o),
(434,550,o),
(432,551,cs),
(428,552,o),
(419,560,o),
(417,564,c),
(413,569,o),
(405,573,o),
(398,570,cs),
(395,568,o),
(380,555,o),
(376,552,cs),
(373,550,o),
(369,548,o),
(365,549,cs),
(361,549,o),
(359,552,o),
(357,555,cs),
(356,557,o),
(357,559,o),
(357,560,cs),
(357,563,o),
(355,566,o),
(356,568,cs),
(375,596,o),
(394,625,o),
(413,654,c),
(419,644,o),
(429,634,o),
(441,634,cs),
(450,634,o),
(473,651,o),
(481,656,c),
(493,643,o),
(511,638,o),
(529,642,cs),
(536,644,o),
(542,648,o),
(548,652,c),
(566,621,o),
(584,589,o),
(603,559,c),
(604,558,o),
(606,556,o),
(605,556,c),
(601,552,o),
(590,545,o),
(585,546,cs)
);
},
{
closed = 1;
nodes = (
(302,631,o),
(302,639,o),
(306,640,c),
(314,644,o),
(324,645,o),
(333,648,c),
(335,630,o),
(337,611,o),
(339,593,c),
(331,580,o),
(322,567,o),
(313,554,c),
(311,564,o),
(303,617,o),
(302,627,cs)
);
},
{
closed = 1;
nodes = (
(470,571,o),
(474,581,o),
(482,587,cs),
(493,596,o),
(498,576,o),
(501,562,cs),
(503,554,o),
(509,504,o),
(512,495,c),
(499,495,o),
(485,494,o),
(472,494,c),
(467,493,o),
(461,491,o),
(460,496,cs),
(458,517,o),
(460,540,o),
(466,561,cs)
);
},
{
closed = 1;
nodes = (
(295,450,o),
(288,452,o),
(282,454,c),
(290,465,o),
(334,531,o),
(341,543,c),
(350,529,o),
(363,525,o),
(377,530,cs),
(387,534,o),
(396,541,o),
(403,548,c),
(410,541,o),
(426,528,o),
(436,530,cs),
(438,530,o),
(437,528,o),
(437,526,cs),
(437,516,o),
(438,505,o),
(439,495,c),
(435,495,o),
(420,500,o),
(417,500,cs),
(405,500,o),
(402,485,o),
(412,480,cs),
(418,477,o),
(445,472,o),
(452,471,cs),
(465,471,o),
(533,474,o),
(546,475,cs),
(559,476,o),
(560,494,o),
(546,496,cs),
(544,496,o),
(533,497,o),
(531,496,c),
(532,502,o),
(528,523,o),
(528,528,c),
(539,526,o),
(552,528,o),
(561,535,c),
(568,529,o),
(577,525,o),
(586,525,cs),
(597,526,o),
(608,532,o),
(616,539,c),
(635,510,o),
(656,483,o),
(677,456,c),
(619,442,o),
(559,438,o),
(499,436,cs),
(433,434,o),
(366,435,o),
(302,449,cs)
);
},
{
closed = 1;
nodes = (
(660,209,o),
(649,213,o),
(641,207,c),
(643,235,o),
(646,264,o),
(648,292,c),
(681,282,o),
(715,279,o),
(749,278,cs),
(796,275,o),
(843,276,o),
(889,286,c),
(891,286,o),
(891,286,o),
(892,283,cs),
(895,272,o),
(898,261,o),
(902,250,cs),
(903,248,o),
(898,246,o),
(896,244,cs),
(872,219,o),
(829,188,o),
(800,206,cs),
(797,208,o),
(784,218,o),
(780,219,cs),
(776,220,o),
(767,220,o),
(763,217,c),
(752,205,o),
(708,187,o),
(692,186,cs),
(681,186,o),
(665,189,o),
(662,200,cs)
);
},
{
closed = 1;
nodes = (
(113,190,o),
(107,199,o),
(108,204,cs),
(111,216,o),
(95,221,o),
(85,214,c),
(88,222,o),
(106,265,o),
(108,273,cs),
(109,277,o),
(115,275,o),
(119,275,cs),
(170,269,o),
(221,266,o),
(271,272,cs),
(279,273,o),
(315,277,o),
(322,280,c),
(323,273,o),
(327,232,o),
(327,225,c),
(324,222,o),
(322,218,o),
(320,215,cs),
(308,194,o),
(286,182,o),
(262,183,cs),
(255,183,o),
(247,183,o),
(240,186,cs),
(233,190,o),
(228,198,o),
(225,206,cs),
(223,213,o),
(215,215,o),
(208,213,c),
(206,211,o),
(195,207,o),
(193,205,cs),
(187,200,o),
(159,183,o),
(152,180,cs),
(142,176,o),
(123,178,o),
(116,187,cs)
);
},
{
closed = 1;
nodes = (
(680,126,o),
(657,127,o),
(635,133,c),
(637,151,o),
(638,170,o),
(639,188,c),
(647,176,o),
(661,166,o),
(675,163,cs),
(692,160,o),
(711,164,o),
(727,169,cs),
(744,175,o),
(760,183,o),
(775,194,c),
(785,186,o),
(797,177,o),
(810,175,cs),
(824,172,o),
(839,175,o),
(853,180,cs),
(876,189,o),
(896,207,o),
(912,226,c),
(929,195,o),
(953,168,o),
(978,144,c),
(969,142,o),
(947,137,o),
(940,141,cs),
(934,144,o),
(925,142,o),
(919,138,c),
(847,133,o),
(775,123,o),
(703,125,cs)
);
},
{
closed = 1;
nodes = (
(47,117,o),
(47,117,o),
(48,120,cs),
(57,147,o),
(68,174,o),
(79,200,cs),
(80,202,o),
(81,204,o),
(81,202,cs),
(82,192,o),
(95,172,o),
(103,166,cs),
(119,154,o),
(145,152,o),
(164,160,cs),
(179,166,o),
(192,175,o),
(205,185,c),
(208,186,o),
(208,186,o),
(209,184,cs),
(215,175,o),
(223,168,o),
(233,164,cs),
(268,152,o),
(307,162,o),
(331,189,c),
(333,171,o),
(335,153,o),
(337,135,cs),
(337,131,o),
(334,133,o),
(330,134,c),
(314,135,o),
(297,135,o),
(280,134,cs),
(203,130,o),
(127,116,o),
(50,117,cs)
);
},
{
closed = 1;
nodes = (
(590,268,o),
(592,321,o),
(592,333,cs),
(593,346,o),
(592,361,o),
(584,372,cs),
(572,388,o),
(549,396,o),
(534,384,cs),
(521,374,o),
(514,333,o),
(514,316,cs),
(513,303,o),
(513,270,o),
(522,260,cs),
(529,253,o),
(556,255,o),
(566,255,c),
(573,247,o),
(585,248,o),
(587,257,cs)
);
},
{
closed = 1;
nodes = (
(550,369,o),
(558,366,o),
(564,361,cs),
(572,354,o),
(570,341,o),
(570,330,c),
(566,330,o),
(543,327,o),
(538,326,c),
(540,339,o),
(542,352,o),
(547,363,cs)
);
},
{
closed = 1;
nodes = (
(537,287,o),
(537,293,o),
(537,299,c),
(543,298,o),
(563,304,o),
(569,305,c),
(568,297,o),
(568,290,o),
(567,282,cs),
(567,279,o),
(566,279,o),
(563,279,c),
(560,280,o),
(541,281,o),
(538,281,c)
);
},
{
closed = 1;
nodes = (
(407,237,o),
(444,244,o),
(452,244,cs),
(467,243,o),
(464,265,o),
(463,280,cs),
(463,295,o),
(461,354,o),
(454,368,cs),
(445,387,o),
(414,390,o),
(400,373,cs),
(390,361,o),
(388,343,o),
(386,327,cs),
(384,303,o),
(383,277,o),
(390,254,c),
(381,247,o),
(387,232,o),
(399,235,cs)
);
},
{
closed = 1;
nodes = (
(430,318,o),
(412,315,o),
(408,314,c),
(408,322,o),
(409,331,o),
(411,339,cs),
(412,345,o),
(415,358,o),
(420,361,cs),
(425,363,o),
(432,363,o),
(435,359,cs),
(440,352,o),
(440,324,o),
(440,316,cs),
(440,312,o),
(438,317,o),
(435,317,cs)
);
},
{
closed = 1;
nodes = (
(408,277,o),
(407,284,o),
(407,291,c),
(414,293,o),
(436,295,o),
(441,300,c),
(441,296,o),
(442,271,o),
(442,267,c),
(433,265,o),
(424,263,o),
(415,261,cs),
(411,260,o),
(410,265,o),
(409,270,cs)
);
},
{
closed = 1;
nodes = (
(552,-60,o),
(554,-40,o),
(554,-36,cs),
(557,-3,o),
(558,29,o),
(559,62,cs),
(560,74,o),
(563,130,o),
(560,142,cs),
(556,159,o),
(542,173,o),
(532,188,cs),
(527,195,o),
(510,217,o),
(510,225,cs),
(510,238,o),
(493,240,o),
(488,228,cs),
(487,226,o),
(486,223,o),
(484,221,c),
(479,219,o),
(471,205,o),
(468,201,cs),
(461,190,o),
(426,128,o),
(420,116,cs),
(414,102,o),
(412,85,o),
(413,69,cs),
(414,50,o),
(427,-47,o),
(432,-66,cs),
(434,-77,o),
(450,-77,o),
(452,-66,cs),
(454,-57,o),
(451,-47,o),
(450,-38,cs),
(446,-17,o),
(436,73,o),
(438,93,cs),
(440,107,o),
(467,155,o),
(475,167,cs),
(476,168,o),
(477,170,o),
(477,169,cs),
(476,109,o),
(470,49,o),
(470,-11,cs),
(470,-27,o),
(469,-45,o),
(476,-60,cs),
(481,-71,o),
(498,-68,o),
(498,-56,cs),
(498,-54,o),
(495,-45,o),
(495,-43,c),
(492,-30,o),
(492,-17,o),
(492,-3,cs),
(493,63,o),
(500,129,o),
(499,195,c),
(505,185,o),
(536,146,o),
(538,134,cs),
(543,105,o),
(533,-25,o),
(529,-54,cs),
(529,-56,o),
(528,-64,o),
(528,-66,cs),
(529,-86,o),
(554,-84,o),
(552,-64,cs)
);
},
{
closed = 1;
nodes = (
(825,-61,o),
(820,2,o),
(818,15,cs),
(815,33,o),
(811,53,o),
(798,64,cs),
(788,74,o),
(770,75,o),
(756,73,cs),
(729,68,o),
(701,55,o),
(685,32,cs),
(676,19,o),
(671,3,o),
(669,-12,cs),
(667,-28,o),
(666,-44,o),
(667,-60,cs),
(668,-69,o),
(674,-79,o),
(684,-77,cs),
(691,-75,o),
(694,-68,o),
(692,-61,c),
(705,-59,o),
(788,-54,o),
(801,-53,c),
(801,-56,o),
(801,-73,o),
(802,-76,cs),
(805,-88,o),
(822,-87,o),
(824,-74,cs)
);
},
{
closed = 1;
nodes = (
(718,37,o),
(737,46,o),
(755,50,cs),
(764,52,o),
(773,54,o),
(781,50,cs),
(791,45,o),
(796,18,o),
(797,6,c),
(769,18,o),
(736,19,o),
(705,23,c)
);
},
{
closed = 1;
nodes = (
(727,-11,o),
(764,-9,o),
(796,-22,c),
(797,-22,o),
(799,-21,o),
(800,-22,c),
(799,-22,o),
(800,-23,o),
(800,-23,c),
(799,-23,o),
(801,-29,o),
(800,-29,cs),
(786,-30,o),
(703,-36,o),
(689,-37,c),
(689,-27,o),
(691,-16,o),
(693,-5,c)
);
},
{
closed = 1;
nodes = (
(336,-69,o),
(335,-67,o),
(334,-65,cs),
(328,-54,o),
(315,7,o),
(312,19,cs),
(308,32,o),
(304,45,o),
(295,55,cs),
(279,73,o),
(233,73,o),
(210,66,cs),
(199,62,o),
(188,53,o),
(183,43,cs),
(175,23,o),
(176,-44,o),
(180,-64,cs),
(181,-67,o),
(185,-75,o),
(188,-77,cs),
(197,-84,o),
(208,-74,o),
(204,-64,cs),
(203,-60,o),
(201,-57,o),
(205,-57,cs),
(238,-59,o),
(271,-54,o),
(304,-56,c),
(307,-66,o),
(310,-77,o),
(318,-83,cs),
(326,-90,o),
(339,-82,o),
(336,-71,c)
);
},
{
closed = 1;
nodes = (
(220,50,o),
(254,50,o),
(269,47,c),
(277,44,o),
(283,36,o),
(286,29,c),
(257,28,o),
(229,21,o),
(201,18,c),
(202,26,o),
(203,35,o),
(209,40,cs)
);
},
{
closed = 1;
nodes = (
(201,-35,o),
(201,-33,o),
(201,-32,cs),
(201,-23,o),
(201,-14,o),
(201,-5,c),
(214,-3,o),
(279,7,o),
(292,6,c),
(295,-7,o),
(297,-20,o),
(300,-33,c),
(286,-31,o),
(216,-35,o),
(202,-35,cs)
);
}
);
width = 1011;
}
);
note = H;
unicode = 72;
},
{
glyphname = I;
layers = (
{
layerId = m01;
shapes = (
{
closed = 1;
nodes = (
(954,-84,o),
(1014,-64,o),
(1060,-28,cs),
(1110,12,o),
(1145,71,o),
(1170,130,cs),
(1195,185,o),
(1211,245,o),
(1216,305,cs),
(1220,363,o),
(1209,420,o),
(1182,472,cs),
(1161,513,o),
(1133,551,o),
(1101,585,cs),
(1081,605,o),
(1058,624,o),
(1033,638,cs),
(1008,652,o),
(979,661,o),
(951,668,cs),
(876,686,o),
(798,695,o),
(721,700,cs),
(712,701,o),
(704,693,o),
(709,684,c),
(709,683,o),
(707,683,o),
(706,682,c),
(668,670,o),
(628,662,o),
(593,642,cs),
(557,622,o),
(526,591,o),
(501,558,cs),
(467,510,o),
(441,454,o),
(430,396,cs),
(418,332,o),
(423,263,o),
(442,200,c),
(425,186,o),
(409,172,o),
(391,159,cs),
(380,152,o),
(368,145,o),
(355,142,cs),
(342,140,o),
(328,144,o),
(316,150,cs),
(281,167,o),
(248,192,o),
(211,204,cs),
(188,212,o),
(164,214,o),
(140,212,cs),
(115,210,o),
(90,202,o),
(66,198,cs),
(53,196,o),
(40,195,o),
(28,198,c),
(24,205,o),
(21,207,o),
(13,205,cs),
(0,202,o),
(0,188,o),
(11,179,c),
(-1,164,o),
(24,155,o),
(42,149,cs),
(76,139,o),
(112,140,o),
(147,133,cs),
(168,130,o),
(190,123,o),
(207,109,cs),
(226,94,o),
(239,72,o),
(256,54,cs),
(274,33,o),
(298,14,o),
(325,9,cs),
(353,4,o),
(384,10,o),
(409,24,cs),
(439,40,o),
(464,65,o),
(490,88,c),
(492,89,o),
(493,90,o),
(494,88,cs),
(528,35,o),
(575,-12,o),
(630,-43,cs),
(709,-87,o),
(807,-100,o),
(896,-90,cs)
);
},
{
closed = 1;
nodes = (
(853,-51,o),
(889,-19,o),
(923,11,cs),
(925,13,o),
(925,13,o),
(928,13,cs),
(936,12,o),
(944,13,o),
(952,15,cs),
(963,19,o),
(962,34,o),
(950,36,cs),
(948,36,o),
(942,34,o),
(941,34,cs),
(932,32,o),
(921,37,o),
(915,31,c),
(912,40,o),
(913,49,o),
(913,58,cs),
(914,69,o),
(899,73,o),
(894,63,cs),
(890,55,o),
(892,32,o),
(895,24,cs),
(896,21,o),
(899,18,o),
(897,16,cs),
(867,-10,o),
(835,-38,o),
(797,-50,cs),
(776,-56,o),
(754,-54,o),
(732,-51,cs),
(729,-51,o),
(726,-54,o),
(722,-53,cs),
(673,-39,o),
(625,-14,o),
(586,19,c),
(609,19,o),
(631,31,o),
(650,44,cs),
(655,47,o),
(674,60,o),
(679,62,cs),
(690,65,o),
(703,61,o),
(714,58,cs),
(731,54,o),
(748,49,o),
(764,53,cs),
(776,55,o),
(787,63,o),
(796,71,cs),
(801,76,o),
(819,99,o),
(822,105,cs),
(828,118,o),
(811,125,o),
(803,114,cs),
(793,100,o),
(784,85,o),
(770,77,cs),
(762,73,o),
(753,72,o),
(744,73,cs),
(732,74,o),
(720,79,o),
(707,82,c),
(705,83,o),
(705,82,o),
(706,86,cs),
(712,103,o),
(719,119,o),
(724,137,cs),
(729,150,o),
(709,159,o),
(704,145,cs),
(702,138,o),
(685,94,o),
(683,87,c),
(682,86,o),
(681,84,o),
(680,84,cs),
(665,81,o),
(653,72,o),
(641,64,cs),
(627,55,o),
(613,47,o),
(597,43,cs),
(587,41,o),
(575,42,o),
(566,46,c),
(564,53,o),
(558,56,o),
(551,54,c),
(536,69,o),
(524,87,o),
(512,105,c),
(519,115,o),
(513,127,o),
(501,125,c),
(471,178,o),
(452,239,o),
(448,300,c),
(462,269,o),
(490,244,o),
(520,226,cs),
(531,219,o),
(544,213,o),
(552,203,cs),
(559,194,o),
(588,152,o),
(597,145,cs),
(618,129,o),
(644,129,o),
(666,143,cs),
(674,148,o),
(672,160,o),
(663,162,cs),
(657,163,o),
(652,158,o),
(646,156,cs),
(639,153,o),
(630,153,o),
(623,155,cs),
(614,157,o),
(607,163,o),
(601,170,c),
(609,171,o),
(635,178,o),
(642,183,cs),
(652,192,o),
(642,208,o),
(630,202,cs),
(624,200,o),
(606,190,o),
(599,192,cs),
(594,194,o),
(590,193,o),
(587,189,c),
(579,201,o),
(571,213,o),
(560,223,cs),
(549,234,o),
(534,240,o),
(522,249,cs),
(504,262,o),
(486,277,o),
(473,295,cs),
(466,306,o),
(460,320,o),
(460,333,c),
(459,336,o),
(460,340,o),
(459,343,cs),
(458,348,o),
(452,351,o),
(447,351,c),
(448,370,o),
(451,388,o),
(455,407,c),
(469,395,o),
(480,381,o),
(493,369,cs),
(505,358,o),
(519,347,o),
(534,346,cs),
(555,344,o),
(576,353,o),
(595,361,c),
(598,350,o),
(601,339,o),
(609,330,cs),
(616,322,o),
(627,316,o),
(638,316,cs),
(649,316,o),
(653,332,o),
(642,337,cs),
(638,339,o),
(632,339,o),
(628,342,cs),
(622,346,o),
(617,363,o),
(617,370,c),
(636,378,o),
(655,386,o),
(675,389,cs),
(700,394,o),
(725,394,o),
(749,393,cs),
(763,393,o),
(770,411,o),
(756,415,cs),
(744,418,o),
(698,414,o),
(685,413,c),
(691,423,o),
(701,432,o),
(711,439,cs),
(723,446,o),
(720,462,o),
(706,460,cs),
(703,460,o),
(695,454,o),
(692,453,c),
(677,442,o),
(665,425,o),
(659,407,c),
(641,402,o),
(560,367,o),
(542,366,cs),
(534,365,o),
(526,368,o),
(520,373,cs),
(500,387,o),
(486,408,o),
(466,423,cs),
(464,425,o),
(460,427,o),
(461,430,cs),
(468,453,o),
(477,475,o),
(488,497,c),
(493,496,o),
(500,497,o),
(502,502,cs),
(507,511,o),
(528,516,o),
(538,517,cs),
(556,518,o),
(574,514,o),
(591,511,cs),
(606,508,o),
(609,528,o),
(595,531,cs),
(566,536,o),
(535,541,o),
(508,530,c),
(527,559,o),
(550,585,o),
(577,606,cs),
(579,608,o),
(582,607,o),
(584,608,c),
(596,611,o),
(609,613,o),
(622,612,c),
(625,611,o),
(631,612,o),
(632,608,cs),
(635,588,o),
(641,567,o),
(652,550,cs),
(659,538,o),
(676,535,o),
(690,529,cs),
(702,523,o),
(712,541,o),
(699,548,cs),
(695,550,o),
(674,556,o),
(671,559,cs),
(664,566,o),
(656,595,o),
(654,604,c),
(669,599,o),
(684,592,o),
(698,586,cs),
(712,580,o),
(722,597,o),
(709,603,cs),
(681,615,o),
(653,629,o),
(624,632,cs),
(621,632,o),
(620,632,o),
(623,633,cs),
(640,641,o),
(728,667,o),
(747,671,cs),
(751,672,o),
(757,676,o),
(760,672,c),
(770,663,o),
(814,619,o),
(820,606,c),
(822,604,o),
(819,601,o),
(819,598,cs),
(819,594,o),
(822,591,o),
(823,588,cs),
(825,583,o),
(824,577,o),
(821,573,c),
(817,565,o),
(811,558,o),
(808,550,cs),
(802,538,o),
(803,522,o),
(808,510,cs),
(812,500,o),
(820,492,o),
(828,485,cs),
(838,476,o),
(852,490,o),
(843,500,cs),
(839,505,o),
(834,508,o),
(830,513,cs),
(826,519,o),
(824,528,o),
(825,536,cs),
(827,545,o),
(834,553,o),
(839,561,cs),
(842,567,o),
(844,574,o),
(845,581,c),
(850,591,o),
(844,604,o),
(840,615,c),
(848,613,o),
(856,610,o),
(862,605,cs),
(869,599,o),
(874,591,o),
(878,583,cs),
(884,573,o),
(899,576,o),
(899,588,cs),
(899,593,o),
(890,606,o),
(887,610,cs),
(875,628,o),
(850,637,o),
(829,639,cs),
(826,639,o),
(823,639,o),
(821,641,cs),
(813,650,o),
(805,660,o),
(796,669,c),
(841,663,o),
(885,657,o),
(930,647,cs),
(931,647,o),
(932,642,o),
(933,640,cs),
(943,621,o),
(983,515,o),
(990,495,cs),
(995,481,o),
(1015,486,o),
(1011,500,cs),
(1008,507,o),
(994,546,o),
(991,553,c),
(1004,550,o),
(1016,548,o),
(1028,544,c),
(1030,544,o),
(1037,541,o),
(1038,541,cs),
(1050,538,o),
(1057,553,o),
(1047,561,cs),
(1038,568,o),
(994,576,o),
(982,578,c),
(979,586,o),
(961,632,o),
(958,640,c),
(985,632,o),
(1012,623,o),
(1036,607,cs),
(1081,577,o),
(1116,533,o),
(1144,487,c),
(1143,483,o),
(1142,459,o),
(1141,455,c),
(1136,456,o),
(1131,453,o),
(1126,453,cs),
(1120,453,o),
(1084,452,o),
(1078,452,cs),
(1063,452,o),
(1062,432,o),
(1077,432,cs),
(1083,432,o),
(1118,432,o),
(1123,432,cs),
(1128,432,o),
(1136,435,o),
(1134,431,cs),
(1132,427,o),
(1121,410,o),
(1119,407,cs),
(1114,397,o),
(1126,387,o),
(1135,393,cs),
(1146,402,o),
(1160,438,o),
(1162,453,c),
(1176,421,o),
(1186,386,o),
(1189,351,cs),
(1193,294,o),
(1181,234,o),
(1162,180,c),
(1160,189,o),
(1155,198,o),
(1149,204,cs),
(1145,207,o),
(1133,217,o),
(1131,221,c),
(1131,222,o),
(1132,224,o),
(1132,225,c),
(1135,235,o),
(1121,242,o),
(1114,233,cs),
(1110,229,o),
(1109,221,o),
(1111,215,cs),
(1115,200,o),
(1137,194,o),
(1140,178,cs),
(1143,168,o),
(1142,157,o),
(1140,147,cs),
(1139,141,o),
(1137,135,o),
(1137,129,cs),
(1137,127,o),
(1139,124,o),
(1137,121,cs),
(1113,72,o),
(1082,22,o),
(1038,-11,c),
(1043,3,o),
(1047,19,o),
(1050,34,cs),
(1054,47,o),
(1036,54,o),
(1031,42,cs),
(1029,38,o),
(1023,16,o),
(1022,12,cs),
(1018,-3,o),
(1012,-17,o),
(1007,-31,c),
(948,-62,o),
(877,-70,o),
(810,-67,c)
);
},
{
closed = 1;
nodes = (
(1036,162,o),
(1046,182,o),
(1054,202,cs),
(1069,239,o),
(1079,281,o),
(1075,322,cs),
(1073,345,o),
(1066,369,o),
(1053,388,cs),
(1039,409,o),
(1018,426,o),
(996,438,cs),
(979,447,o),
(960,456,o),
(940,459,cs),
(938,459,o),
(929,456,o),
(927,456,cs),
(904,452,o),
(880,446,o),
(863,431,cs),
(831,403,o),
(809,309,o),
(812,268,cs),
(816,226,o),
(835,187,o),
(867,160,cs),
(908,123,o),
(980,110,o),
(1020,148,cs)
);
},
{
closed = 1;
nodes = (
(935,391,o),
(932,413,o),
(924,433,cs),
(922,438,o),
(933,431,o),
(938,432,cs),
(944,433,o),
(960,426,o),
(966,424,c),
(959,408,o),
(952,391,o),
(946,374,c),
(946,373,o),
(946,369,o),
(946,369,c),
(944,365,o),
(938,366,o),
(938,370,cs)
);
},
{
closed = 1;
nodes = (
(881,370,o),
(870,379,o),
(860,389,c),
(864,396,o),
(868,404,o),
(874,411,cs),
(881,418,o),
(890,423,o),
(899,426,cs),
(901,427,o),
(904,429,o),
(905,427,cs),
(908,417,o),
(918,376,o),
(918,365,c),
(917,361,o),
(919,356,o),
(917,352,cs),
(916,350,o),
(915,345,o),
(913,345,cs),
(907,346,o),
(896,358,o),
(892,361,cs)
);
},
{
closed = 1;
nodes = (
(971,386,o),
(977,400,o),
(983,415,c),
(984,416,o),
(986,415,o),
(987,414,c),
(998,408,o),
(1009,400,o),
(1019,391,c),
(1006,381,o),
(993,370,o),
(980,360,c),
(979,358,o),
(977,356,o),
(975,357,c),
(972,362,o),
(965,365,o),
(966,370,cs)
);
},
{
closed = 1;
nodes = (
(992,340,o),
(1027,370,o),
(1033,375,c),
(1045,357,o),
(1052,335,o),
(1053,314,c),
(1044,313,o),
(994,306,o),
(986,305,c),
(987,315,o),
(987,326,o),
(985,335,c)
);
},
{
closed = 1;
nodes = (
(843,341,o),
(843,340,o),
(844,344,cs),
(847,352,o),
(849,360,o),
(852,368,c),
(860,361,o),
(893,332,o),
(902,327,c),
(903,327,o),
(907,326,o),
(907,326,c),
(908,325,o),
(908,318,o),
(907,319,c),
(898,322,o),
(855,339,o),
(846,340,c)
);
},
{
closed = 1;
nodes = (
(834,289,o),
(836,305,o),
(839,320,c),
(848,320,o),
(895,301,o),
(904,299,c),
(902,287,o),
(902,274,o),
(908,264,c),
(905,260,o),
(903,254,o),
(902,249,cs),
(900,239,o),
(877,196,o),
(873,187,c),
(850,209,o),
(837,242,o),
(835,273,cs)
);
},
{
closed = 1;
nodes = (
(1020,240,o),
(1007,249,o),
(996,260,cs),
(990,266,o),
(986,274,o),
(978,278,c),
(979,280,o),
(979,284,o),
(981,284,c),
(984,283,o),
(995,285,o),
(998,285,cs),
(1016,287,o),
(1034,290,o),
(1052,293,c),
(1050,271,o),
(1045,249,o),
(1038,227,cs),
(1037,224,o),
(1036,228,o),
(1032,231,cs)
);
},
{
closed = 1;
nodes = (
(958,251,o),
(967,257,o),
(969,260,c),
(984,242,o),
(1003,227,o),
(1022,213,c),
(1026,211,o),
(1029,210,o),
(1032,211,c),
(1026,196,o),
(1019,181,o),
(1008,169,cs),
(1002,162,o),
(993,156,o),
(984,153,c),
(974,184,o),
(965,216,o),
(958,247,c)
);
},
{
closed = 1;
nodes = (
(900,198,o),
(915,222,o),
(924,248,c),
(927,246,o),
(938,245,o),
(939,241,cs),
(945,210,o),
(953,179,o),
(964,149,c),
(938,148,o),
(909,156,o),
(889,172,c)
);
},
{
closed = 1;
nodes = (
(310,37,o),
(296,47,o),
(285,57,cs),
(259,81,o),
(242,115,o),
(212,135,cs),
(188,150,o),
(158,156,o),
(129,160,cs),
(102,163,o),
(73,165,o),
(46,172,c),
(78,174,o),
(109,185,o),
(141,188,cs),
(159,190,o),
(177,190,o),
(194,185,cs),
(228,176,o),
(258,156,o),
(289,138,cs),
(308,128,o),
(330,118,o),
(351,119,cs),
(369,120,o),
(385,129,o),
(399,138,cs),
(416,150,o),
(432,163,o),
(448,177,cs),
(449,178,o),
(450,177,o),
(451,175,cs),
(459,153,o),
(469,132,o),
(481,111,c),
(469,101,o),
(411,52,o),
(397,45,cs),
(375,33,o),
(348,28,o),
(324,34,cs)
);
}
);
width = 1244;
}
);
note = I;
unicode = (73,204,205,206,207);
},
{
glyphname = J;
layers = (
{
layerId = m01;
shapes = (
{
closed = 1;
nodes = (
(623,-101,o),
(673,-85,o),
(720,-63,cs),
(781,-34,o),
(833,13,o),
(876,63,cs),
(899,89,o),
(920,119,o),
(931,151,cs),
(945,196,o),
(946,245,o),
(943,292,cs),
(939,349,o),
(930,407,o),
(905,459,cs),
(891,488,o),
(872,516,o),
(848,538,cs),
(826,557,o),
(797,567,o),
(769,575,cs),
(728,587,o),
(685,592,o),
(642,591,c),
(643,643,o),
(633,695,o),
(620,745,c),
(617,753,o),
(605,794,o),
(601,802,cs),
(597,809,o),
(589,813,o),
(582,808,cs),
(569,800,o),
(539,743,o),
(530,730,c),
(521,743,o),
(511,756,o),
(502,769,cs),
(497,776,o),
(486,792,o),
(478,792,cs),
(472,792,o),
(466,787,o),
(462,781,cs),
(444,758,o),
(432,729,o),
(422,701,c),
(415,709,o),
(409,718,o),
(402,726,cs),
(398,731,o),
(385,751,o),
(379,754,cs),
(371,758,o),
(361,763,o),
(357,755,cs),
(349,739,o),
(340,666,o),
(338,648,c),
(336,640,o),
(329,599,o),
(330,591,cs),
(330,587,o),
(322,590,o),
(318,590,cs),
(283,592,o),
(246,588,o),
(215,572,cs),
(157,545,o),
(104,501,o),
(71,447,cs),
(40,396,o),
(29,333,o),
(28,274,cs),
(27,193,o),
(50,108,o),
(95,41,cs),
(120,4,o),
(153,-28,o),
(191,-51,cs),
(246,-85,o),
(309,-105,o),
(373,-114,cs),
(439,-123,o),
(507,-124,o),
(572,-111,cs)
);
},
{
closed = 1;
nodes = (
(278,-65,o),
(276,-64,o),
(275,-62,cs),
(241,-15,o),
(215,37,o),
(190,90,cs),
(183,104,o),
(165,96,o),
(171,81,cs),
(191,36,o),
(214,-8,o),
(240,-50,c),
(207,-35,o),
(176,-15,o),
(150,11,cs),
(126,33,o),
(107,62,o),
(92,91,cs),
(51,173,o),
(41,276,o),
(63,364,cs),
(71,395,o),
(84,425,o),
(102,451,cs),
(130,491,o),
(169,524,o),
(212,546,cs),
(228,554,o),
(244,562,o),
(262,565,cs),
(308,575,o),
(357,564,o),
(403,554,cs),
(410,553,o),
(417,557,o),
(417,565,cs),
(417,590,o),
(408,615,o),
(407,641,cs),
(407,645,o),
(407,649,o),
(405,653,c),
(399,660,o),
(388,658,o),
(386,649,cs),
(383,638,o),
(393,590,o),
(395,578,c),
(380,581,o),
(365,584,o),
(349,586,cs),
(348,586,o),
(349,592,o),
(350,595,c),
(351,613,o),
(366,710,o),
(370,728,cs),
(370,729,o),
(371,730,o),
(371,731,c),
(385,712,o),
(397,692,o),
(415,678,cs),
(418,675,o),
(421,672,o),
(425,671,cs),
(431,670,o),
(436,673,o),
(438,678,cs),
(449,708,o),
(462,737,o),
(478,764,c),
(483,757,o),
(512,718,o),
(517,711,cs),
(521,707,o),
(530,703,o),
(535,706,cs),
(551,713,o),
(577,762,o),
(586,777,c),
(600,735,o),
(609,692,o),
(616,648,cs),
(618,629,o),
(620,610,o),
(620,590,c),
(605,589,o),
(591,587,o),
(577,584,cs),
(573,583,o),
(570,586,o),
(567,586,cs),
(562,586,o),
(558,580,o),
(554,579,cs),
(546,577,o),
(507,570,o),
(500,566,cs),
(485,559,o),
(493,539,o),
(509,542,cs),
(554,550,o),
(599,562,o),
(645,563,cs),
(680,564,o),
(715,560,o),
(749,554,cs),
(781,547,o),
(815,535,o),
(838,511,cs),
(864,484,o),
(881,449,o),
(893,413,cs),
(909,360,o),
(916,304,o),
(916,249,cs),
(916,217,o),
(915,184,o),
(904,154,cs),
(894,125,o),
(876,99,o),
(856,76,cs),
(815,29,o),
(765,-13,o),
(709,-40,c),
(735,-7,o),
(761,26,o),
(783,61,cs),
(786,65,o),
(796,80,o),
(797,84,cs),
(800,96,o),
(784,101,o),
(778,91,cs),
(761,65,o),
(688,-39,o),
(663,-58,cs),
(660,-60,o),
(661,-60,o),
(658,-59,cs),
(653,-58,o),
(649,-61,o),
(646,-64,c),
(596,-81,o),
(542,-92,o),
(489,-94,cs),
(419,-96,o),
(346,-88,o),
(279,-66,c)
);
},
{
closed = 1;
nodes = (
(513,617,o),
(510,637,o),
(509,656,cs),
(509,660,o),
(509,674,o),
(507,677,cs),
(503,686,o),
(489,685,o),
(486,675,cs),
(483,662,o),
(492,609,o),
(494,596,cs),
(496,578,o),
(518,581,o),
(516,598,cs)
);
},
{
closed = 1;
nodes = (
(580,620,o),
(584,654,o),
(584,660,cs),
(585,674,o),
(564,676,o),
(562,662,cs),
(560,647,o),
(559,632,o),
(557,616,cs),
(556,602,o),
(578,600,o),
(579,614,cs)
);
},
{
closed = 1;
nodes = (
(496,348,o),
(505,420,o),
(491,488,cs),
(488,503,o),
(482,540,o),
(467,546,c),
(462,557,o),
(447,556,o),
(446,544,cs),
(446,540,o),
(448,536,o),
(452,534,cs),
(456,532,o),
(461,519,o),
(463,514,cs),
(486,440,o),
(477,359,o),
(470,282,cs),
(468,266,o),
(488,263,o),
(490,278,cs)
);
},
{
closed = 1;
nodes = (
(843,178,o),
(851,253,o),
(850,269,cs),
(849,334,o),
(825,402,o),
(786,453,cs),
(764,482,o),
(735,504,o),
(706,525,cs),
(702,528,o),
(686,541,o),
(681,542,cs),
(672,544,o),
(664,532,o),
(671,525,cs),
(674,522,o),
(677,520,o),
(680,518,cs),
(708,496,o),
(739,477,o),
(763,449,cs),
(797,409,o),
(819,357,o),
(827,305,cs),
(834,259,o),
(827,212,o),
(819,166,cs),
(817,152,o),
(836,148,o),
(839,162,cs)
);
},
{
closed = 1;
nodes = (
(138,211,o),
(137,214,o),
(137,216,cs),
(129,270,o),
(134,327,o),
(148,379,cs),
(155,404,o),
(163,428,o),
(175,450,cs),
(182,465,o),
(195,478,o),
(210,485,cs),
(249,506,o),
(293,515,o),
(336,524,cs),
(347,526,o),
(345,542,o),
(334,542,cs),
(331,542,o),
(315,538,o),
(311,537,cs),
(272,529,o),
(231,520,o),
(196,499,cs),
(186,493,o),
(176,486,o),
(169,476,cs),
(155,456,o),
(145,432,o),
(138,409,cs),
(119,354,o),
(111,293,o),
(116,235,c),
(117,232,o),
(119,213,o),
(120,210,cs),
(122,200,o),
(135,199,o),
(138,209,c)
);
},
{
closed = 1;
nodes = (
(623,303,o),
(691,308,o),
(705,315,c),
(706,315,o),
(707,316,o),
(708,316,cs),
(730,311,o),
(715,347,o),
(706,367,c),
(716,374,o),
(712,389,o),
(700,389,cs),
(699,389,o),
(696,388,o),
(695,389,c),
(683,412,o),
(670,434,o),
(656,457,cs),
(653,462,o),
(639,486,o),
(634,490,cs),
(622,500,o),
(612,480,o),
(605,467,cs),
(585,429,o),
(573,387,o),
(560,347,cs),
(558,341,o),
(548,318,o),
(548,312,cs),
(548,304,o),
(557,300,o),
(564,305,c),
(562,299,o),
(567,293,o),
(573,293,cs),
(578,293,o),
(603,300,o),
(608,301,cs)
);
},
{
closed = 1;
nodes = (
(633,459,o),
(669,394,o),
(675,384,c),
(647,377,o),
(618,372,o),
(589,370,c),
(587,369,o),
(587,371,o),
(588,373,cs),
(599,406,o),
(611,438,o),
(627,469,c)
);
},
{
closed = 1;
nodes = (
(567,315,o),
(577,339,o),
(578,344,c),
(579,345,o),
(582,345,o),
(584,345,cs),
(619,347,o),
(653,353,o),
(687,361,c),
(691,352,o),
(695,343,o),
(699,333,c),
(686,332,o),
(615,322,o),
(603,321,cs),
(592,319,o),
(580,315,o),
(569,311,c),
(567,311,o),
(566,308,o),
(566,310,cs)
);
},
{
closed = 1;
nodes = (
(395,326,o),
(374,380,o),
(370,393,cs),
(363,411,o),
(350,448,o),
(331,449,cs),
(309,451,o),
(283,415,o),
(271,397,cs),
(257,376,o),
(245,353,o),
(233,332,cs),
(230,326,o),
(230,320,o),
(236,317,c),
(237,316,o),
(239,316,o),
(240,315,cs),
(244,312,o),
(261,311,o),
(267,310,cs),
(301,308,o),
(335,305,o),
(369,304,c),
(372,303,o),
(375,304,o),
(378,305,c),
(384,300,o),
(395,305,o),
(395,313,cs)
);
},
{
closed = 1;
nodes = (
(291,393,o),
(302,411,o),
(317,424,cs),
(320,427,o),
(327,433,o),
(331,431,cs),
(334,429,o),
(340,418,o),
(342,414,cs),
(348,400,o),
(353,385,o),
(358,371,c),
(332,377,o),
(306,377,o),
(280,376,c)
);
},
{
closed = 1;
nodes = (
(260,330,o),
(252,328,o),
(254,333,c),
(258,339,o),
(262,346,o),
(265,352,cs),
(266,354,o),
(267,353,o),
(269,352,cs),
(273,350,o),
(277,351,o),
(281,350,c),
(306,349,o),
(331,349,o),
(355,343,cs),
(359,342,o),
(363,341,o),
(367,340,c),
(369,334,o),
(371,328,o),
(373,322,c),
(359,323,o),
(278,328,o),
(265,330,cs)
);
},
{
closed = 1;
nodes = (
(480,-18,o),
(490,-9,o),
(495,9,c),
(497,13,o),
(496,18,o),
(499,21,c),
(505,25,o),
(505,34,o),
(499,39,c),
(499,42,o),
(500,50,o),
(502,52,cs),
(509,57,o),
(539,58,o),
(547,59,cs),
(549,59,o),
(554,60,o),
(555,59,cs),
(561,53,o),
(565,22,o),
(568,14,c),
(568,13,o),
(569,11,o),
(568,10,cs),
(561,5,o),
(565,-6,o),
(574,-6,cs),
(582,-6,o),
(611,5,o),
(619,9,cs),
(660,29,o),
(701,58,o),
(724,98,cs),
(739,125,o),
(749,155,o),
(758,185,cs),
(759,189,o),
(764,206,o),
(764,211,cs),
(764,217,o),
(758,221,o),
(752,220,c),
(744,231,o),
(728,216,o),
(716,209,cs),
(665,179,o),
(608,159,o),
(549,149,cs),
(525,144,o),
(446,137,o),
(423,148,cs),
(421,149,o),
(419,151,o),
(417,151,cs),
(413,152,o),
(407,150,o),
(405,146,cs),
(402,139,o),
(397,101,o),
(395,93,c),
(394,92,o),
(394,90,o),
(393,90,cs),
(383,91,o),
(352,94,o),
(346,101,cs),
(338,109,o),
(334,147,o),
(331,158,cs),
(330,165,o),
(322,168,o),
(315,165,c),
(299,169,o),
(283,172,o),
(268,177,c),
(265,181,o),
(260,184,o),
(255,183,cs),
(251,182,o),
(242,189,o),
(238,191,c),
(231,197,o),
(210,220,o),
(207,228,c),
(205,231,o),
(205,234,o),
(202,236,c),
(196,242,o),
(188,239,o),
(185,231,c),
(183,229,o),
(181,227,o),
(181,224,cs),
(181,222,o),
(184,213,o),
(185,211,c),
(191,190,o),
(196,169,o),
(203,149,cs),
(217,111,o),
(238,75,o),
(263,44,cs),
(278,25,o),
(296,7,o),
(318,-1,cs),
(350,-13,o),
(384,-18,o),
(418,-21,cs),
(433,-22,o),
(448,-23,o),
(462,-21,cs)
);
},
{
closed = 1;
nodes = (
(740,198,o),
(740,196,o),
(740,196,c),
(740,197,o),
(740,197,o),
(741,198,c)
);
},
{
closed = 1;
nodes = (
(311,20,o),
(291,38,o),
(276,57,cs),
(250,91,o),
(228,130,o),
(215,171,cs),
(213,178,o),
(207,193,o),
(212,188,cs),
(221,177,o),
(233,169,o),
(246,164,cs),
(248,163,o),
(249,161,o),
(249,159,c),
(262,121,o),
(284,83,o),
(315,57,cs),
(338,37,o),
(366,23,o),
(395,16,cs),
(422,10,o),
(450,11,o),
(477,14,c),
(475,8,o),
(471,2,o),
(465,0,cs),
(440,-9,o),
(359,5,o),
(334,13,cs)
);
},
{
closed = 1;
nodes = (
(581,38,o),
(583,39,o),
(584,39,c),
(603,45,o),
(622,53,o),
(637,64,cs),
(679,94,o),
(709,139,o),
(733,184,c),
(735,186,o),
(738,189,o),
(737,186,cs),
(727,153,o),
(716,119,o),
(696,91,cs),
(679,68,o),
(654,49,o),
(629,35,cs),
(616,28,o),
(602,20,o),
(587,16,c),
(585,23,o),
(583,29,o),
(582,36,c)
);
},
{
closed = 1;
nodes = (
(380,42,o),
(351,55,o),
(329,74,cs),
(304,95,o),
(287,124,o),
(274,153,c),
(279,152,o),
(307,145,o),
(312,144,c),
(313,133,o),
(322,96,o),
(329,87,cs),
(335,79,o),
(347,76,o),
(357,74,cs),
(369,71,o),
(382,72,o),
(393,66,cs),
(398,64,o),
(405,67,o),
(409,71,cs),
(417,79,o),
(420,115,o),
(422,127,c),
(446,121,o),
(471,120,o),
(496,121,cs),
(568,125,o),
(641,144,o),
(704,177,c),
(683,139,o),
(655,103,o),
(618,78,cs),
(605,70,o),
(590,64,o),
(575,60,c),
(573,67,o),
(568,74,o),
(561,77,cs),
(550,82,o),
(515,76,o),
(504,73,cs),
(497,71,o),
(489,67,o),
(485,61,cs),
(480,55,o),
(480,46,o),
(480,38,c),
(456,35,o),
(432,33,o),
(409,37,cs)
);
}
);
width = 974;
}
);
note = J;
unicode = 74;
},
{
glyphname = K;
layers = (
{
layerId = m01;
shapes = (
{
closed = 1;
nodes = (
(96,-110,o),
(111,-93,o),
(120,-74,cs),
(128,-57,o),
(130,-39,o),
(139,-22,cs),
(149,-2,o),
(165,15,o),
(181,31,cs),
(195,45,o),
(278,120,o),
(290,136,cs),
(293,139,o),
(293,145,o),
(291,149,c),
(295,146,o),
(320,129,o),
(324,125,cs),
(329,121,o),
(334,121,o),
(339,125,cs),
(342,127,o),
(346,126,o),
(349,128,cs),
(357,132,o),
(363,138,o),
(369,144,c),
(375,142,o),
(381,144,o),
(385,150,cs),
(388,154,o),
(387,159,o),
(390,162,cs),
(396,168,o),
(424,196,o),
(432,200,cs),
(435,202,o),
(437,206,o),
(440,208,c),
(472,238,o),
(504,269,o),
(536,298,c),
(542,298,o),
(548,301,o),
(552,305,c),
(554,309,o),
(554,315,o),
(557,318,cs),
(595,352,o),
(632,386,o),
(667,422,cs),
(697,454,o),
(725,490,o),
(741,531,cs),
(767,596,o),
(768,672,o),
(759,742,cs),
(757,762,o),
(751,789,o),
(732,783,c),
(728,784,o),
(724,785,o),
(721,783,cs),
(715,780,o),
(698,759,o),
(694,755,cs),
(627,681,o),
(555,612,o),
(481,545,cs),
(398,470,o),
(311,398,o),
(232,317,cs),
(225,310,o),
(192,275,o),
(187,267,cs),
(185,264,o),
(187,259,o),
(184,258,cs),
(176,254,o),
(174,243,o),
(180,236,cs),
(184,231,o),
(209,212,o),
(214,208,c),
(208,206,o),
(203,201,o),
(199,196,cs),
(182,178,o),
(74,78,o),
(55,60,cs),
(29,35,o),
(-35,-23,o),
(-30,-59,cs),
(-26,-84,o),
(8,-116,o),
(31,-124,cs),
(47,-129,o),
(63,-128,o),
(78,-120,cs)
);
},
{
closed = 1;
nodes = (
(246,215,o),
(224,232,o),
(202,249,c),
(200,250,o),
(201,252,o),
(203,253,cs),
(204,254,o),
(211,262,o),
(212,264,c),
(224,277,o),
(236,290,o),
(249,303,cs),
(326,383,o),
(412,454,o),
(495,528,cs),
(575,601,o),
(652,677,o),
(725,756,c),
(722,742,o),
(718,729,o),
(713,717,cs),
(697,683,o),
(675,652,o),
(651,623,cs),
(616,580,o),
(579,540,o),
(543,499,c),
(536,497,o),
(530,491,o),
(530,484,c),
(517,469,o),
(505,454,o),
(493,440,cs),
(489,435,o),
(481,432,o),
(480,426,cs),
(480,425,o),
(479,424,o),
(479,423,c),
(463,404,o),
(447,384,o),
(431,365,cs),
(429,362,o),
(424,360,o),
(422,356,cs),
(418,347,o),
(388,314,o),
(381,307,c),
(374,306,o),
(370,302,o),
(369,293,c),
(357,281,o),
(288,213,o),
(276,202,cs),
(274,200,o),
(271,196,o),
(269,198,cs)
);
},
{
closed = 1;
nodes = (
(703,574,o),
(682,617,o),
(679,624,c),
(702,655,o),
(725,687,o),
(737,723,c),
(743,662,o),
(742,598,o),
(720,541,c),
(719,544,o),
(708,563,o),
(706,566,c)
);
},
{
closed = 1;
nodes = (
(655,458,o),
(654,462,o),
(654,463,c),
(638,489,o),
(626,518,o),
(610,544,c),
(626,561,o),
(641,579,o),
(656,597,c),
(658,598,o),
(658,596,o),
(659,594,cs),
(662,586,o),
(678,542,o),
(681,534,cs),
(686,523,o),
(692,510,o),
(703,506,c),
(693,486,o),
(679,469,o),
(664,453,cs),
(663,452,o),
(659,457,o),
(657,458,c)
);
},
{
closed = 1;
nodes = (
(559,485,o),
(559,486,o),
(561,488,cs),
(564,492,o),
(585,514,o),
(588,518,c),
(592,506,o),
(615,450,o),
(621,439,cs),
(625,433,o),
(630,427,o),
(636,422,c),
(624,410,o),
(612,399,o),
(600,388,c),
(588,420,o),
(573,451,o),
(560,483,cs)
);
},
{
closed = 1;
nodes = (
(507,425,o),
(507,425,o),
(509,427,cs),
(518,438,o),
(527,449,o),
(537,460,c),
(538,462,o),
(538,460,o),
(539,458,cs),
(550,430,o),
(559,401,o),
(571,374,cs),
(572,372,o),
(576,367,o),
(576,365,c),
(576,365,o),
(575,364,o),
(575,364,c),
(566,355,o),
(556,347,o),
(547,338,c),
(534,366,o),
(521,394,o),
(508,422,cs)
);
},
{
closed = 1;
nodes = (
(479,292,o),
(453,339,o),
(450,348,cs),
(449,350,o),
(448,352,o),
(449,354,cs),
(461,370,o),
(474,385,o),
(487,400,c),
(499,373,o),
(506,343,o),
(517,315,c),
(518,314,o),
(519,312,o),
(518,311,cs),
(507,301,o),
(496,292,o),
(486,282,cs),
(485,281,o),
(483,282,o),
(483,284,c)
);
},
{
closed = 1;
nodes = (
(408,305,o),
(418,317,o),
(428,329,c),
(432,319,o),
(453,269,o),
(459,260,cs),
(460,258,o),
(460,257,o),
(458,256,c),
(450,247,o),
(441,239,o),
(432,231,c),
(427,239,o),
(401,284,o),
(397,293,c)
);
},
{
closed = 1;
nodes = (
(353,248,o),
(365,260,o),
(377,272,c),
(381,263,o),
(403,219,o),
(408,211,cs),
(409,210,o),
(408,208,o),
(407,207,cs),
(397,197,o),
(386,188,o),
(376,179,c),
(371,186,o),
(345,229,o),
(341,236,c)
);
},
{
closed = 1;
nodes = (
(298,193,o),
(308,203,o),
(317,212,cs),
(319,214,o),
(319,214,o),
(321,212,c),
(330,193,o),
(341,175,o),
(352,158,c),
(347,154,o),
(342,149,o),
(336,145,c),
(330,151,o),
(295,179,o),
(288,184,c)
);
},
{
closed = 1;
nodes = (
(25,-101,o),
(11,-88,o),
(0,-75,cs),
(-5,-69,o),
(-10,-60,o),
(-9,-52,cs),
(-7,-26,o),
(47,24,o),
(66,42,cs),
(117,90,o),
(171,133,o),
(218,184,c),
(220,187,o),
(223,188,o),
(225,190,cs),
(227,192,o),
(227,195,o),
(227,198,c),
(246,183,o),
(265,169,o),
(283,155,cs),
(288,152,o),
(280,155,o),
(276,152,c),
(273,151,o),
(263,141,o),
(261,139,cs),
(230,109,o),
(199,80,o),
(169,50,cs),
(150,30,o),
(130,10,o),
(118,-14,cs),
(111,-29,o),
(108,-45,o),
(102,-59,cs),
(93,-84,o),
(67,-110,o),
(42,-105,cs)
);
},
{
closed = 1;
nodes = (
(48,-62,o),
(52,-54,o),
(52,-51,cs),
(52,-47,o),
(48,-44,o),
(47,-40,cs),
(45,-30,o),
(31,-28,o),
(27,-37,cs),
(19,-53,o),
(31,-75,o),
(45,-65,c)
);
}
);
width = 776;
}
);
note = K;
unicode = 75;
},
{
glyphname = L;
layers = (
{
layerId = m01;
shapes = (
{
closed = 1;
nodes = (
(756,-149,o),
(771,-120,o),
(765,-99,cs),
(761,-85,o),
(751,-72,o),
(741,-61,c),
(740,-53,o),
(722,-13,o),
(719,-5,cs),
(707,26,o),
(694,57,o),
(680,87,cs),
(662,125,o),
(640,161,o),
(619,198,c),
(630,201,o),
(641,207,o),
(649,215,cs),
(685,246,o),
(718,284,o),
(737,328,cs),
(761,383,o),
(771,446,o),
(762,506,cs),
(753,565,o),
(724,621,o),
(695,674,cs),
(693,678,o),
(687,679,o),
(685,683,cs),
(669,716,o),
(645,748,o),
(614,768,cs),
(567,800,o),
(506,812,o),
(449,812,cs),
(361,811,o),
(273,788,o),
(190,758,cs),
(188,757,o),
(185,758,o),
(182,758,c),
(160,754,o),
(141,738,o),
(125,723,cs),
(71,670,o),
(35,596,o),
(25,522,cs),
(21,490,o),
(24,457,o),
(30,425,cs),
(42,367,o),
(69,311,o),
(107,266,c),
(109,265,o),
(114,255,o),
(116,254,c),
(119,249,o),
(139,223,o),
(143,218,cs),
(178,176,o),
(230,148,o),
(282,133,cs),
(317,122,o),
(355,119,o),
(391,119,cs),
(419,118,o),
(447,118,o),
(475,123,cs),
(486,125,o),
(498,129,o),
(506,136,c),
(551,51,o),
(596,-33,o),
(637,-120,c),
(639,-123,o),
(642,-127,o),
(644,-130,cs),
(652,-140,o),
(668,-133,o),
(665,-120,cs),
(664,-117,o),
(658,-104,o),
(656,-102,c),
(646,-83,o),
(587,36,o),
(578,55,cs),
(555,99,o),
(531,142,o),
(508,186,c),
(507,187,o),
(510,193,o),
(512,194,cs),
(523,202,o),
(536,211,o),
(550,211,cs),
(561,211,o),
(572,208,o),
(583,205,c),
(606,160,o),
(632,116,o),
(655,71,cs),
(677,25,o),
(695,-23,o),
(717,-68,cs),
(718,-71,o),
(727,-82,o),
(729,-84,c),
(721,-81,o),
(702,-86,o),
(695,-90,cs),
(671,-101,o),
(667,-139,o),
(688,-156,cs),
(701,-166,o),
(722,-166,o),
(736,-159,cs)
);
},
{
closed = 1;
nodes = (
(213,226,o),
(193,234,o),
(175,245,cs),
(153,258,o),
(135,277,o),
(119,297,cs),
(83,342,o),
(58,399,o),
(51,456,cs),
(41,531,o),
(65,614,o),
(110,675,cs),
(122,691,o),
(136,706,o),
(151,719,c),
(157,715,o),
(167,714,o),
(172,718,cs),
(203,744,o),
(339,774,o),
(379,780,cs),
(425,787,o),
(472,787,o),
(517,778,cs),
(545,773,o),
(572,763,o),
(596,747,cs),
(634,722,o),
(660,679,o),
(674,636,cs),
(692,579,o),
(695,514,o),
(679,457,cs),
(666,412,o),
(639,370,o),
(606,336,cs),
(512,239,o),
(367,195,o),
(234,222,cs)
);
},
{
closed = 1;
nodes = (
(402,558,o),
(491,583,o),
(506,591,cs),
(508,592,o),
(514,598,o),
(515,599,c),
(517,599,o),
(522,596,o),
(524,595,cs),
(536,590,o),
(541,608,o),
(532,618,cs),
(505,646,o),
(475,670,o),
(442,689,cs),
(432,695,o),
(419,701,o),
(414,690,c),
(409,690,o),
(404,685,o),
(402,681,cs),
(397,666,o),
(378,580,o),
(371,565,cs),
(367,556,o),
(377,548,o),
(386,552,cs)
);
},
{
closed = 1;
nodes = (
(429,668,o),
(436,663,o),
(444,658,c),
(441,650,o),
(422,600,o),
(419,591,c),
(419,590,o),
(419,585,o),
(419,585,c),
(412,583,o),
(405,580,o),
(398,579,c),
(402,590,o),
(418,661,o),
(421,673,c)
);
},
{
closed = 1;
nodes = (
(476,635,o),
(488,625,o),
(499,615,c),
(492,613,o),
(454,598,o),
(447,595,c),
(450,601,o),
(462,638,o),
(464,644,c)
);
},
{
closed = 1;
nodes = (
(161,487,o),
(163,488,o),
(164,489,c),
(185,495,o),
(272,528,o),
(289,540,cs),
(292,542,o),
(295,534,o),
(298,532,cs),
(304,529,o),
(312,534,o),
(312,541,cs),
(312,545,o),
(309,550,o),
(307,554,cs),
(303,560,o),
(276,591,o),
(271,597,cs),
(270,598,o),
(269,600,o),
(269,601,cs),
(269,608,o),
(263,613,o),
(257,613,c),
(253,618,o),
(232,638,o),
(230,644,cs),
(225,654,o),
(211,651,o),
(209,641,cs),
(209,640,o),
(204,638,o),
(203,637,cs),
(202,635,o),
(198,625,o),
(197,623,cs),
(187,598,o),
(175,574,o),
(164,550,cs),
(155,532,o),
(144,514,o),
(144,494,cs),
(144,486,o),
(153,481,o),
(160,486,cs)
);
},
{
closed = 1;
nodes = (
(218,622,o),
(218,623,o),
(220,622,c),
(222,619,o),
(237,602,o),
(240,599,c),
(234,590,o),
(205,539,o),
(200,530,c),
(199,527,o),
(198,523,o),
(195,522,cs),
(187,518,o),
(178,515,o),
(170,512,c),
(184,548,o),
(203,583,o),
(217,620,cs)
);
},
{
closed = 1;
nodes = (
(260,576,o),
(272,562,o),
(274,560,cs),
(276,558,o),
(277,557,o),
(274,556,cs),
(269,554,o),
(240,541,o),
(235,539,c),
(237,544,o),
(255,573,o),
(257,578,c)
);
},
{
closed = 1;
nodes = (
(410,287,o),
(428,296,o),
(446,306,c),
(457,303,o),
(465,315,o),
(458,324,cs),
(447,339,o),
(439,355,o),
(432,372,c),
(442,376,o),
(452,381,o),
(461,386,c),
(467,378,o),
(472,370,o),
(477,362,c),
(478,359,o),
(485,346,o),
(488,344,cs),
(492,341,o),
(497,343,o),
(501,347,cs),
(504,349,o),
(518,358,o),
(521,360,cs),
(542,378,o),
(556,404,o),
(567,430,cs),
(584,469,o),
(593,511,o),
(601,553,cs),
(603,564,o),
(610,606,o),
(608,616,cs),
(605,627,o),
(592,625,o),
(586,616,cs),
(569,591,o),
(545,571,o),
(520,554,cs),
(512,549,o),
(489,537,o),
(480,537,c),
(478,538,o),
(477,539,o),
(476,540,c),
(466,543,o),
(458,534,o),
(463,525,c),
(463,524,o),
(463,520,o),
(464,519,c),
(471,505,o),
(478,490,o),
(485,474,cs),
(486,472,o),
(485,471,o),
(483,471,c),
(471,465,o),
(460,458,o),
(449,450,c),
(442,466,o),
(434,480,o),
(426,495,cs),
(420,508,o),
(403,495,o),
(390,489,cs),
(375,481,o),
(359,475,o),
(342,471,c),
(339,471,o),
(336,470,o),
(334,469,cs),
(326,465,o),
(325,455,o),
(329,447,cs),
(336,432,o),
(343,417,o),
(350,402,cs),
(351,399,o),
(351,399,o),
(349,398,cs),
(338,393,o),
(327,387,o),
(316,382,c),
(314,390,o),
(300,422,o),
(295,429,cs),
(291,434,o),
(283,438,o),
(278,436,cs),
(255,427,o),
(231,417,o),
(207,417,cs),
(196,416,o),
(184,417,o),
(174,421,cs),
(167,425,o),
(161,430,o),
(154,434,cs),
(149,437,o),
(144,436,o),
(140,432,c),
(133,435,o),
(126,432,o),
(126,425,cs),
(126,421,o),
(132,408,o),
(134,405,cs),
(146,381,o),
(162,358,o),
(181,339,cs),
(187,333,o),
(197,321,o),
(204,322,c),
(206,323,o),
(207,323,o),
(208,323,cs),
(220,323,o),
(223,343,o),
(226,354,c),
(235,352,o),
(244,350,o),
(253,348,cs),
(258,347,o),
(257,339,o),
(257,334,cs),
(259,320,o),
(257,287,o),
(270,280,cs),
(277,277,o),
(286,276,o),
(294,275,cs),
(326,270,o),
(360,272,o),
(391,281,cs)
);
},
{
closed = 1;
nodes = (
(281,309,o),
(279,352,o),
(274,361,c),
(273,365,o),
(269,367,o),
(265,367,cs),
(259,367,o),
(232,374,o),
(226,374,c),
(221,381,o),
(212,381,o),
(209,373,cs),
(208,369,o),
(202,349,o),
(201,345,c),
(183,365,o),
(165,386,o),
(152,409,c),
(169,397,o),
(191,391,o),
(212,392,cs),
(235,394,o),
(258,400,o),
(279,410,c),
(281,405,o),
(295,373,o),
(297,368,cs),
(299,364,o),
(304,357,o),
(308,356,cs),
(313,355,o),
(329,362,o),
(334,364,cs),
(339,366,o),
(362,381,o),
(368,382,cs),
(376,384,o),
(377,393,o),
(374,400,cs),
(371,407,o),
(353,444,o),
(349,450,c),
(371,455,o),
(394,463,o),
(413,476,c),
(419,463,o),
(425,450,o),
(430,436,cs),
(431,434,o),
(435,427,o),
(437,425,c),
(442,422,o),
(448,422,o),
(452,427,c),
(452,428,o),
(455,429,o),
(456,429,c),
(470,437,o),
(484,444,o),
(497,453,cs),
(498,454,o),
(500,453,o),
(501,454,c),
(509,455,o),
(513,464,o),
(508,470,cs),
(503,476,o),
(490,509,o),
(487,515,c),
(505,517,o),
(522,526,o),
(537,537,cs),
(554,549,o),
(570,563,o),
(584,578,c),
(577,537,o),
(568,496,o),
(554,457,cs),
(544,428,o),
(529,398,o),
(508,376,c),
(504,373,o),
(501,370,o),
(498,366,c),
(493,373,o),
(475,401,o),
(468,406,cs),
(463,411,o),
(449,405,o),
(442,401,cs),
(425,393,o),
(399,385,o),
(411,370,c),
(414,355,o),
(421,340,o),
(428,326,c),
(430,324,o),
(430,323,o),
(428,322,cs),
(405,312,o),
(382,303,o),
(357,298,cs),
(333,294,o),
(307,294,o),
(282,299,c)
);
},
{
closed = 1;
nodes = (
(594,243,o),
(591,255,o),
(589,256,c),
(586,261,o),
(581,265,o),
(576,267,c),
(624,302,o),
(667,349,o),
(693,404,cs),
(717,454,o),
(724,514,o),
(718,569,c),
(728,541,o),
(736,512,o),
(738,482,cs),
(741,420,o),
(724,356,o),
(692,303,cs),
(682,287,o),
(670,272,o),
(657,258,cs),
(645,245,o),
(633,232,o),
(619,224,c),
(614,225,o),
(609,224,o),
(605,222,c),
(602,229,o),
(598,235,o),
(595,241,cs)
);
},
{
closed = 1;
nodes = (
(257,166,o),
(224,182,o),
(194,203,c),
(255,181,o),
(325,181,o),
(389,190,cs),
(450,200,o),
(510,223,o),
(561,256,c),
(561,249,o),
(565,242,o),
(568,235,c),
(552,237,o),
(534,237,o),
(521,229,cs),
(515,226,o),
(493,212,o),
(490,205,cs),
(489,203,o),
(486,203,o),
(485,201,c),
(474,193,o),
(486,174,o),
(493,162,cs),
(494,160,o),
(494,159,o),
(492,158,cs),
(482,151,o),
(440,148,o),
(427,147,cs),
(382,146,o),
(336,146,o),
(292,157,cs)
);
},
{
closed = 1;
nodes = (
(697,-125,o),
(697,-116,o),
(702,-112,cs),
(708,-107,o),
(718,-108,o),
(725,-105,c),
(732,-104,o),
(734,-100,o),
(734,-93,c),
(743,-109,o),
(738,-130,o),
(721,-136,cs),
(712,-139,o),
(702,-139,o),
(699,-131,cs)
);
}
);
width = 795;
}
);
note = L;
unicode = 76;
},
